<?xml version="1.0" encoding="utf-8"?>
<!-- Generator: Adobe Illustrator 23.0.2, SVG Export Plug-In . SVG Version: 6.00 Build 0)  -->
<svg version="1.1" id="图层_1" xmlns="http://www.w3.org/2000/svg" xmlns:xlink="http://www.w3.org/1999/xlink" x="0px" y="0px"
	 viewBox="0 0 56.948 10" enable-background="new 0 0 56.948 10" xml:space="preserve">
<g>
	<path fill="#040000" d="M29.675,3.501c-0.434,0.313,0.844,1.694,0.484,2.913c-0.356,1.204-1.455,2.539-3.408,2.001
		c-0.024-0.005-0.047-0.012-0.071-0.019c-1.29-0.381-2.007-1.731-1.645-3.026c0.468-1.676,2.371-1.027,2.665-1.723
		c0.01-0.024,0.02-0.051,0.028-0.078c0,0,0.31-0.912-0.779-1.234c-0.8-0.236-2.012,0.034-2.849,1.038
		c-0.009,0.011-0.019,0.023-0.029,0.036c-0.238,0.294-0.445,0.649-0.6,1.072c-0.01,0.026-0.02,0.053-0.029,0.079
		C23.431,4.59,23.42,4.621,23.41,4.651c-0.011,0.036-0.023,0.073-0.034,0.11c-0.639,2.162,0.596,4.432,2.758,5.07
		c1.813,0.536,3.703-0.247,4.642-1.791C32.239,5.081,29.675,3.501,29.675,3.501z"/>
	<path fill="#040000" d="M26.153,6.162c0.044,0.432,0.879,0.524,1.318,0.369c0.388-0.137,0.918-0.384,0.916-1.174
		c-0.001-0.179-0.127-0.327-0.302-0.364c-0.15-0.032-0.24-0.091-0.295-0.152c-0.089-0.098-0.226-0.14-0.347-0.087
		c-0.95,0.409-0.557,1.083-0.694,1.26C26.507,6.423,26.175,6.092,26.153,6.162z"/>
	<path fill="#040000" d="M28.722,2.722c-1.134,1.388-0.978,2.276-0.379,2.092c0.599-0.185,1.293-2.463,2.928-3.324l2.556-1.344
		C34.314-0.458,30.217,0.892,28.722,2.722z"/>
	<path fill="#040000" d="M21.141,8.089c-0.37,0.277-0.732,0.417-1.074,0.417c-0.602,0-1.007-0.477-1.399-0.939
		c-0.118-0.139-0.237-0.279-0.363-0.405c0.429-0.299,0.707-0.801,0.692-1.367c-0.024-0.878-0.772-1.564-1.65-1.564h-1.183
		c-0.041,0-0.074,0.033-0.074,0.074v4.831c0,0.041,0.033,0.074,0.074,0.074h0.606c0.041,0,0.074-0.033,0.074-0.074V7.525
		c0-0.041,0.033-0.074,0.074-0.074h0.47c0.193,0,0.454,0.307,0.706,0.604c0.456,0.537,1.023,1.205,1.974,1.205
		c0.513,0,1.03-0.194,1.538-0.576c0.033-0.025,0.039-0.072,0.013-0.105l-0.374-0.477C21.219,8.07,21.173,8.065,21.141,8.089z
		 M17.387,6.698h-0.47c-0.041,0-0.074-0.033-0.074-0.074V5.059c0-0.041,0.033-0.074,0.074-0.074h0.445
		c0.445,0,0.835,0.33,0.877,0.774C18.287,6.268,17.886,6.698,17.387,6.698z"/>
	<path fill="#040000" d="M14.889,7.687c-0.062-0.146-0.132-0.312-0.224-0.465c0.486-0.291,0.808-0.83,0.786-1.442
		c-0.032-0.871-0.775-1.549-1.646-1.549h-1.185c-0.041,0-0.075,0.034-0.075,0.075v4.829c0,0.041,0.034,0.075,0.075,0.075h0.604
		c0.041,0,0.075-0.034,0.075-0.075V7.527c0-0.041,0.034-0.075,0.075-0.075h0.469c0.111,0,0.195,0.156,0.353,0.529
		c0.203,0.481,0.507,1.2,1.371,1.24c0.042,0.002,0.077-0.033,0.077-0.075V8.541c0-0.038-0.029-0.071-0.068-0.074
		C15.242,8.439,15.105,8.198,14.889,7.687z M13.842,6.698h-0.469c-0.041,0-0.075-0.034-0.075-0.075V5.061
		c0-0.041,0.034-0.075,0.075-0.075h0.444c0.445,0,0.835,0.33,0.877,0.774C14.742,6.268,14.341,6.698,13.842,6.698z"/>
	<path fill="#040000" d="M8.751,4.248c-0.04,0-0.073,0.033-0.073,0.073v2.031v0.754v2.031c0,0.04,0.033,0.073,0.073,0.073h3.274
		c0.04,0,0.073-0.033,0.073-0.073V8.53c0-0.04-0.033-0.073-0.073-0.073H9.432v-1.35h2.593c0.04,0,0.073-0.033,0.073-0.073V6.425
		c0-0.04-0.033-0.073-0.073-0.073H9.432v-1.35h2.593c0.04,0,0.073-0.033,0.073-0.073V4.321c0-0.04-0.033-0.073-0.073-0.073H8.751z"
		/>
	<path fill="#040000" d="M21.841,4.28c-0.033-0.027-0.081-0.022-0.108,0.01l-0.884,1.075c-0.031,0.037-0.088,0.037-0.118,0
		L19.846,4.29c-0.027-0.033-0.075-0.037-0.108-0.01l-0.463,0.383c-0.033,0.027-0.037,0.075-0.01,0.108l1.131,1.374
		c0.011,0.014,0.017,0.031,0.017,0.049V8.02c0,0.053,0.052,0.089,0.102,0.073c0.203-0.067,0.41-0.18,0.621-0.337
		c0.02-0.015,0.031-0.038,0.031-0.062V6.193c0-0.018,0.006-0.035,0.017-0.049l1.13-1.374c0.027-0.033,0.022-0.081-0.01-0.108
		L21.841,4.28z"/>
	<path fill="#040000" d="M7.552,4.232c-0.042,0-0.076,0.034-0.076,0.076v2.045H5.137V4.307c0-0.042-0.034-0.076-0.076-0.076H4.459
		c-0.042,0-0.076,0.034-0.076,0.076v2.045v0.754v2.028c0,0.042,0.034,0.076,0.076,0.076h0.602c0.042,0,0.076-0.034,0.076-0.076
		V7.107h2.339v2.028c0,0.042,0.034,0.076,0.076,0.076h0.602c0.042,0,0.076-0.034,0.076-0.076V7.107V6.353V4.307
		c0-0.042-0.034-0.076-0.076-0.076H7.552z"/>
	<path fill="#040000" d="M3.441,8.166c-0.284,0.191-0.614,0.291-0.96,0.291c-1.02,0-1.836-0.889-1.715-1.933
		c0.093-0.797,0.742-1.435,1.541-1.513C2.712,4.971,3.104,5.07,3.434,5.289c0.034,0.023,0.079,0.016,0.103-0.017l0.355-0.488
		C3.917,4.749,3.91,4.701,3.875,4.677C3.463,4.396,2.983,4.248,2.481,4.248c-1.366,0-2.49,1.13-2.481,2.497
		c0.008,1.361,1.118,2.466,2.481,2.466c0.506,0,0.99-0.15,1.404-0.435c0.035-0.024,0.042-0.073,0.017-0.107L3.545,8.183
		C3.521,8.15,3.475,8.143,3.441,8.166z"/>
	<path fill="#040000" d="M56.495,8.101c-0.025-0.032-0.07-0.037-0.103-0.013c-0.37,0.277-0.732,0.417-1.074,0.417
		c-0.602,0-1.007-0.477-1.399-0.939c-0.118-0.139-0.237-0.279-0.363-0.405c0.429-0.299,0.707-0.801,0.692-1.367
		c-0.024-0.878-0.772-1.564-1.65-1.564h-1.183c-0.041,0-0.074,0.033-0.074,0.074v4.831c0,0.041,0.033,0.074,0.074,0.074h0.606
		c0.041,0,0.074-0.033,0.074-0.074V7.525c0-0.041,0.033-0.074,0.074-0.074h0.47c0.193,0,0.454,0.307,0.706,0.604
		c0.456,0.537,1.023,1.205,1.974,1.205c0.513,0,1.03-0.194,1.538-0.576c0.033-0.025,0.039-0.073,0.013-0.105L56.495,8.101z
		 M52.638,6.698h-0.47c-0.041,0-0.074-0.033-0.074-0.074V5.06c0-0.041,0.033-0.074,0.074-0.074h0.445
		c0.445,0,0.835,0.33,0.877,0.774C53.538,6.268,53.137,6.698,52.638,6.698z"/>
	<path fill="#040000" d="M46.142,4.928V4.323c0-0.041-0.033-0.075-0.075-0.075h-3.557c-0.041,0-0.075,0.033-0.075,0.075v0.605
		c0,0.041,0.033,0.075,0.075,0.075h1.402v4.134c0,0.041,0.033,0.075,0.075,0.075h0.605c0.041,0,0.075-0.033,0.075-0.075V5.002h1.402
		C46.109,5.002,46.142,4.969,46.142,4.928z"/>
	<path fill="#040000" d="M38.262,4.248l-1.73,0c-0.042,0-0.076,0.034-0.076,0.076v4.81c0,0.042,0.034,0.076,0.076,0.076l1.73,0
		c1.368,0,2.481-1.113,2.481-2.481C40.743,5.361,39.63,4.248,38.262,4.248z M38.262,8.457l-0.976,0
		c-0.042,0-0.076-0.034-0.076-0.076V5.079c0-0.042,0.034-0.076,0.076-0.076l0.976,0c0.952,0,1.727,0.775,1.727,1.727
		C39.989,7.682,39.214,8.457,38.262,8.457z"/>
	<path fill="#040000" d="M32.647,4.248c-0.043,0-0.077,0.035-0.077,0.077v4.808c0,0.043,0.034,0.077,0.077,0.077h3.265
		c0.043,0,0.077-0.035,0.077-0.077v-0.6c0-0.043-0.035-0.077-0.077-0.077h-2.588v-1.35h2.588c0.043,0,0.077-0.035,0.077-0.077v-0.6
		c0-0.043-0.035-0.077-0.077-0.077h-2.588v-1.35h2.588c0.043,0,0.077-0.035,0.077-0.077v-0.6c0-0.043-0.035-0.077-0.077-0.077
		H32.647z"/>
	<path fill="#040000" d="M41.277,4.232c-0.042,0-0.075,0.034-0.075,0.075v4.828c0,0.042,0.034,0.075,0.075,0.075h0.603
		c0.042,0,0.075-0.034,0.075-0.075V4.307c0-0.042-0.034-0.075-0.075-0.075H41.277z"/>
	<path fill="#040000" d="M48.404,4.248c-1.368,0-2.481,1.113-2.481,2.481c0,1.368,1.113,2.481,2.481,2.481
		c1.368,0,2.481-1.113,2.481-2.481C50.886,5.361,49.773,4.248,48.404,4.248z M48.404,8.457c-0.952,0-1.727-0.775-1.727-1.727
		s0.775-1.727,1.727-1.727s1.727,0.775,1.727,1.727S49.357,8.457,48.404,8.457z"/>
</g>
</svg>
