<?xml version="1.0" encoding="utf-8"?>
<!-- Generator: Adobe Illustrator 21.1.0, SVG Export Plug-In . SVG Version: 6.00 Build 0)  -->
<svg version="1.1" id="图形" xmlns="http://www.w3.org/2000/svg" xmlns:xlink="http://www.w3.org/1999/xlink" x="0px" y="0px"
	 viewBox="90.288 58.809 850.394 850.394" enable-background="new 90.288 58.809 850.394 850.394" xml:space="preserve">
<g>
	<path d="M350.505,641.598L166.106,484.626l184.79-162.875c12.429-10.956,13.625-29.913,2.669-42.343
		c-10.955-12.429-29.912-13.624-42.343-2.669L100.451,462.515c-6.529,5.755-10.237,14.062-10.162,22.764
		c0.075,8.703,3.926,16.944,10.553,22.585l210.771,179.421c5.646,4.807,12.556,7.157,19.432,7.157
		c8.489-0.001,16.924-3.584,22.858-10.555C364.643,671.272,363.122,652.337,350.505,641.598z"/>
	<path d="M930.519,464.678L719.747,278.903c-12.431-10.955-31.387-9.759-42.343,2.669c-10.955,12.43-9.761,31.387,2.669,42.343
		L864.864,486.79l-184.4,156.971c-12.616,10.739-14.138,29.674-3.397,42.29c5.934,6.971,14.368,10.555,22.858,10.555
		c6.875-0.001,13.786-2.352,19.432-7.157l210.772-179.42c6.627-5.642,10.478-13.883,10.553-22.586
		C940.756,478.74,937.047,470.433,930.519,464.678z"/>
	<path d="M582.347,201.347c-16.13-3.813-32.287,6.165-36.101,22.289L426.335,730.564c-3.814,16.124,6.165,32.286,22.289,36.101
		c2.323,0.55,4.644,0.813,6.931,0.813c13.591,0,25.904-9.3,29.169-23.101l119.912-506.929
		C608.45,221.323,598.47,205.161,582.347,201.347z"/>
</g>
</svg>
