<?xml version="1.0" encoding="utf-8"?>
<!-- Generator: Adobe Illustrator 21.1.0, SVG Export Plug-In . SVG Version: 6.00 Build 0)  -->
<svg version="1.1" id="图形" xmlns="http://www.w3.org/2000/svg" xmlns:xlink="http://www.w3.org/1999/xlink" x="0px" y="0px"
	 viewBox="90.288 58.809 850.394 850.394" enable-background="new 90.288 58.809 850.394 850.394" xml:space="preserve">
<g>
	<g>
		<path d="M556.476,909.202H290.303c-16.568,0-30-13.432-30-30V88.809c0-16.568,13.432-30,30-30h266.173
			c57.616,0,111.666,23.957,152.193,67.458c39.979,42.914,61.997,99.825,61.997,160.249s-22.018,117.335-61.998,160.248
			c-13.698,14.704-28.942,27.175-45.347,37.243c16.404,10.067,31.648,22.539,45.347,37.242
			c39.98,42.913,61.998,99.823,61.998,160.248s-22.018,117.336-61.998,160.249C668.143,885.245,614.093,909.202,556.476,909.202z
			 M320.303,849.202h236.173c85.021,0,154.19-75.232,154.19-167.706c0-89.362-64.592-162.625-145.665-167.451
			c-2.833,0.117-5.673,0.176-8.525,0.176c-16.568,0-30-13.432-30-30c0-0.072,0-0.143,0.001-0.214
			c-0.001-0.072-0.001-0.143-0.001-0.214c0-16.568,13.432-30,30-30c2.853,0,5.692,0.059,8.525,0.175
			c81.073-4.826,145.665-78.088,145.665-167.452c0-92.474-69.17-167.707-154.19-167.707H320.303V849.202z"/>
	</g>
	<g>
		<rect x="318.554" y="454.006" width="253.441" height="60"/>
	</g>
</g>
</svg>
