<?xml version="1.0" encoding="utf-8"?>
<!-- Generator: Adobe Illustrator 22.1.0, SVG Export Plug-In . SVG Version: 6.00 Build 0)  -->
<svg version="1.1" id="图形" xmlns="http://www.w3.org/2000/svg" xmlns:xlink="http://www.w3.org/1999/xlink" x="0px" y="0px"
	 viewBox="90.288 58.809 850.394 850.394" enable-background="new 90.288 58.809 850.394 850.394" xml:space="preserve">
<g>
	<path d="M273.399,711.588c20.407,8.459,43.808-1.229,52.267-21.639l75.122-181.271h234.608l69.538,180.348
		c6.124,15.882,21.271,25.622,37.331,25.62c4.783,0,9.651-0.865,14.382-2.688c20.612-7.948,30.879-31.101,22.931-51.713
		L560.982,93.317c-5.884-15.262-20.468-25.403-36.824-25.606c-0.168-0.002-0.333-0.003-0.5-0.003
		c-16.157,0-30.751,9.73-36.95,24.686L251.761,659.323C243.303,679.731,252.991,703.131,273.399,711.588z M522.322,215.419
		l82.228,213.261H433.942L522.322,215.419z"/>
	<rect x="101.154" y="789.203" width="828.662" height="120"/>
</g>
</svg>
