<?xml version="1.0" encoding="utf-8"?>
<!-- Generator: Adobe Illustrator 23.0.2, SVG Export Plug-In . SVG Version: 6.00 Build 0)  -->
<svg version="1.1" id="图形" xmlns="http://www.w3.org/2000/svg" xmlns:xlink="http://www.w3.org/1999/xlink" x="0px" y="0px"
	 viewBox="90.288 58.809 850.394 850.394" enable-background="new 90.288 58.809 850.394 850.394" xml:space="preserve">
<g>
	<path d="M372.169,363.006h283.465c16.568,0,30-13.432,30-30v-242c0-16.568-13.432-30-30-30H372.169c-16.568,0-30,13.432-30,30v242
		C342.169,349.574,355.601,363.006,372.169,363.006z M402.169,121.006h223.465v182H402.169V121.006z"/>
	<path d="M907.8,605.006H624.335c-16.568,0-30,13.432-30,30v242c0,16.568,13.432,30,30,30H907.8c16.568,0,30-13.432,30-30v-242
		C937.8,618.438,924.369,605.006,907.8,605.006z M877.8,847.006H654.335v-182H877.8V847.006z"/>
	<path d="M406.634,605.006H123.169c-16.568,0-30,13.432-30,30v242c0,16.568,13.432,30,30,30h283.464c16.568,0,30-13.432,30-30v-242
		C436.634,618.438,423.202,605.006,406.634,605.006z M376.634,847.006H153.169v-182h223.464V847.006z"/>
	<path d="M612.678,525.649c3.807,1.605,7.757,2.365,11.645,2.365c11.702,0,22.822-6.891,27.655-18.351l15.753-37.356l73.824,104.057
		c5.85,8.245,15.1,12.644,24.493,12.644c6.003,0,12.064-1.796,17.333-5.534c13.514-9.587,16.696-28.313,7.109-41.826l-67.56-95.228
		l40.576,3.477c16.491,1.415,31.036-10.821,32.451-27.33c1.414-16.508-10.821-31.037-27.33-32.452l-104.518-8.955
		c-0.902-0.094-1.802-0.142-2.7-0.153c-0.001,0-0.002,0-0.003,0c-0.715-0.009-1.427,0.006-2.137,0.048
		c-0.023,0.001-0.045,0.004-0.068,0.005c-0.633,0.039-1.263,0.1-1.889,0.179c-0.106,0.013-0.213,0.025-0.319,0.039
		c-0.634,0.087-1.265,0.19-1.89,0.316c-0.11,0.022-0.218,0.05-0.328,0.073c-0.505,0.108-1.007,0.23-1.506,0.363
		c-0.178,0.048-0.357,0.095-0.534,0.146c-0.574,0.165-1.144,0.343-1.707,0.542c-0.121,0.043-0.24,0.092-0.361,0.137
		c-0.468,0.172-0.931,0.356-1.389,0.551c-0.177,0.075-0.353,0.151-0.528,0.23c-0.555,0.249-1.105,0.508-1.645,0.79
		c-0.023,0.012-0.046,0.026-0.07,0.039c-0.54,0.284-1.068,0.59-1.591,0.906c-0.12,0.073-0.24,0.147-0.359,0.222
		c-1.104,0.691-2.166,1.455-3.177,2.29c-0.051,0.042-0.1,0.085-0.151,0.127c-1.049,0.877-2.042,1.829-2.971,2.854
		c-0.008,0.009-0.016,0.019-0.025,0.028c-0.468,0.518-0.92,1.054-1.354,1.609c-0.004,0.006-0.009,0.011-0.014,0.017
		c-0.437,0.56-0.857,1.137-1.258,1.732c-0.007,0.01-0.013,0.021-0.02,0.031c-0.362,0.541-0.706,1.098-1.036,1.668
		c-0.032,0.055-0.068,0.105-0.099,0.16c-0.023,0.04-0.041,0.081-0.063,0.12c-0.327,0.579-0.641,1.168-0.932,1.775
		c-0.03,0.062-0.056,0.126-0.085,0.188c-0.18,0.381-0.357,0.764-0.522,1.156l-36.688,87
		C590.254,501.615,597.412,519.211,612.678,525.649z"/>
	<path d="M427.582,394.959c-0.097-0.153-0.201-0.299-0.301-0.449c-0.102-0.154-0.203-0.308-0.308-0.46
		c-0.354-0.516-0.717-1.022-1.096-1.51c-0.008-0.01-0.015-0.021-0.023-0.031c-0.418-0.535-0.856-1.048-1.304-1.548
		c-0.058-0.065-0.117-0.128-0.176-0.193c-2.384-2.614-5.163-4.731-8.188-6.316c-0.014-0.007-0.028-0.015-0.042-0.022
		c-1.208-0.631-2.453-1.177-3.728-1.636c-0.077-0.028-0.154-0.055-0.231-0.082c-1.243-0.436-2.512-0.791-3.799-1.061
		c-0.113-0.024-0.227-0.046-0.34-0.068c-0.613-0.121-1.23-0.227-1.85-0.31c-0.025-0.003-0.049-0.008-0.074-0.011
		c-0.666-0.087-1.335-0.148-2.006-0.191c-0.085-0.005-0.17-0.009-0.255-0.014c-1.374-0.076-2.756-0.058-4.136,0.057
		c-0.017,0.001-0.033,0.001-0.05,0.002l-105.045,9c-16.508,1.415-28.744,15.943-27.33,32.452
		c1.415,16.508,15.944,28.739,32.452,27.33l40.576-3.477l-67.56,95.228c-9.587,13.513-6.404,32.239,7.109,41.826
		c5.27,3.738,11.329,5.534,17.333,5.534c9.393,0,18.645-4.399,24.494-12.644l79.114-111.513l31.15,49.202
		c5.71,9.021,15.435,13.957,25.375,13.957c5.487,0,11.04-1.505,16.019-4.656c13.999-8.863,18.163-27.396,9.3-41.395L427.582,394.959
		z"/>
</g>
</svg>
