<?xml version="1.0" encoding="utf-8"?>
<!-- Generator: Adobe Illustrator 21.1.0, SVG Export Plug-In . SVG Version: 6.00 Build 0)  -->
<svg version="1.1" id="图形" xmlns="http://www.w3.org/2000/svg" xmlns:xlink="http://www.w3.org/1999/xlink" x="0px" y="0px"
	 viewBox="90.288 58.809 850.394 850.394" enable-background="new 90.288 58.809 850.394 850.394" xml:space="preserve">
<g>
	<path d="M386.128,689.67c3.624,12.981,15.448,21.935,28.892,21.935c0.14,0,0.283-0.001,0.423-0.003
		c13.617-0.19,25.397-9.528,28.69-22.742l71.023-284.983l79.772,285.794c3.622,12.977,15.443,21.936,28.893,21.935
		c0.094,0,0.188,0,0.281-0.001c13.565-0.126,25.358-9.34,28.762-22.472l102.432-395.198c4.157-16.039-5.475-32.41-21.513-36.567
		c-16.045-4.158-32.411,5.475-36.567,21.514l-74.465,287.294L542.41,278.342c-3.624-12.981-15.448-21.935-28.892-21.935
		c-0.14,0-0.283,0.001-0.423,0.003c-13.617,0.19-25.397,9.528-28.691,22.743l-71.023,284.982l-79.772-285.793
		c-4.455-15.959-21.002-25.287-36.961-20.83c-15.958,4.455-25.285,21.002-20.83,36.961L386.128,689.67z"/>
	<path d="M883.427,58.809H147.543c-31.571,0-57.255,25.685-57.255,57.256v735.884c0,31.57,25.685,57.254,57.255,57.254h735.884
		c31.57,0,57.255-25.684,57.255-57.254V116.065C940.682,84.494,914.997,58.809,883.427,58.809z M880.682,849.202H150.288V118.809
		h730.394V849.202z"/>
</g>
</svg>
