<?xml version="1.0" encoding="utf-8"?>
<!-- Generator: Adobe Illustrator 22.1.0, SVG Export Plug-In . SVG Version: 6.00 Build 0)  -->
<svg version="1.1" id="图形" xmlns="http://www.w3.org/2000/svg" xmlns:xlink="http://www.w3.org/1999/xlink" x="0px" y="0px"
	 viewBox="90.288 58.809 850.394 850.394" enable-background="new 90.288 58.809 850.394 850.394" xml:space="preserve">
<g>
	<path d="M515.485,704.226c76.628,0,148.674-29.772,202.867-83.832c54.219-54.086,84.079-126.004,84.079-202.506V98.809
		c0-22.091-17.908-40-40-40s-40,17.909-40,40v319.079c0,113.775-92.836,206.338-206.946,206.338s-206.946-92.563-206.946-206.338
		V98.809c0-22.091-17.909-40-40-40s-40,17.909-40,40v319.079c0,76.502,29.86,148.42,84.08,202.506
		C366.811,674.453,438.858,704.226,515.485,704.226z"/>
	<path d="M878.642,829.202H152.328c-22.091,0-40,17.908-40,40s17.909,40,40,40h726.314c22.092,0,40-17.908,40-40
		S900.734,829.202,878.642,829.202z"/>
</g>
</svg>
