<?xml version="1.0" encoding="utf-8"?>
<!-- Generator: Adobe Illustrator 21.1.0, SVG Export Plug-In . SVG Version: 6.00 Build 0)  -->
<svg version="1.1" id="图形" xmlns="http://www.w3.org/2000/svg" xmlns:xlink="http://www.w3.org/1999/xlink" x="0px" y="0px"
	 viewBox="90.288 58.809 850.394 850.394" enable-background="new 90.288 58.809 850.394 850.394" xml:space="preserve">
<path d="M875.173,454.006h-354.68c-51.68-16.258-100.309-31.897-135.97-57.396c-37.935-27.124-54.851-61.112-54.851-110.202
	c0-92.415,82.381-167.599,183.641-167.599c59.433,0,115.483,26.483,149.937,70.842c10.161,13.084,29.007,15.455,42.096,5.292
	c13.085-10.164,15.454-29.01,5.291-42.095c-22.202-28.585-51.639-52.283-85.129-68.531c-34.396-16.688-73.192-25.508-112.194-25.508
	c-64.641,0-125.525,23.387-171.437,65.852c-46.562,43.065-72.204,100.508-72.204,161.748c0,35.729,7.44,67.681,22.112,94.969
	c13.334,24.797,32.253,45.744,57.84,64.04c4.169,2.981,8.451,5.84,12.835,8.589H155.797c-16.568,0-30,13.432-30,30s13.432,30,30,30
	h355.48c51.347,16.158,99.615,31.772,135.085,57.146c37.993,27.18,54.937,61.245,54.937,110.454
	c0,92.413-82.381,167.597-183.642,167.597c-59.681,0-115.868-26.658-150.299-71.312c-10.118-13.119-28.956-15.556-42.076-5.438
	c-13.121,10.117-15.556,28.956-5.438,42.077c22.181,28.766,51.659,52.62,85.249,68.985c34.494,16.805,73.418,25.688,112.565,25.688
	c64.642,0,125.525-23.386,171.438-65.851c46.562-43.064,72.204-100.507,72.204-161.746c0-35.786-7.446-67.788-22.132-95.116
	c-13.346-24.836-32.283-45.814-57.895-64.137c-4.046-2.895-8.202-5.672-12.45-8.348h206.351c16.568,0,30-13.431,30-30
	S891.742,454.006,875.173,454.006z"/>
</svg>
