<?xml version="1.0" encoding="utf-8"?>
<!-- Generator: Adobe Illustrator 21.1.0, SVG Export Plug-In . SVG Version: 6.00 Build 0)  -->
<svg version="1.1" id="图形" xmlns="http://www.w3.org/2000/svg" xmlns:xlink="http://www.w3.org/1999/xlink" x="0px" y="0px"
	 viewBox="90.288 58.809 850.394 850.394" enable-background="new 90.288 58.809 850.394 850.394" xml:space="preserve">
<g>
	<path d="M910.682,58.809H368.419c-16.568,0-30,13.432-30,30s13.432,30,30,30H609.55v760.394c0,16.568,13.432,30,30,30
		s30-13.432,30-30V118.809h241.132c16.568,0,30-13.432,30-30S927.25,58.809,910.682,58.809z"/>
	<path d="M391.419,424.984H120.288c-16.568,0-30,13.432-30,30s13.432,30,30,30h105.567v394.218c0,16.568,13.432,30,30,30
		s30-13.432,30-30V484.984h105.564c16.568,0,30-13.432,30-30S407.988,424.984,391.419,424.984z"/>
</g>
</svg>
