<?xml version="1.0" encoding="utf-8"?>
<!-- Generator: Adobe Illustrator 21.1.0, SVG Export Plug-In . SVG Version: 6.00 Build 0)  -->
<svg version="1.1" id="图形" xmlns="http://www.w3.org/2000/svg" xmlns:xlink="http://www.w3.org/1999/xlink" x="0px" y="0px"
	 viewBox="90.288 58.809 850.394 850.394" enable-background="new 90.288 58.809 850.394 850.394" xml:space="preserve">
<path d="M884.335,58.809H647.237c-0.006,0-0.013,0-0.019,0s-0.013,0-0.019,0H383.773c-0.006,0-0.013,0-0.019,0s-0.013,0-0.019,0
	H146.635c-31.07,0-56.347,26.351-56.347,58.741v732.91c0,32.391,25.277,58.742,56.347,58.742h737.701
	c31.069,0,56.347-26.352,56.347-58.742v-732.91C940.682,85.16,915.405,58.809,884.335,58.809z M413.753,585.739V382.274h203.464
	v203.465H413.753z M617.217,645.739v203.464H413.753V645.739H617.217z M150.288,382.274h203.465v203.465H150.288V382.274z
	 M413.753,322.274V118.809h203.464v203.464H413.753z M677.217,382.274h203.465v203.465H677.217V382.274z M880.682,322.274H677.217
	V118.809h203.465V322.274z M353.753,118.809v203.464H150.288V118.809H353.753z M150.288,645.739h203.465v203.464H150.288V645.739z
	 M677.217,849.202V645.739h203.465v203.464H677.217z"/>
</svg>
