<?xml version="1.0" encoding="utf-8"?>
<!-- Generator: Adobe Illustrator 16.0.0, SVG Export Plug-In . SVG Version: 6.00 Build 0)  -->
<!DOCTYPE svg PUBLIC "-//W3C//DTD SVG 1.1//EN" "http://www.w3.org/Graphics/SVG/1.1/DTD/svg11.dtd">
<svg version="1.1" id="图形" xmlns="http://www.w3.org/2000/svg" xmlns:xlink="http://www.w3.org/1999/xlink" x="0px" y="0px"
	 width="1000.637px" height="1000.678px" viewBox="15.167 -16.333 1000.637 1000.678"
	 enable-background="new 15.167 -16.333 1000.637 1000.678" xml:space="preserve">
<g>
	<path d="M912.334,18.809h-793.7c-37.686,0-68.346,31.816-68.346,70.923v788.546c0,39.107,30.66,70.924,68.346,70.924h793.7
		c37.687,0,68.348-31.816,68.348-70.924V89.732C980.682,50.625,950.021,18.809,912.334,18.809z M900.682,869.202H130.288V98.809
		h770.394V869.202z"/>
	<path d="M292.126,736.605h283.465c22.092,0,40-17.908,40-40s-17.908-40-40-40H292.126c-22.091,0-40,17.908-40,40
		S270.035,736.605,292.126,736.605z"/>
	<path d="M292.126,311.407h283.465c22.092,0,40-17.909,40-40s-17.908-40-40-40H292.126c-22.091,0-40,17.909-40,40
		S270.035,311.407,292.126,311.407z"/>
	<path d="M292.126,524.006h283.465c22.092,0,40-17.908,40-40c0-22.091-17.908-40-40-40H292.126c-22.091,0-40,17.909-40,40
		C252.126,506.098,270.035,524.006,292.126,524.006z"/>
	<path d="M710.497,736.605h28.347c22.092,0,40-17.908,40-40s-17.908-40-40-40h-28.347c-22.092,0-40,17.908-40,40
		S688.405,736.605,710.497,736.605z"/>
	<path d="M710.497,311.407h28.347c22.092,0,40-17.909,40-40s-17.908-40-40-40h-28.347c-22.092,0-40,17.909-40,40
		S688.405,311.407,710.497,311.407z"/>
	<path d="M710.497,524.006h28.347c22.092,0,40-17.908,40-40c0-22.091-17.908-40-40-40h-28.347c-22.092,0-40,17.909-40,40
		C670.497,506.098,688.405,524.006,710.497,524.006z"/>
</g>
</svg>
