<?xml version="1.0" encoding="utf-8"?>
<!-- Generator: Adobe Illustrator 23.0.2, SVG Export Plug-In . SVG Version: 6.00 Build 0)  -->
<svg version="1.1" id="图形" xmlns="http://www.w3.org/2000/svg" xmlns:xlink="http://www.w3.org/1999/xlink" x="0px" y="0px"
	 viewBox="90.288 58.809 850.394 850.394" enable-background="new 90.288 58.809 850.394 850.394" xml:space="preserve">
<g>
	<path d="M907.485,62.184h-404c-16.568,0-30,13.432-30,30v172c0,16.568,13.432,30,30,30h404c16.568,0,30-13.432,30-30v-172
		C937.485,75.615,924.053,62.184,907.485,62.184z M877.485,234.184h-344v-112h344V234.184z"/>
	<path d="M825.485,673.827h-584c-16.568,0-30,13.432-30,30v172c0,16.568,13.432,30,30,30h584c16.568,0,30-13.432,30-30v-172
		C855.485,687.259,842.053,673.827,825.485,673.827z M795.485,845.827h-524v-112h524V845.827z"/>
	<path d="M737.485,569.351v-172c0-16.568-13.432-30-30-30h-584c-16.568,0-30,13.432-30,30v172c0,16.568,13.432,30,30,30h584
		C724.053,599.351,737.485,585.919,737.485,569.351z M677.485,539.351h-524v-112h524V539.351z"/>
</g>
</svg>
