<?xml version="1.0" encoding="utf-8"?>
<!-- Generator: Adobe Illustrator 16.0.0, SVG Export Plug-In . SVG Version: 6.00 Build 0)  -->
<!DOCTYPE svg PUBLIC "-//W3C//DTD SVG 1.1//EN" "http://www.w3.org/Graphics/SVG/1.1/DTD/svg11.dtd">
<svg version="1.1" id="图形" xmlns="http://www.w3.org/2000/svg" xmlns:xlink="http://www.w3.org/1999/xlink" x="0px" y="0px"
	 width="1000.637px" height="1000.678px" viewBox="15.167 -16.333 1000.637 1000.678"
	 enable-background="new 15.167 -16.333 1000.637 1000.678" xml:space="preserve">
<g>
	<path d="M451.927,146.368c-22.091,0-40,17.909-40,40v257.638h-274.33V186.368c0-22.091-17.909-40-40-40s-40,17.909-40,40v595.274
		c0,22.092,17.909,40,40,40s40-17.908,40-40V524.006h274.33v257.638c0,22.092,17.909,40,40,40s40-17.908,40-40V186.368
		C491.927,164.277,474.019,146.368,451.927,146.368z"/>
	<path d="M792.023,159.008h-16.201c-8.939,0-16.032,2.915-22.315,9.174l-123.248,119.65l-0.105,0.104
		c-8.1,8.1-12.26,22.024-2.255,33.457l18.072,19.881c6.192,7.029,12.912,8.508,17.466,8.508c5.521,0,11.136-2.111,16.688-6.276
		L730.722,304v477.003c0,15.439,12.561,28,28,28h33.301c14.689,0,27.1-12.822,27.1-28V186.108
		C819.123,171.672,806.459,159.008,792.023,159.008z"/>
</g>
</svg>
