<?xml version="1.0" encoding="utf-8"?>
<!-- Generator: Adobe Illustrator 16.0.0, SVG Export Plug-In . SVG Version: 6.00 Build 0)  -->
<!DOCTYPE svg PUBLIC "-//W3C//DTD SVG 1.1//EN" "http://www.w3.org/Graphics/SVG/1.1/DTD/svg11.dtd">
<svg version="1.1" id="图形" xmlns="http://www.w3.org/2000/svg" xmlns:xlink="http://www.w3.org/1999/xlink" x="0px" y="0px"
	 width="1000.637px" height="1000.678px" viewBox="15.167 -16.333 1000.637 1000.678"
	 enable-background="new 15.167 -16.333 1000.637 1000.678" xml:space="preserve">
<g>
	<path d="M769.036,130.413c-19.165-10.994-43.607-4.373-54.602,14.79l-36.169,63.041c-51.38-11.889-106.354-18.108-162.78-18.108
		c-120.689,0-234.748,28.416-321.166,80.013c-43.861,26.188-78.602,57.114-103.257,91.917
		c-27.056,38.193-40.774,79.219-40.774,121.94c0,42.721,13.718,83.748,40.774,121.94c24.655,34.804,59.396,65.729,103.257,91.918
		c48.126,28.734,104.83,50.271,166.474,63.719l-12.286,21.414c-10.994,19.162-4.372,43.607,14.79,54.602
		c6.276,3.601,13.118,5.312,19.869,5.312c13.862,0,27.339-7.215,34.732-20.101l365.927-637.796
		C794.818,165.852,788.197,141.406,769.036,130.413z M432.711,275.34c13.182-1.675,26.594-2.963,40.196-3.838
		c45.488,4.276,82.653,37.152,93.317,80.468c-22.128-17.843-50.266-28.533-80.905-28.533c-57.532,0-106.26,37.668-122.886,89.685
		c-3.951-11.136-6.108-23.121-6.108-35.611C356.325,329.154,388.559,288.331,432.711,275.34z M130.288,484.006
		c0-88.645,103.137-166.77,245.031-198.636c-40.201,37.513-65.346,90.954-65.346,150.276c0,86.26,53.152,160.092,128.486,190.568
		l-35.539,61.942C246.999,660.692,130.288,578.303,130.288,484.006z"/>
	<path d="M720.996,435.722L619.25,613.062C680.096,577.398,720.968,511.339,720.996,435.722z"/>
	<path d="M939.908,362.066c-24.655-34.804-59.396-65.729-103.257-91.917c-5.093-3.041-10.289-5.994-15.569-8.872l-39.876,69.502
		c73.199,39.197,119.477,93.852,119.477,153.228c0,105.304-145.545,195.763-328.712,211.461l-47.243,82.342
		c117.26-1.412,227.716-29.667,311.924-79.944c43.86-26.188,78.602-57.114,103.257-91.918c27.056-38.192,40.774-79.22,40.774-121.94
		C980.682,441.285,966.963,400.259,939.908,362.066z"/>
</g>
</svg>
