<?xml version="1.0" encoding="utf-8"?>
<!-- Generator: Adobe Illustrator 23.0.2, SVG Export Plug-In . SVG Version: 6.00 Build 0)  -->
<svg version="1.1" id="图形" xmlns="http://www.w3.org/2000/svg" xmlns:xlink="http://www.w3.org/1999/xlink" x="0px" y="0px"
	 viewBox="90.288 58.809 850.394 850.394" enable-background="new 90.288 58.809 850.394 850.394" xml:space="preserve">
<g>
	<circle cx="515.485" cy="179.838" r="105"/>
	<path d="M515.485,653.174c-74.439,0-135,60.561-135,135s60.561,135,135,135s135-60.561,135-135S589.924,653.174,515.485,653.174z
		 M515.485,863.174c-41.355,0-75-33.645-75-75s33.645-75,75-75c41.355,0,75,33.645,75,75S556.84,863.174,515.485,863.174z"/>
	<path d="M909.818,669.616h-91.355c9.262-16.516,17.155-33.779,23.618-51.68c13.632-37.755,20.544-77.423,20.544-117.902
		c0-115.498-57.207-223.1-153.029-287.836c-13.73-9.277-32.379-5.665-41.652,8.064c-9.275,13.729-5.665,32.378,8.064,41.653
		c79.283,53.563,126.617,142.58,126.617,238.119c0,52.096-14.322,103.257-40.848,147.591l-48.519-68.157
		c-9.606-13.497-28.337-16.65-41.838-7.041c-13.497,9.608-16.65,28.34-7.041,41.838l73.145,102.749
		c0.13,0.183,0.271,0.354,0.404,0.533c0.169,0.226,0.336,0.452,0.511,0.673c0.271,0.344,0.552,0.675,0.835,1.004
		c0.141,0.163,0.278,0.33,0.422,0.49c1.382,1.535,2.897,2.897,4.513,4.084c0.023,0.017,0.048,0.033,0.071,0.05
		c0.516,0.376,1.042,0.733,1.577,1.074c0.079,0.05,0.16,0.099,0.239,0.149c0.487,0.303,0.98,0.591,1.481,0.865
		c0.108,0.059,0.216,0.118,0.325,0.176c0.491,0.26,0.987,0.505,1.49,0.736c0.112,0.052,0.223,0.106,0.335,0.157
		c0.568,0.253,1.141,0.489,1.721,0.706c0.043,0.016,0.085,0.035,0.128,0.051c0.62,0.228,1.246,0.435,1.879,0.621
		c0.175,0.052,0.354,0.093,0.53,0.142c0.445,0.123,0.892,0.239,1.342,0.341c0.249,0.056,0.5,0.105,0.751,0.155
		c0.395,0.079,0.791,0.151,1.189,0.214c0.257,0.041,0.513,0.079,0.772,0.113c0.433,0.057,0.866,0.102,1.301,0.14
		c0.215,0.019,0.429,0.042,0.645,0.057c0.666,0.044,1.333,0.073,2.001,0.073c0.017,0,0.035-0.002,0.052-0.002h147.778
		c16.568,0,30-13.432,30-30S926.386,669.616,909.818,669.616z"/>
	<path d="M337.678,557.674c-13.915-8.995-32.486-5.008-41.481,8.905l-38.655,59.789c-19.191-39.06-29.197-82.008-29.197-126.334
		c0-80.926,34.425-158.521,94.449-212.887c12.28-11.123,13.218-30.094,2.096-42.375c-11.124-12.281-30.095-13.219-42.375-2.096
		c-35.577,32.225-63.625,70.649-83.365,114.206c-20.44,45.104-30.805,93.267-30.805,143.151c0,53.728,12.158,105.801,35.495,153.142
		h-79.022c-16.568,0-30,13.432-30,30s13.432,30,30,30h131.581c0.037,0,0.075,0.004,0.112,0.004c0.676,0,1.351-0.028,2.024-0.073
		c0.18-0.012,0.357-0.034,0.536-0.049c0.466-0.04,0.931-0.084,1.395-0.146c0.258-0.034,0.513-0.078,0.77-0.119
		c0.383-0.061,0.765-0.125,1.146-0.2c0.278-0.055,0.554-0.117,0.829-0.18c0.361-0.082,0.721-0.17,1.079-0.266
		c0.27-0.072,0.538-0.147,0.806-0.227c0.372-0.111,0.741-0.23,1.109-0.355c0.239-0.081,0.478-0.162,0.715-0.249
		c0.412-0.152,0.819-0.316,1.224-0.486c0.183-0.077,0.368-0.15,0.55-0.23c0.496-0.219,0.985-0.455,1.469-0.702
		c0.086-0.044,0.173-0.083,0.259-0.128c2.349-1.223,4.551-2.767,6.539-4.616c0.047-0.043,0.091-0.09,0.137-0.133
		c0.423-0.399,0.838-0.809,1.24-1.236c0.126-0.133,0.245-0.273,0.369-0.408c0.311-0.342,0.619-0.688,0.917-1.048
		c0.168-0.203,0.329-0.412,0.492-0.62c0.24-0.306,0.479-0.614,0.708-0.931c0.181-0.25,0.354-0.505,0.527-0.761
		c0.126-0.186,0.26-0.363,0.383-0.552l64.852-100.309C355.579,585.241,351.592,566.67,337.678,557.674z"/>
</g>
</svg>
