<?xml version="1.0" encoding="utf-8"?>
<!-- Generator: Adobe Illustrator 23.0.2, SVG Export Plug-In . SVG Version: 6.00 Build 0)  -->
<svg version="1.1" id="图形" xmlns="http://www.w3.org/2000/svg" xmlns:xlink="http://www.w3.org/1999/xlink" x="0px" y="0px"
	 viewBox="90.288 58.809 850.394 850.394" enable-background="new 90.288 58.809 850.394 850.394" xml:space="preserve">
<g>
	<path d="M385.223,410.335l202.949-202.95c11.716-11.715,11.716-30.71,0-42.426c-11.715-11.716-30.711-11.715-42.426,0
		l-202.949,202.95l-202.949-202.95c-11.716-11.716-30.711-11.716-42.427,0c-11.715,11.716-11.715,30.711,0,42.427l202.95,202.949
		l-202.95,202.95c-11.716,11.716-11.715,30.71,0,42.426c5.858,5.858,13.536,8.787,21.213,8.787s15.355-2.929,21.213-8.787
		l202.949-202.95l202.95,202.95c5.857,5.858,13.535,8.787,21.213,8.787s15.355-2.929,21.213-8.787
		c11.716-11.716,11.716-30.71,0-42.426L385.223,410.335z"/>
	<path d="M912.335,751.839H763.247l170.302-170.303c8.58-8.579,11.146-21.483,6.504-32.693c-4.644-11.21-15.583-18.52-27.717-18.52
		H685.897c-16.568,0-30,13.432-30,30s13.432,30,30,30h154.012L669.607,760.626c-8.58,8.579-11.146,21.483-6.504,32.693
		c4.644,11.21,15.583,18.52,27.717,18.52h221.516c16.568,0,30-13.432,30-30S928.904,751.839,912.335,751.839z"/>
</g>
</svg>
