<?xml version="1.0" encoding="utf-8"?>
<!-- Generator: Adobe Illustrator 16.0.0, SVG Export Plug-In . SVG Version: 6.00 Build 0)  -->
<!DOCTYPE svg PUBLIC "-//W3C//DTD SVG 1.1//EN" "http://www.w3.org/Graphics/SVG/1.1/DTD/svg11.dtd">
<svg version="1.1" id="图形" xmlns="http://www.w3.org/2000/svg" xmlns:xlink="http://www.w3.org/1999/xlink" x="0px" y="0px"
	 width="1000.637px" height="1000.678px" viewBox="15.167 -16.333 1000.637 1000.678"
	 enable-background="new 15.167 -16.333 1000.637 1000.678" xml:space="preserve">
<path d="M939.908,362.066c-24.655-34.804-59.396-65.729-103.257-91.917c-86.418-51.597-200.477-80.013-321.166-80.013
	c-120.689,0-234.748,28.416-321.166,80.013c-43.861,26.188-78.602,57.114-103.257,91.917
	c-27.056,38.193-40.774,79.219-40.774,121.94c0,42.721,13.718,83.748,40.774,121.94c24.655,34.804,59.396,65.729,103.257,91.918
	c86.418,51.597,200.477,80.013,321.166,80.013c120.689,0,234.748-28.416,321.166-80.013c43.86-26.188,78.602-57.114,103.257-91.918
	c27.056-38.192,40.774-79.22,40.774-121.94C980.682,441.285,966.963,400.259,939.908,362.066z M432.711,275.34
	c13.182-1.675,26.594-2.963,40.196-3.838c45.488,4.276,82.653,37.152,93.317,80.468c-22.128-17.843-50.266-28.533-80.905-28.533
	c-57.532,0-106.26,37.668-122.886,89.685c-3.951-11.136-6.108-23.121-6.108-35.611C356.325,329.154,388.559,288.331,432.711,275.34z
	 M515.485,697.877c-208.798,0-385.197-97.941-385.197-213.871c0-88.645,103.137-166.77,245.031-198.636
	c-40.201,37.513-65.346,90.954-65.346,150.276c0,113.501,92.011,205.512,205.512,205.512s205.512-92.011,205.512-205.512
	c0-59.322-25.145-112.764-65.346-150.276c141.895,31.866,245.031,109.991,245.031,198.636
	C900.682,599.936,724.284,697.877,515.485,697.877z"/>
</svg>
