<?xml version="1.0" encoding="utf-8"?>
<!-- Generator: Adobe Illustrator 22.1.0, SVG Export Plug-In . SVG Version: 6.00 Build 0)  -->
<svg version="1.1" id="图形" xmlns="http://www.w3.org/2000/svg" xmlns:xlink="http://www.w3.org/1999/xlink" x="0px" y="0px"
	 viewBox="90.288 58.809 850.394 850.394" enable-background="new 90.288 58.809 850.394 850.394" xml:space="preserve">
<g>
	<path d="M907.192,320.643c-21.445-49.943-52.132-94.782-91.208-133.273c-39.044-38.46-84.51-68.655-135.133-89.746
		c-52.396-21.83-108.034-32.899-165.366-32.899c-85.2,0-167.411,24.766-237.746,71.619c-39.422,26.261-73.762,58.496-101.955,95.381
		V125.681c0-16.568-13.432-30-30-30s-30,13.432-30,30v206.76c0,16.568,13.432,30,30,30c0.207,0,0.411-0.011,0.618-0.016
		c1.573,0.255,3.173,0.399,4.794,0.399h172.471c16.568,0,30-13.432,30-30s-13.432-30-30-30H199.994
		c64.882-109.51,184.162-178.099,315.491-178.099c201.37,0,365.197,161.172,365.197,359.28S716.855,843.286,515.485,843.286
		S150.288,682.114,150.288,484.006c0-16.568-13.432-30-30-30s-30,13.432-30,30c0,56.646,11.268,111.609,33.49,163.363
		c21.445,49.942,52.132,94.782,91.208,133.272c39.044,38.46,84.51,68.655,135.133,89.746
		c52.397,21.831,108.034,32.899,165.366,32.899s112.97-11.068,165.366-32.899c50.623-21.091,96.089-51.286,135.133-89.746
		c39.076-38.49,69.763-83.33,91.208-133.272c22.223-51.754,33.49-106.717,33.49-163.363
		C940.682,427.36,929.414,372.397,907.192,320.643z"/>
	<path d="M509.852,199.645c-16.568,0-30,13.432-30,30v254.653c0,8.035,3.223,15.734,8.947,21.373l126.89,124.99
		c5.845,5.757,13.448,8.629,21.052,8.628c7.752-0.001,15.503-2.988,21.374-8.947c11.627-11.804,11.483-30.798-0.32-42.425
		L539.852,471.739V229.645C539.852,213.076,526.42,199.645,509.852,199.645z"/>
</g>
</svg>
