<?xml version="1.0" encoding="utf-8"?>
<!-- Generator: Adobe Illustrator 23.0.2, SVG Export Plug-In . SVG Version: 6.00 Build 0)  -->
<svg version="1.1" id="图形" xmlns="http://www.w3.org/2000/svg" xmlns:xlink="http://www.w3.org/1999/xlink" x="0px" y="0px"
	 viewBox="90.288 58.809 850.394 850.394" enable-background="new 90.288 58.809 850.394 850.394" xml:space="preserve">
<g>
	<path d="M860.388,235.143c-25.317-35.009-55.701-65.886-90.306-91.772c-35.003-26.185-73.606-46.717-114.737-61.026
		c-9.171-3.192-19.324-1.745-27.239,3.883c-7.916,5.627-12.618,14.739-12.618,24.451v319.48c0,7.957,3.161,15.587,8.787,21.213
		l225.97,225.97c5.673,5.673,13.323,8.787,21.212,8.787c1.657,0,3.326-0.138,4.988-0.418c9.573-1.613,17.773-7.761,22.008-16.496
		c28.111-57.993,42.365-120.306,42.365-185.206C940.818,393.958,913.005,307.902,860.388,235.143z M860.96,603.205L675.488,417.733
		V155.576c124.37,60.547,205.33,187.635,205.33,328.433C880.818,525.168,874.154,565.099,860.96,603.205z"/>
	<path d="M545.488,471.583V88.809c0-16.569-13.432-30-30-30c-57.406,0-113.11,11.246-165.566,33.426
		c-50.651,21.417-96.135,52.071-135.187,91.11c-39.052,39.04-69.716,84.509-91.14,135.146
		c-22.188,52.441-33.438,108.129-33.438,165.518c0,57.389,11.25,113.077,33.438,165.517c21.424,50.636,52.088,96.104,91.141,135.143
		c39.052,39.038,84.535,69.691,135.187,91.107c52.456,22.179,108.16,33.424,165.565,33.424c57.391,0,113.082-11.24,165.525-33.408
		c50.642-21.407,96.12-52.048,135.171-91.071c5.629-5.625,8.793-13.257,8.794-21.216c0.001-7.958-3.159-15.591-8.787-21.218
		L545.488,471.583z M515.488,849.199c-201.444,0-365.33-163.823-365.33-365.19c0-191.281,147.857-348.686,335.33-363.98v363.98
		c0,7.957,3.161,15.587,8.787,21.213l257.417,257.416C685.771,818.662,602.973,849.199,515.488,849.199z"/>
</g>
</svg>
