<?xml version="1.0" encoding="utf-8"?>
<!-- Generator: Adobe Illustrator 23.0.2, SVG Export Plug-In . SVG Version: 6.00 Build 0)  -->
<svg version="1.1" id="图形" xmlns="http://www.w3.org/2000/svg" xmlns:xlink="http://www.w3.org/1999/xlink" x="0px" y="0px"
	 viewBox="15.167 -16.333 1000.637 1000.678" enable-background="new 15.167 -16.333 1000.637 1000.678" xml:space="preserve">
<path d="M940.682,615.213h-63.046V480.76c0-16.569-13.432-30-30-30H544.194v-97.961h154.013c16.568,0,30-13.432,30-30V136.708
	c0-16.568-13.432-30-30-30H330.181c-16.568,0-30,13.432-30,30v186.091c0,16.568,13.432,30,30,30h154.013v97.961h-300.86
	c-16.568,0-30,13.431-30,30v134.453H90.288c-16.568,0-30,13.432-30,30v186.091c0,16.568,13.432,30,30,30h186.091
	c16.568,0,30-13.432,30-30V645.213c0-16.568-13.432-30-30-30h-63.046V510.76h270.86v104.453h-63.046c-16.568,0-30,13.432-30,30
	v186.091c0,16.568,13.432,30,30,30H607.24c16.568,0,30-13.432,30-30V645.213c0-16.568-13.432-30-30-30h-63.046V510.76h273.442
	v104.453H754.59c-16.568,0-30,13.432-30,30v186.091c0,16.568,13.432,30,30,30h186.092c16.568,0,30-13.432,30-30V645.213
	C970.682,628.645,957.25,615.213,940.682,615.213z M360.181,166.708h308.025v126.091H360.181V166.708z M246.379,801.304H120.288
	V675.213h126.091V801.304z M577.24,801.304H451.148V675.213H577.24V801.304z M910.682,801.304H784.59V675.213h126.092V801.304z"/>
</svg>
