<?xml version="1.0" encoding="utf-8"?>
<!-- Generator: Adobe Illustrator 16.0.0, SVG Export Plug-In . SVG Version: 6.00 Build 0)  -->
<!DOCTYPE svg PUBLIC "-//W3C//DTD SVG 1.1//EN" "http://www.w3.org/Graphics/SVG/1.1/DTD/svg11.dtd">
<svg version="1.1" id="图形" xmlns="http://www.w3.org/2000/svg" xmlns:xlink="http://www.w3.org/1999/xlink" x="0px" y="0px"
	 width="1000.637px" height="1000.678px" viewBox="15.167 -16.333 1000.637 1000.678"
	 enable-background="new 15.167 -16.333 1000.637 1000.678" xml:space="preserve">
<g>
	<path d="M451.927,146.368c-22.091,0-40,17.909-40,40v257.638h-274.33V186.368c0-22.091-17.909-40-40-40s-40,17.909-40,40v595.274
		c0,22.092,17.909,40,40,40s40-17.908,40-40V524.006h274.33v257.638c0,22.092,17.909,40,40,40s40-17.908,40-40V186.368
		C491.927,164.277,474.019,146.368,451.927,146.368z"/>
	<path d="M921.802,521.329c-19.993-21.702-42.836-36.029-60.15-44.779c39.338-24.694,86.758-77.513,86.758-147.345
		c0-53.627-19.754-99.036-57.125-131.317c-36.264-31.324-86.257-47.882-144.572-47.882c-43.277,0-87.274,14.785-127.235,42.757
		c-28.217,19.752-45.069,39.404-47.61,42.454c-5.02,5.24-7.855,12.752-7.606,20.211c0.241,7.236,3.248,13.735,8.467,18.302
		l22.54,17.16c6.438,6.168,12.89,7.483,17.218,7.483c7.35,0,14.541-3.653,20.259-10.29c21.62-24.432,56.947-56.879,113.969-56.879
		c65.648,0,111.498,44,111.498,106.999c0,63.224-52.38,102.499-136.699,102.499h-51.299c-20.331,0-29.801,9.469-29.801,29.8v22.5
		c0,22.635,14.464,30.7,28,30.7h52.201c99.179,0,153.799,38.959,153.799,109.699c0,73.517-63.863,107-123.199,107
		c-32.106,0-62.735-8.883-91.036-26.402c-22.032-13.64-35.953-28.71-39.523-33.445c-2.386-3.28-9.486-12.932-21.565-12.932
		c-5.473,0-11.105,1.981-17.221,6.059l-0.502,0.335l-25.445,21.809c-10.772,8.34-11.915,23.864-2.608,36.275l1.921,2.164
		c11.323,12.335,30.274,32.981,61.267,50.938c37.561,21.764,81.673,32.799,131.112,32.799c64.606,0,119.259-18.68,158.047-54.021
		c18.765-17.097,33.287-37.642,43.162-61.064c9.881-23.434,14.891-49.244,14.891-76.714
		C963.71,586.798,949.611,551.513,921.802,521.329z"/>
</g>
</svg>
