<?xml version="1.0" encoding="utf-8"?>
<!-- Generator: Adobe Illustrator 16.0.0, SVG Export Plug-In . SVG Version: 6.00 Build 0)  -->
<!DOCTYPE svg PUBLIC "-//W3C//DTD SVG 1.1//EN" "http://www.w3.org/Graphics/SVG/1.1/DTD/svg11.dtd">
<svg version="1.1" id="图形" xmlns="http://www.w3.org/2000/svg" xmlns:xlink="http://www.w3.org/1999/xlink" x="0px" y="0px"
	 width="1000.637px" height="1000.678px" viewBox="15.167 -16.333 1000.637 1000.678"
	 enable-background="new 15.167 -16.333 1000.637 1000.678" xml:space="preserve">
<g>
	<path d="M451.927,146.368c-22.091,0-40,17.909-40,40v257.638h-274.33V186.368c0-22.091-17.909-40-40-40s-40,17.909-40,40v595.274
		c0,22.092,17.909,40,40,40s40-17.908,40-40V524.006h274.33v257.638c0,22.092,17.909,40,40,40s40-17.908,40-40V186.368
		C491.927,164.277,474.019,146.368,451.927,146.368z"/>
	<path d="M953.775,611.845h-54.664V200.648c0-15.178-11.277-28-24.626-28h-13.087c-15.492,0-20.461,5.739-26.758,15.195
		L541.386,614.38l-0.447,0.712c-4.213,7.39-5.932,13.519-5.932,21.153v25.199c0,14.69,11.63,27.101,25.396,27.101h263.281v115.099
		c0,14.916,11.867,28,25.396,28h25.403c13.349,0,24.626-12.822,24.626-28V688.545h54.664c13.579,0,24.626-12.157,24.626-27.101
		v-23.399C978.401,623.354,967.583,611.845,953.775,611.845z M823.685,611.845h-196.49l196.49-283.349V611.845z"/>
</g>
</svg>
