<?xml version="1.0" encoding="utf-8"?>
<!-- Generator: Adobe Illustrator 23.0.2, SVG Export Plug-In . SVG Version: 6.00 Build 0)  -->
<svg version="1.1" id="图形" xmlns="http://www.w3.org/2000/svg" xmlns:xlink="http://www.w3.org/1999/xlink" x="0px" y="0px"
	 viewBox="90.288 58.809 850.394 850.394" enable-background="new 90.288 58.809 850.394 850.394" xml:space="preserve">
<g>
	<path d="M440.637,183.962c-16.568,0-30,13.432-30,30v240.482H148.635V213.962c0-16.568-13.432-30-30-30s-30,13.432-30,30v540.964
		c0,16.568,13.432,30,30,30s30-13.432,30-30V514.445h262.002v240.481c0,16.568,13.432,30,30,30s30-13.432,30-30V213.962
		C470.637,197.394,457.205,183.962,440.637,183.962z"/>
	<path d="M751.181,406.044c-58.611,0-111.079,26.807-145.787,68.804c3.28-74.58,22.685-135.03,56.623-175.776
		c29.987-36.003,71.069-55.832,115.678-55.832c43.877,0,71.327,8.761,86.63,16.11c14.936,7.174,32.857,0.88,40.031-14.054
		c7.173-14.935,0.881-32.857-14.055-40.031c-30.429-14.615-68.315-22.025-112.606-22.025c-62.736,0-120.191,27.499-161.78,77.432
		c-22.555,27.08-40.044,60.283-51.98,98.688c-12.636,40.651-19.042,87.266-19.042,138.548c0,61.725,8.529,114.714,25.351,157.496
		c1.147,2.917,2.703,5.551,4.571,7.868c27.405,70.681,96.124,120.93,176.367,120.93c104.259,0,189.079-84.82,189.079-189.078
		C940.26,490.865,855.44,406.044,751.181,406.044z M751.181,724.201c-71.175,0-129.079-57.904-129.079-129.078
		c0-71.175,57.904-129.079,129.079-129.079S880.26,523.948,880.26,595.123C880.26,666.297,822.356,724.201,751.181,724.201z"/>
</g>
</svg>
