<?xml version="1.0" encoding="utf-8"?>
<!-- Generator: Adobe Illustrator 22.1.0, SVG Export Plug-In . SVG Version: 6.00 Build 0)  -->
<svg version="1.1" id="图形" xmlns="http://www.w3.org/2000/svg" xmlns:xlink="http://www.w3.org/1999/xlink" x="0px" y="0px"
	 viewBox="90.288 58.809 850.394 850.394" enable-background="new 90.288 58.809 850.394 850.394" xml:space="preserve">
<g>
	<path d="M551.357,444.056L372.533,336.382c-17.17-10.339-37.834-10.626-55.276-0.77c-17.692,9.999-28.255,28.185-28.255,48.647
		v200.406c0,19.087,9.549,36.584,25.543,46.806c9.331,5.963,20.046,8.977,30.963,8.977c8.702,0,17.533-1.916,25.884-5.781
		l0.424-0.196l179.239-92.948l0.934-0.515c16.303-9.543,26.507-27.818,26.63-47.694
		C578.746,472.826,568.554,454.412,551.357,444.056z"/>
	<path d="M910.207,323.295c-21.943-12.401-47.938-12.039-69.535,0.967L782.3,359.409v-94.156
		c0-74.133-60.312-134.444-134.444-134.444h-428.09c-74.133,0-134.444,60.312-134.444,134.444v437.505
		c0,74.133,60.312,134.444,134.444,134.444h428.09c74.133,0,134.444-60.312,134.444-134.444v-86.776l59.458,30.833
		c0.464,0.241,0.934,0.472,1.409,0.691c10.256,4.747,21.109,7.099,31.834,7.099c13.568-0.001,26.926-3.767,38.574-11.211
		c20.083-12.835,32.073-34.789,32.073-58.728V384.26C945.649,359.01,932.069,335.65,910.207,323.295z M647.856,767.269h-428.09
		c-35.571,0-64.511-28.939-64.511-64.511V265.253c0-35.571,28.939-64.511,64.511-64.511h428.09
		c35.571,0,64.511,28.939,64.511,64.511v151.295c-0.471,3.281-0.481,6.637,0,9.965v126.793c-0.475,3.31-0.464,6.637,0,9.886v139.565
		C712.367,738.329,683.427,767.269,647.856,767.269z M875.715,584.567c-0.422,0.155-1.314,0.231-2.717-0.329L782.3,537.204v-96.162
		l93.415-56.245V584.567z"/>
</g>
</svg>
