<?xml version="1.0" encoding="utf-8"?>
<!-- Generator: Adobe Illustrator 23.0.2, SVG Export Plug-In . SVG Version: 6.00 Build 0)  -->
<svg version="1.1" id="图形" xmlns="http://www.w3.org/2000/svg" xmlns:xlink="http://www.w3.org/1999/xlink" x="0px" y="0px"
	 viewBox="90.288 58.809 850.394 850.394" enable-background="new 90.288 58.809 850.394 850.394" xml:space="preserve">
<g>
	<path d="M212.884,830.878l6.345,2.482l6.794-0.501c39.691-2.929,79.578-32.568,121.938-90.612
		c16.481-22.584,33.371-49.694,50.186-80.452c87.29-34.983,160.892-51.862,215.9-59.791c35.052,26.125,75.83,48.272,122.788,62.178
		l1.628,0.433c18.012,4.25,33.274,6.031,46.219,6.03c43.326-0.002,60.604-19.969,67.398-34.165
		c12.033-25.145,2.367-57.706-22.985-77.425c-16.19-12.592-47.449-18.419-70.82-21.09c-25.209-2.881-67.295-5.026-124.637,1.113
		c-0.691,0.073-1.39,0.149-2.087,0.227c-41.898-35.368-73.575-76.923-96.01-112.652c-8.703-13.862-16.488-27.6-23.404-40.901
		c21.111-68.979,34.056-129.771,34.056-165.985c0-32.881-9.639-56.958-28.649-71.563c-20.021-15.382-42.722-13.689-52.225-12.062
		c-14.661,0.928-27.771,7.758-37.203,19.467c-7.008,8.7-11.983,19.91-15.209,34.271c-4.806,21.391-5.208,47.573-5.208,72.558
		c0,17.23,7.074,46.258,19.409,79.64c4.861,13.157,11.587,29.781,20.51,48.676c-15.172,46.942-34.387,98.464-56.874,149.618
		c-12.073,27.463-23.864,52.097-35.288,74.111c-36.547,15.428-75.109,33.802-115.4,55.678l-1.602,0.87l-1.485,1.058
		c-60.714,43.235-65.369,85.393-62.74,106.674C177.191,802.738,192.003,822.707,212.884,830.878z M792.667,606.744
		c1.201,0.994,2.136,2.041,2.84,3.009c-5.802,1.27-18.476,2.225-42.448-3.344c-10.566-3.161-20.795-6.835-30.659-10.943
		C762.104,596.948,786.155,603.077,792.667,606.744z M469.484,215.166c1.189-10.386,2.837-16.143,3.994-19.124l2.625-0.884
		c1.449-0.182,3.984-0.12,4.941,0.669c1.781,1.468,5.148,8.361,5.148,23.94c0,16.544-4.035,42.706-11.586,75.182
		c-4.693-15.74-6.907-27.215-6.907-32.511C467.699,247.112,467.837,229.554,469.484,215.166z M445.671,564.518
		c14.792-33.649,28.644-68.485,41.058-102.794c17.992,28.274,41.122,59.574,69.87,89.426
		c-35.402,7.214-75.432,17.568-119.433,32.352C440.016,577.261,442.851,570.932,445.671,564.518z M233.681,769.191
		c0.142-4.982,3.23-22.953,36.654-47.194c9.914-5.364,19.699-10.498,29.377-15.423c-26.428,36.181-49.033,55.981-66.037,63.253
		C233.673,769.62,233.675,769.408,233.681,769.191z"/>
	<path d="M912.335,57.156H118.635c-16.569,0-30,13.432-30,30v793.701c0,16.568,13.431,30,30,30h793.701c16.568,0,30-13.432,30-30
		V87.156C942.335,70.587,928.904,57.156,912.335,57.156z M882.335,850.857H148.635V117.156h733.701V850.857z"/>
</g>
</svg>
