<?xml version="1.0" encoding="utf-8"?>
<!-- Generator: Adobe Illustrator 23.0.2, SVG Export Plug-In . SVG Version: 6.00 Build 0)  -->
<svg version="1.1" id="图形" xmlns="http://www.w3.org/2000/svg" xmlns:xlink="http://www.w3.org/1999/xlink" x="0px" y="0px"
	 viewBox="90.288 58.809 850.394 850.394" enable-background="new 90.288 58.809 850.394 850.394" xml:space="preserve">
<g>
	<path d="M449.637,649.597c-11.715,11.716-11.715,30.711,0,42.426c5.857,5.858,13.535,8.787,21.213,8.787s15.355-2.929,21.213-8.787
		l185.869-185.87c0.093-0.093,0.178-0.19,0.27-0.284c0.138-0.141,0.273-0.285,0.408-0.429c0.371-0.396,0.731-0.799,1.077-1.21
		c0.071-0.084,0.144-0.165,0.214-0.25c0.429-0.521,0.834-1.054,1.222-1.596c0.057-0.08,0.113-0.162,0.169-0.243
		c0.389-0.554,0.76-1.117,1.107-1.691c0.005-0.008,0.01-0.015,0.014-0.023c0.384-0.636,0.74-1.283,1.072-1.939
		c0.006-0.012,0.012-0.024,0.018-0.036c0.67-1.327,1.234-2.693,1.694-4.086c0.018-0.054,0.035-0.107,0.052-0.161
		c0.428-1.32,0.762-2.663,1.002-4.02c0.026-0.148,0.051-0.295,0.075-0.443c0.103-0.636,0.192-1.274,0.254-1.915
		c0.006-0.058,0.008-0.115,0.013-0.173c0.053-0.588,0.085-1.177,0.103-1.766c0.006-0.184,0.011-0.368,0.013-0.552
		c0.008-0.626,0.003-1.251-0.028-1.877c-0.004-0.074-0.012-0.148-0.016-0.222c-0.033-0.588-0.087-1.175-0.155-1.761
		c-0.016-0.141-0.032-0.283-0.051-0.424c-0.085-0.658-0.188-1.314-0.317-1.966c0-0.001,0-0.002-0.001-0.003
		c-0.133-0.671-0.295-1.337-0.474-2c-0.018-0.068-0.036-0.137-0.055-0.205c-0.375-1.35-0.847-2.677-1.414-3.973
		c-0.014-0.031-0.027-0.063-0.041-0.094c-0.566-1.282-1.227-2.532-1.982-3.741c-0.039-0.063-0.078-0.125-0.117-0.187
		c-0.728-1.147-1.542-2.255-2.441-3.316c-0.099-0.117-0.2-0.234-0.301-0.351c-0.444-0.508-0.901-1.008-1.385-1.492l-187.74-187.737
		c-11.716-11.716-30.71-11.715-42.426,0s-11.715,30.71,0,42.426l136.526,136.524l-465.658,0c-16.568,0-30,13.432-30,30
		s13.432,30,30,30h465.658L449.637,649.597z"/>
	<path d="M249.09,210.018h663.245c16.568,0,30-13.431,30-30s-13.432-30-30-30H249.09c-16.568,0-30,13.431-30,30
		S232.522,210.018,249.09,210.018z"/>
	<path d="M912.335,757.993H249.09c-16.568,0-30,13.432-30,30s13.432,30,30,30h663.245c16.568,0,30-13.432,30-30
		S928.904,757.993,912.335,757.993z"/>
</g>
</svg>
