<?xml version="1.0" encoding="utf-8"?>
<!-- Generator: Adobe Illustrator 16.0.0, SVG Export Plug-In . SVG Version: 6.00 Build 0)  -->
<!DOCTYPE svg PUBLIC "-//W3C//DTD SVG 1.1//EN" "http://www.w3.org/Graphics/SVG/1.1/DTD/svg11.dtd">
<svg version="1.1" id="图形" xmlns="http://www.w3.org/2000/svg" xmlns:xlink="http://www.w3.org/1999/xlink" x="0px" y="0px"
	 width="1000.637px" height="1000.678px" viewBox="15.167 -16.333 1000.637 1000.678"
	 enable-background="new 15.167 -16.333 1000.637 1000.678" xml:space="preserve">
<g>
	<path d="M451.927,146.368c-22.091,0-40,17.909-40,40v257.638h-274.33V186.368c0-22.091-17.909-40-40-40s-40,17.909-40,40v595.274
		c0,22.092,17.909,40,40,40s40-17.908,40-40V524.006h274.33v257.638c0,22.092,17.909,40,40,40s40-17.908,40-40V186.368
		C491.927,164.277,474.019,146.368,451.927,146.368z"/>
	<path d="M934.806,728.702H685.308L847.616,555.63c31.403-33.615,61.397-66.695,83.197-101.786
		c24.283-39.086,35.593-75.832,35.593-115.639c0-51.288-18.969-98.057-53.412-131.691c-37.856-36.967-92.245-56.507-157.285-56.507
		c-47.085,0-93.748,16.413-134.944,47.464c-29.268,22.06-46.018,44.007-48.391,47.21c-9.871,11.679-6.823,27.74,1.144,37.034
		l18.521,18.563l0.428,0.403c5.833,5.185,12.604,7.926,19.581,7.926c7.097,0,13.963-2.958,19.333-8.329l0.211-0.217
		c42.467-45.12,83.066-67.054,124.118-67.054c88.94,0,120.498,57.64,120.498,106.999c0,41.348-29.74,94.171-90.921,161.485
		c-45.693,47.954-91.382,97.728-135.563,145.861c-26.328,28.683-53.553,58.342-80.441,87.247
		c-13.731,14.789-14.371,21.762-14.371,33.805v12.6c0,15.963,12.037,28,28,28h351.896c15.439,0,28-12.561,28-28v-24.301
		C962.806,741.263,950.246,728.702,934.806,728.702z"/>
</g>
</svg>
