<?xml version="1.0" encoding="utf-8"?>
<!-- Generator: Adobe Illustrator 23.0.2, SVG Export Plug-In . SVG Version: 6.00 Build 0)  -->
<svg version="1.1" id="图形" xmlns="http://www.w3.org/2000/svg" xmlns:xlink="http://www.w3.org/1999/xlink" x="0px" y="0px"
	 viewBox="90.288 58.809 850.394 850.394" enable-background="new 90.288 58.809 850.394 850.394" xml:space="preserve">
<g>
	<path d="M909.093,300.284c-14.989,0-27.411,10.994-29.643,25.357c-2.091,0.325-4.108,0.872-6.033,1.605h-716.1
		c-1.925-0.733-3.941-1.28-6.033-1.605c-2.232-14.363-14.654-25.357-29.643-25.357c-16.568,0-30,13.432-30,30v24.943
		c-0.044,0.668-0.075,1.34-0.075,2.019v520.478c0,16.568,13.432,30,30,30h787.452c16.568,0,30-13.432,30-30V357.291
		c0.044-0.664,0.074-1.331,0.074-2.006v-25C939.093,313.716,925.662,300.284,909.093,300.284z M404.677,601.635V387.247H625.91
		v214.388H404.677z M625.91,661.635v186.09H404.677v-186.09H625.91z M151.567,387.247h193.109v214.388H151.567V387.247z
		 M685.91,387.247h193.109v214.388H685.91V387.247z M151.567,661.635h193.109v186.09H151.567V661.635z M685.91,847.725v-186.09
		h193.109v186.09H685.91z"/>
	<path d="M121.643,273.033c16.568,0,30-13.432,30-30v-43.626c0-16.568-13.432-30-30-30s-30,13.432-30,30v43.626
		C91.643,259.601,105.074,273.033,121.643,273.033z"/>
	<path d="M121.643,142.156c14.989,0,27.411-10.994,29.643-25.357c14.363-2.232,25.357-14.654,25.357-29.643
		c0-16.568-13.432-30-30-30h-25c-16.568,0-30,13.432-30,30v25C91.643,128.724,105.074,142.156,121.643,142.156z"/>
	<path d="M726.069,117.156h52.675c16.568,0,30-13.432,30-30s-13.432-30-30-30h-52.675c-16.568,0-30,13.432-30,30
		S709.5,117.156,726.069,117.156z"/>
	<path d="M568.043,117.156h52.675c16.568,0,30-13.432,30-30s-13.432-30-30-30h-52.675c-16.568,0-30,13.432-30,30
		S551.475,117.156,568.043,117.156z"/>
	<path d="M410.018,117.156h52.675c16.568,0,30-13.432,30-30s-13.432-30-30-30h-52.675c-16.568,0-30,13.432-30,30
		S393.45,117.156,410.018,117.156z"/>
	<path d="M251.993,117.156h52.675c16.568,0,30-13.432,30-30s-13.432-30-30-30h-52.675c-16.568,0-30,13.432-30,30
		S235.424,117.156,251.993,117.156z"/>
	<path d="M909.093,57.156h-25c-16.568,0-30,13.432-30,30c0,14.989,10.994,27.411,25.357,29.643
		c2.231,14.363,14.653,25.357,29.643,25.357c16.568,0,30-13.432,30-30v-25C939.093,70.587,925.662,57.156,909.093,57.156z"/>
	<path d="M909.093,169.407c-16.568,0-30,13.432-30,30v43.626c0,16.568,13.432,30,30,30s30-13.432,30-30v-43.626
		C939.093,182.839,925.662,169.407,909.093,169.407z"/>
</g>
</svg>
