<?xml version="1.0" encoding="utf-8"?>
<!-- Generator: Adobe Illustrator 16.0.0, SVG Export Plug-In . SVG Version: 6.00 Build 0)  -->
<!DOCTYPE svg PUBLIC "-//W3C//DTD SVG 1.1//EN" "http://www.w3.org/Graphics/SVG/1.1/DTD/svg11.dtd">
<svg version="1.1" id="图形" xmlns="http://www.w3.org/2000/svg" xmlns:xlink="http://www.w3.org/1999/xlink" x="0px" y="0px"
	 width="1000.637px" height="1000.678px" viewBox="15.167 -16.333 1000.637 1000.678"
	 enable-background="new 15.167 -16.333 1000.637 1000.678" xml:space="preserve">
<g>
	<path d="M451.927,146.368c-22.091,0-40,17.909-40,40v257.638h-274.33V186.368c0-22.091-17.909-40-40-40s-40,17.909-40,40v595.274
		c0,22.092,17.909,40,40,40s40-17.908,40-40V524.006h274.33v257.638c0,22.092,17.909,40,40,40s40-17.908,40-40V186.368
		C491.927,164.277,474.019,146.368,451.927,146.368z"/>
	<path d="M965.388,510.763c-9.747-25.345-24.371-47.185-43.466-64.911c-39.06-36.26-94.982-54.646-166.216-54.646h-98V241.107
		h225.799c14.916,0,28-13.084,28-28v-27c0-14.689-12.822-27.1-28-27.1H603.607c-15.178,0-28,12.41-28,27.1v244.798
		c0,20.391,14.835,42.4,38.801,42.4h141.299c100.124,0,135.799,63.641,135.799,123.2c0,68.338-51.92,142.098-135.799,142.098
		c-74.894,0-110.61-41.869-129.845-64.597c-5.252-7.079-11.466-10.669-18.476-10.669c-7.879,0-14.168,4.657-18.276,8.275
		c-5.089,3.994-9.342,8.405-13.457,12.673c-2.867,2.973-5.574,5.78-8.33,8.191l-0.486,0.455
		c-16.314,16.314-11.946,28.809,1.111,44.878l0.099,0.119c17.644,21.038,38.644,38.225,62.416,51.083
		c35.568,19.237,77.403,28.991,124.344,28.991c62.362,0,119.744-23.309,161.574-65.633c40.965-41.447,63.525-97.121,63.525-156.766
		C979.906,564.358,975.021,535.813,965.388,510.763z"/>
</g>
</svg>
