<?xml version="1.0" encoding="utf-8"?>
<!-- Generator: Adobe Illustrator 23.0.2, SVG Export Plug-In . SVG Version: 6.00 Build 0)  -->
<svg version="1.1" id="图层_1" xmlns="http://www.w3.org/2000/svg" xmlns:xlink="http://www.w3.org/1999/xlink" x="0px" y="0px"
	 viewBox="0 0 850.394 850.394" enable-background="new 0 0 850.394 850.394" xml:space="preserve">
<path fill="#040000" d="M758.238,312.358c-59.428-59.427-138.44-92.155-222.483-92.155H102.427L270.501,52.128
	c11.716-11.716,11.716-30.711,0-42.427s-30.711-11.716-42.427,0L8.797,228.98c-0.003,0.003-0.007,0.006-0.01,0.009
	c-0.486,0.486-0.944,0.989-1.39,1.498c-0.098,0.112-0.195,0.226-0.291,0.339c-0.903,1.064-1.719,2.176-2.45,3.327
	c-0.037,0.058-0.073,0.117-0.109,0.175c-0.758,1.213-1.421,2.467-1.989,3.754c-0.011,0.026-0.022,0.052-0.034,0.077
	c-0.571,1.303-1.045,2.637-1.421,3.993c-0.017,0.06-0.032,0.119-0.048,0.179c-0.357,1.317-0.623,2.652-0.797,3.997
	c-0.017,0.13-0.032,0.261-0.047,0.392c-0.07,0.606-0.126,1.214-0.16,1.822c-0.003,0.056-0.009,0.111-0.012,0.167
	c-0.031,0.636-0.037,1.272-0.028,1.909c0.002,0.17,0.007,0.339,0.012,0.509c0.019,0.618,0.051,1.236,0.108,1.852
	c0.003,0.029,0.003,0.057,0.006,0.086c0.063,0.657,0.155,1.311,0.26,1.963c0.022,0.132,0.044,0.264,0.067,0.396
	c0.242,1.374,0.581,2.734,1.015,4.07c0.012,0.038,0.024,0.076,0.037,0.114c0.903,2.74,2.211,5.374,3.924,7.812
	c0.05,0.071,0.099,0.144,0.149,0.214c0.392,0.548,0.802,1.087,1.236,1.614c0.062,0.076,0.128,0.148,0.191,0.223
	c0.354,0.421,0.722,0.834,1.102,1.239c0.13,0.139,0.26,0.277,0.392,0.413c0.094,0.096,0.181,0.195,0.276,0.291l219.288,219.287
	c5.858,5.858,13.536,8.787,21.213,8.787s15.355-2.929,21.213-8.787c11.715-11.716,11.715-30.71,0-42.426L102.427,280.203h433.328
	c140.408,0,254.639,114.23,254.639,254.638s-114.23,254.638-254.639,254.638H340.779c-16.568,0-30,13.432-30,30s13.432,30,30,30
	h194.976c84.043,0,163.056-32.728,222.483-92.155c59.427-59.427,92.155-138.439,92.155-222.482S817.665,371.785,758.238,312.358z"/>
</svg>
