<?xml version="1.0" encoding="utf-8"?>
<!-- Generator: Adobe Illustrator 21.1.0, SVG Export Plug-In . SVG Version: 6.00 Build 0)  -->
<svg version="1.1" id="图形" xmlns="http://www.w3.org/2000/svg" xmlns:xlink="http://www.w3.org/1999/xlink" x="0px" y="0px"
	 viewBox="90.288 58.809 850.394 850.394" enable-background="new 90.288 58.809 850.394 850.394" xml:space="preserve">
<g>
	<path d="M934.898,306.813c-22.928-54.208-55.745-102.885-97.54-144.68s-90.473-74.612-144.681-97.541
		c-56.139-23.744-115.754-35.784-177.192-35.784c-61.438,0-121.054,12.04-177.192,35.784
		c-54.208,22.928-102.885,55.746-144.68,97.541S119,252.605,96.072,306.813c-23.744,56.138-35.784,115.754-35.784,177.192
		s12.04,121.054,35.784,177.192c22.928,54.208,55.746,102.886,97.541,144.681s90.472,74.612,144.68,97.54
		c56.138,23.745,115.754,35.784,177.192,35.784c61.438,0,121.054-12.039,177.192-35.784c54.208-22.928,102.886-55.745,144.681-97.54
		s74.612-90.473,97.54-144.681c23.745-56.138,35.784-115.754,35.784-177.192S958.643,362.951,934.898,306.813z M515.485,879.202
		c-217.912,0-395.197-177.284-395.197-395.197c0-217.912,177.285-395.197,395.197-395.197s395.197,177.285,395.197,395.197
		C910.682,701.918,733.397,879.202,515.485,879.202z"/>
	<path d="M614.427,295.63c-21.221-21.079-52.233-32.579-92.177-34.181c-0.078-0.003-0.156-0.005-0.234-0.007
		c-44.065-0.738-78.295,10.589-101.753,33.658c-25.257,24.84-38.064,63.434-38.064,114.711c0,0.378,0.021,0.756,0.064,1.132
		c1.11,9.743,9.601,28.17,33.793,28.17c22.755,0,32.15-17.128,32.913-28.641c0.02-0.296,0.026-0.594,0.02-0.891
		c-0.664-28.918,5.632-50.04,18.713-62.778c12.341-12.018,31.724-17.49,57.64-16.253c34.181,3.941,50.824,21.844,52.299,56.287
		c-2.772,15.478-16.794,36.639-41.694,62.923c-37.668,37.974-55.981,71.627-55.981,102.878v28.959c0,0.521,0.041,1.04,0.122,1.555
		c1.4,8.895,9.928,25.716,32.186,25.716c22.254,0,30.782-16.821,32.182-25.716c0.081-0.514,0.122-1.034,0.122-1.555v-20.113
		c0-20.771,16.093-46.846,47.828-77.499c37.4-34.339,56.366-66.813,56.366-96.517c0-0.131-0.003-0.263-0.008-0.395
		C647.2,347.474,635.647,316.708,614.427,295.63z"/>
	<path d="M522.552,623.327c-20.989,0-38.065,17.019-38.065,37.937v7.403c0,20.918,17.076,37.937,38.065,37.937
		c20.987,0,38.063-17.019,38.063-37.937v-7.403C560.615,640.346,543.539,623.327,522.552,623.327z"/>
</g>
</svg>
