<?xml version="1.0" encoding="utf-8"?>
<!-- Generator: Adobe Illustrator 21.1.0, SVG Export Plug-In . SVG Version: 6.00 Build 0)  -->
<svg version="1.1" id="图形" xmlns="http://www.w3.org/2000/svg" xmlns:xlink="http://www.w3.org/1999/xlink" x="0px" y="0px"
	 viewBox="90.288 58.809 850.394 850.394" enable-background="new 90.288 58.809 850.394 850.394" xml:space="preserve">
<g>
	<path d="M466.597,538.335c-11.803-11.628-30.798-11.486-42.425,0.315L150.827,816.087l-0.539-255.935
		c-0.035-16.547-13.459-29.937-29.999-29.937c-0.021,0-0.043,0-0.064,0c-16.569,0.035-29.972,13.495-29.937,30.063l0.692,328.909
		c0,0.027,0.002,0.053,0.002,0.079c0.001,0.263,0.013,0.527,0.021,0.79c0.006,0.204,0.007,0.41,0.018,0.613
		c0.002,0.033,0.003,0.066,0.005,0.099c0.012,0.217,0.034,0.433,0.051,0.649c0.02,0.259,0.035,0.519,0.061,0.775
		c0.024,0.237,0.059,0.471,0.088,0.706c0.033,0.265,0.062,0.531,0.102,0.793c0.036,0.236,0.082,0.469,0.124,0.704
		c0.046,0.258,0.087,0.517,0.139,0.772c0.048,0.236,0.107,0.468,0.16,0.702c0.057,0.249,0.11,0.5,0.174,0.747
		c0.06,0.235,0.131,0.465,0.197,0.698c0.047,0.165,0.09,0.332,0.14,0.496c0.007,0.024,0.013,0.048,0.02,0.073
		c0.016,0.052,0.031,0.104,0.047,0.156c0.073,0.235,0.156,0.465,0.234,0.697c0.022,0.065,0.043,0.131,0.066,0.196
		c0.041,0.12,0.078,0.24,0.121,0.359c0.017,0.046,0.033,0.093,0.05,0.139c0.084,0.229,0.177,0.453,0.266,0.68
		c0.075,0.19,0.144,0.381,0.223,0.569c0.016,0.037,0.031,0.075,0.047,0.112c0.08,0.188,0.167,0.372,0.25,0.558
		c0.103,0.23,0.202,0.461,0.311,0.69c0.013,0.026,0.026,0.053,0.038,0.079c0.073,0.151,0.151,0.297,0.226,0.447
		c0.134,0.266,0.265,0.534,0.407,0.797c0.009,0.017,0.019,0.033,0.028,0.05c0.063,0.116,0.131,0.229,0.195,0.344
		c0.175,0.313,0.352,0.626,0.539,0.934c0.047,0.076,0.097,0.15,0.144,0.227c0.21,0.338,0.423,0.675,0.648,1.007
		c0.024,0.035,0.05,0.069,0.073,0.104c0.455,0.666,0.941,1.317,1.456,1.952c0.05,0.061,0.096,0.125,0.146,0.186
		c0.161,0.195,0.331,0.385,0.497,0.577c0.011,0.012,0.021,0.025,0.032,0.037c0.145,0.167,0.286,0.337,0.435,0.501
		c0.019,0.021,0.038,0.043,0.058,0.064c0.118,0.129,0.244,0.254,0.365,0.382c0.036,0.038,0.072,0.076,0.109,0.114
		c0.154,0.161,0.304,0.325,0.462,0.483c0.036,0.036,0.072,0.071,0.108,0.106c0.021,0.021,0.041,0.044,0.063,0.065
		c0.122,0.12,0.249,0.231,0.372,0.349c0.003,0.003,0.007,0.007,0.01,0.01c0.163,0.155,0.322,0.313,0.488,0.464
		c0.047,0.043,0.095,0.084,0.142,0.126c0.168,0.151,0.34,0.295,0.51,0.442c0.145,0.125,0.287,0.254,0.435,0.376
		c0.053,0.044,0.107,0.085,0.16,0.128c0.197,0.16,0.397,0.314,0.596,0.469c0.126,0.098,0.249,0.199,0.377,0.294
		c0.055,0.042,0.112,0.081,0.168,0.122c0.221,0.164,0.446,0.321,0.671,0.477c0.112,0.078,0.222,0.16,0.335,0.237
		c0.059,0.04,0.119,0.078,0.179,0.117c0.237,0.158,0.478,0.31,0.719,0.461c0.107,0.067,0.211,0.137,0.318,0.203
		c0.064,0.039,0.129,0.075,0.193,0.113c0.243,0.146,0.489,0.285,0.735,0.423c0.11,0.062,0.217,0.127,0.328,0.187
		c0.07,0.038,0.142,0.073,0.212,0.111c0.24,0.128,0.482,0.251,0.725,0.372c0.119,0.059,0.235,0.122,0.355,0.18
		c0.079,0.038,0.161,0.073,0.241,0.111c0.229,0.108,0.459,0.21,0.689,0.312c0.133,0.059,0.264,0.122,0.398,0.179
		c0.089,0.038,0.181,0.072,0.271,0.109c0.211,0.087,0.423,0.169,0.635,0.251c0.152,0.059,0.302,0.122,0.455,0.178
		c0.098,0.036,0.198,0.067,0.296,0.102c0.193,0.068,0.386,0.132,0.58,0.196c0.172,0.057,0.342,0.119,0.515,0.173
		c0.103,0.032,0.208,0.059,0.312,0.091c0.177,0.053,0.354,0.101,0.532,0.151c0.193,0.054,0.384,0.114,0.579,0.164
		c0.101,0.026,0.203,0.047,0.305,0.072c0.171,0.042,0.342,0.079,0.513,0.118c0.211,0.048,0.419,0.102,0.631,0.145
		c0.092,0.019,0.186,0.033,0.278,0.052c0.177,0.035,0.355,0.064,0.533,0.095c0.221,0.039,0.44,0.084,0.663,0.118
		c0.077,0.012,0.154,0.02,0.231,0.031c0.201,0.029,0.403,0.051,0.605,0.077c0.222,0.028,0.442,0.061,0.665,0.084
		c0.056,0.006,0.112,0.009,0.168,0.015c0.248,0.024,0.497,0.039,0.745,0.057c0.203,0.015,0.405,0.035,0.61,0.046
		c0.033,0.002,0.065,0.003,0.098,0.004c0.341,0.017,0.683,0.022,1.025,0.027c0.13,0.002,0.258,0.01,0.389,0.011l323.062,0.705
		c0.023,0,0.043,0,0.067,0c16.536,0,29.962-13.39,29.999-29.935c0.036-16.568-13.366-30.029-29.935-30.065l-251.609-0.549
		l274.413-278.52C478.54,568.958,478.399,549.963,466.597,538.335z"/>
	<path d="M939.996,78.831c0-0.084-0.006-0.167-0.007-0.251c-0.003-0.239-0.01-0.478-0.018-0.718
		c-0.006-0.171-0.007-0.343-0.015-0.513c-0.005-0.095-0.013-0.189-0.019-0.283c-0.013-0.208-0.031-0.416-0.048-0.623
		c-0.017-0.206-0.028-0.413-0.049-0.618c-0.009-0.089-0.021-0.176-0.031-0.264c-0.019-0.167-0.043-0.333-0.064-0.5
		c-0.031-0.245-0.058-0.492-0.095-0.736c-0.013-0.084-0.029-0.167-0.042-0.25c-0.018-0.112-0.041-0.222-0.06-0.334
		c-0.006-0.037-0.014-0.075-0.02-0.112c-0.046-0.26-0.088-0.522-0.141-0.779c-0.016-0.077-0.034-0.152-0.05-0.229
		c-0.011-0.051-0.025-0.102-0.036-0.154c-0.023-0.105-0.049-0.21-0.073-0.315c-0.058-0.251-0.111-0.503-0.175-0.752
		c-0.018-0.069-0.037-0.136-0.055-0.205c0-0.002-0.001-0.004-0.002-0.005c-0.044-0.167-0.095-0.332-0.142-0.498
		c-0.067-0.238-0.13-0.477-0.204-0.712c-0.018-0.059-0.038-0.117-0.057-0.176c-0.001-0.004-0.003-0.008-0.004-0.012
		c-0.058-0.181-0.122-0.359-0.183-0.538c-0.075-0.221-0.146-0.445-0.226-0.664c-0.018-0.049-0.037-0.098-0.055-0.146
		c-0.03-0.081-0.065-0.16-0.095-0.241c-0.045-0.118-0.093-0.234-0.139-0.352c-0.082-0.207-0.159-0.416-0.246-0.621
		c-0.017-0.039-0.033-0.079-0.05-0.118c-0.089-0.209-0.188-0.415-0.283-0.622c-0.001-0.002-0.002-0.003-0.002-0.005
		c-0.088-0.193-0.172-0.389-0.263-0.581c-0.016-0.032-0.031-0.064-0.046-0.097c-0.125-0.258-0.261-0.512-0.394-0.767
		c-0.074-0.142-0.144-0.287-0.221-0.428c-0.015-0.028-0.03-0.056-0.045-0.084c-0.151-0.276-0.312-0.548-0.473-0.821
		c-0.068-0.116-0.133-0.235-0.203-0.35c-0.017-0.028-0.034-0.056-0.051-0.084c-0.165-0.27-0.34-0.534-0.514-0.8
		c-0.072-0.11-0.141-0.223-0.214-0.332c-0.022-0.032-0.044-0.065-0.066-0.097c-0.167-0.246-0.344-0.487-0.519-0.729
		c-0.084-0.116-0.164-0.235-0.25-0.35c-0.031-0.042-0.063-0.083-0.094-0.124c-0.161-0.213-0.33-0.422-0.498-0.632
		c-0.1-0.125-0.195-0.253-0.297-0.377c-0.045-0.055-0.092-0.109-0.138-0.164c-0.151-0.18-0.308-0.357-0.464-0.535
		c-0.114-0.13-0.223-0.263-0.339-0.39c-0.065-0.071-0.132-0.14-0.197-0.211c-0.141-0.153-0.288-0.303-0.433-0.453
		c-0.121-0.126-0.239-0.255-0.362-0.379c-0.086-0.086-0.176-0.169-0.263-0.255c-0.056-0.055-0.108-0.112-0.165-0.167
		c-0.087-0.083-0.177-0.16-0.265-0.242c-0.117-0.11-0.229-0.223-0.348-0.33c-0.104-0.095-0.212-0.185-0.317-0.278
		c-0.154-0.137-0.31-0.271-0.467-0.404c-0.102-0.087-0.201-0.177-0.304-0.262c-0.113-0.094-0.23-0.182-0.345-0.274
		c-0.176-0.141-0.353-0.281-0.531-0.417c-0.086-0.066-0.17-0.135-0.257-0.201c-0.117-0.088-0.238-0.17-0.357-0.256
		c-0.199-0.145-0.399-0.288-0.6-0.427c-0.073-0.05-0.144-0.104-0.218-0.153c-0.121-0.082-0.245-0.158-0.367-0.238
		c-0.217-0.142-0.434-0.284-0.654-0.42c-0.066-0.041-0.13-0.084-0.197-0.124c-0.125-0.076-0.255-0.147-0.381-0.222
		c-0.228-0.134-0.457-0.268-0.688-0.396c-0.062-0.035-0.123-0.071-0.186-0.105c-0.135-0.073-0.273-0.141-0.41-0.212
		c-0.229-0.12-0.459-0.241-0.69-0.354c-0.065-0.032-0.128-0.066-0.193-0.097c-0.149-0.072-0.303-0.137-0.454-0.207
		c-0.221-0.102-0.442-0.205-0.664-0.301c-0.07-0.03-0.139-0.063-0.209-0.093c-0.167-0.071-0.338-0.134-0.506-0.202
		c-0.206-0.083-0.412-0.167-0.62-0.245c-0.079-0.03-0.156-0.062-0.235-0.091c-0.184-0.068-0.371-0.126-0.557-0.19
		c-0.19-0.065-0.379-0.132-0.57-0.194c-0.089-0.029-0.176-0.061-0.265-0.088c-0.193-0.06-0.391-0.112-0.586-0.168
		c-0.181-0.052-0.361-0.106-0.542-0.155c-0.098-0.026-0.195-0.057-0.294-0.082c-0.192-0.05-0.388-0.09-0.582-0.136
		c-0.183-0.043-0.365-0.088-0.549-0.127c-0.107-0.023-0.212-0.051-0.32-0.073c-0.181-0.037-0.366-0.066-0.548-0.1
		c-0.196-0.037-0.392-0.073-0.588-0.106c-0.114-0.019-0.225-0.042-0.339-0.06c-0.163-0.025-0.328-0.042-0.491-0.064
		c-0.219-0.03-0.437-0.059-0.656-0.084c-0.118-0.014-0.235-0.032-0.354-0.044c-0.139-0.014-0.28-0.021-0.419-0.034
		c-0.245-0.022-0.491-0.041-0.737-0.057c-0.123-0.008-0.245-0.021-0.369-0.027c-0.115-0.006-0.232-0.006-0.347-0.01
		c-0.268-0.011-0.535-0.017-0.803-0.021c-0.12-0.002-0.239-0.01-0.359-0.01l-320.297-0.711c-0.023,0-0.045,0-0.068,0
		c-16.536,0-29.961,13.388-29.998,29.934c-0.037,16.568,13.365,30.03,29.934,30.066l250,0.555l-272.044,282.64
		c-11.49,11.938-11.127,30.929,0.811,42.419c5.819,5.601,13.314,8.385,20.8,8.385c7.87,0,15.729-3.078,21.618-9.196l269.332-279.823
		l0.533,257.542c0.034,16.548,13.458,29.938,29.999,29.938c0.02,0,0.043,0,0.063,0c16.568-0.034,29.972-13.494,29.938-30.062
		L939.996,78.831z"/>
</g>
</svg>
