<?xml version="1.0" encoding="utf-8"?>
<!-- Generator: Adobe Illustrator 23.0.2, SVG Export Plug-In . SVG Version: 6.00 Build 0)  -->
<svg version="1.1" id="图层_1" xmlns="http://www.w3.org/2000/svg" xmlns:xlink="http://www.w3.org/1999/xlink" x="0px" y="0px"
	 viewBox="0 0 850.394 850.394" enable-background="new 0 0 850.394 850.394" xml:space="preserve">
<g>
	<path fill="#040000" d="M215.432,261.82c-0.031-0.483-0.073-0.964-0.127-1.441c-0.015-0.134-0.034-0.268-0.051-0.403
		c-0.061-0.481-0.133-0.959-0.217-1.432c-0.017-0.098-0.034-0.196-0.052-0.293c-0.342-1.83-0.849-3.6-1.507-5.296
		c-0.006-0.017-0.013-0.033-0.02-0.05c-0.227-0.582-0.47-1.155-0.731-1.718c-0.002-0.004-0.003-0.008-0.005-0.012l-0.013-0.028
		c-0.069-0.149-0.135-0.299-0.207-0.446L132.869,78.897c-4.917-10.608-15.542-17.384-27.216-17.384c-0.102,0-0.205,0-0.306,0.001
		c-11.793,0.12-22.423,7.138-27.165,17.937L2.539,251.713c-0.739,1.678-1.327,3.437-1.751,5.26
		c-0.015,0.066-0.031,0.132-0.046,0.198c-0.119,0.528-0.225,1.06-0.315,1.598c-0.01,0.061-0.023,0.122-0.033,0.183
		c-0.185,1.142-0.307,2.304-0.36,3.485c-0.008,0.183-0.009,0.366-0.014,0.549C0.014,263.254,0,263.521,0,263.791v497.61
		c0,16.568,13.432,30,30,30h155.503c16.568,0,30-13.432,30-30v-497.61c0-0.552-0.017-1.1-0.047-1.644
		C215.451,262.038,215.439,261.929,215.432,261.82z M106.39,164.446l32.143,69.345H75.939L106.39,164.446z M155.503,731.401H60
		v-437.61h95.503V731.401z"/>
	<path fill="#040000" d="M844.278,743.144L333.328,70.84c-7.792-10.252-21.258-14.39-33.462-10.278
		c-12.204,4.111-20.423,15.553-20.423,28.43v672.304c0,16.568,13.432,30,30,30h510.951c11.397,0,21.811-6.459,26.875-16.669
		C852.334,764.416,851.175,752.218,844.278,743.144z M339.443,731.296v-553.25l420.47,553.25H339.443z"/>
	<path fill="#040000" d="M418.02,638.431h146.898c7.599,0,14.54-4.306,17.917-11.112c3.376-6.808,2.604-14.939-1.994-20.989
		L433.943,413.042c-5.194-6.835-14.174-9.593-22.308-6.852c-8.136,2.741-13.615,10.369-13.615,18.954v193.287
		C398.02,629.477,406.974,638.431,418.02,638.431z M438.021,484.513l86.577,113.918h-86.577V484.513z"/>
</g>
</svg>
