<?xml version="1.0" encoding="utf-8"?>
<!-- Generator: Adobe Illustrator 21.1.0, SVG Export Plug-In . SVG Version: 6.00 Build 0)  -->
<svg version="1.1" id="图形" xmlns="http://www.w3.org/2000/svg" xmlns:xlink="http://www.w3.org/1999/xlink" x="0px" y="0px"
	 viewBox="90.288 58.809 850.394 850.394" enable-background="new 90.288 58.809 850.394 850.394" xml:space="preserve">
<g>
	<path d="M901.061,603.156c-93.585-108.75-41.636-195.026-2.296-236.813c17.853-19.025,20.739-47.737,7.078-69.956l-28.562-48.064
		c-12.237-20.757-35.501-31.996-59.278-28.631c-0.378,0.053-0.754,0.114-1.129,0.181c-138.973,25.075-193.832-65.503-214.197-121.98
		c-7.767-23.016-29.151-38.698-53.378-39.081c-0.158-0.002-0.315-0.004-0.474-0.004h-66.735c-0.134,0-0.268,0.001-0.402,0.003
		c-24.272,0.325-45.69,16.001-53.456,39.063c-20.316,56.525-75.107,147.17-214.165,121.963c-0.353-0.064-0.708-0.122-1.063-0.173
		c-23.903-3.45-47.195,7.824-59.406,28.731l-28.536,48.02c-13.584,22.203-10.679,50.903,7.18,69.976
		c39.327,41.727,91.321,127.951-2.27,236.729c-16.891,19.357-19.385,47.166-6.194,69.251c0.019,0.031,0.037,0.063,0.056,0.093
		l29.375,48.776c12.645,21.73,37.586,33.031,62.193,28.133c0.215-0.043,0.431-0.089,0.645-0.136
		c15.108-3.355,30.614-5.078,46.087-5.122c77.069,0.005,132.226,42.718,163.938,126.945c8.565,22.761,30.586,38.089,54.864,38.143
		h69.129c24.221,0,46.254-15.335,54.817-38.134C655.78,735.937,758.369,736.738,814.99,749.243c0.183,0.041,0.366,0.079,0.55,0.116
		c24.664,4.964,49.633-6.344,62.273-28.153l29.364-48.827C920.361,650.325,917.899,622.526,901.061,603.156z M826.375,690.317
		c-33.083-7.109-82.72-11.566-134.156,6.356c-30.158,10.508-57.12,27.534-80.136,50.606
		c-26.166,26.229-47.382,60.507-63.079,101.923h-67.05c-22.895-60.444-57.186-105.155-101.927-132.896
		c-34.451-21.36-74.12-32.191-117.906-32.191c-0.025,0-0.051,0-0.076,0c-19.27,0.049-38.578,2.135-57.418,6.201l-29.039-48.218
		c29.018-33.767,48.883-68.811,59.042-104.161c8.94-31.109,10.474-62.631,4.559-93.691c-10.078-52.914-39.167-93.143-62.167-117.817
		l28.075-47.244c42.528,7.496,82.142,6.569,117.774-2.759c31.407-8.222,59.899-22.976,84.685-43.854
		c42.372-35.691,65.18-81.365,76.91-113.764h61.974c11.759,32.404,34.589,78.101,76.892,113.741
		c24.773,20.872,53.258,35.627,84.663,43.857c35.643,9.34,75.286,10.285,117.853,2.813l28.071,47.237
		c-23.036,24.759-52.054,64.965-62.109,117.792c-5.913,31.06-4.378,62.582,4.563,93.689c10.157,35.342,30.014,70.375,59.021,104.132
		L826.375,690.317z"/>
	<path d="M517.317,334.618c-0.606-0.036-1.225-0.069-1.827-0.054c-81.66,0.087-148.164,67.102-148.247,149.449
		c0.083,82.291,66.587,149.308,148.321,149.392c39.627-0.055,76.864-15.653,104.852-43.922
		c27.91-28.19,43.305-65.646,43.346-105.542c-0.055-39.812-15.456-77.255-43.365-105.434
		C592.824,350.67,556.277,335.125,517.317,334.618z M515.553,573.406c-48.645-0.05-88.261-40.179-88.311-89.392
		c0.049-48.811,38.928-88.647,86.949-89.437c0.427,0.019,0.856,0.029,1.288,0.029c48.61,0.068,88.214,40.181,88.281,89.346
		C603.71,533.209,564.107,573.338,515.553,573.406z"/>
</g>
</svg>
