<?xml version="1.0" encoding="utf-8"?>
<!-- Generator: Adobe Illustrator 23.0.2, SVG Export Plug-In . SVG Version: 6.00 Build 0)  -->
<svg version="1.1" id="图层_1" xmlns="http://www.w3.org/2000/svg" xmlns:xlink="http://www.w3.org/1999/xlink" x="0px" y="0px"
	 viewBox="0 0 850.394 850.394" enable-background="new 0 0 850.394 850.394" xml:space="preserve">
<g>
	<path fill="#040000" d="M764.232,0H87.225C39.422,0,0.532,38.891,0.532,86.693V763.7c0,47.803,38.89,86.693,86.693,86.693h677.007
		c47.803,0,86.692-38.891,86.692-86.693V86.693C850.925,38.891,812.035,0,764.232,0z M790.925,763.7
		c0,14.719-11.975,26.693-26.692,26.693H87.225c-14.718,0-26.693-11.975-26.693-26.693V86.693C60.532,71.975,72.507,60,87.225,60
		h677.007c14.718,0,26.692,11.975,26.692,26.693V763.7z"/>
	<path fill="#040000" d="M600.135,168.425c-16.568,0-30,13.432-30,30v365.539L274.012,180.101
		c-7.842-10.165-21.282-14.215-33.433-10.071c-12.151,4.143-20.32,15.558-20.32,28.396v453.543c0,16.568,13.432,30,30,30
		s30-13.432,30-30V286.43l296.122,383.863c5.792,7.507,14.635,11.678,23.759,11.678c3.23,0,6.498-0.523,9.675-1.606
		c12.151-4.143,20.32-15.558,20.32-28.396V198.425C630.135,181.857,616.703,168.425,600.135,168.425z"/>
</g>
</svg>
