<?xml version="1.0" encoding="utf-8"?>
<!-- Generator: Adobe Illustrator 23.0.2, SVG Export Plug-In . SVG Version: 6.00 Build 0)  -->
<svg version="1.1" id="图层_1" xmlns="http://www.w3.org/2000/svg" xmlns:xlink="http://www.w3.org/1999/xlink" x="0px" y="0px"
	 viewBox="0 0 850.394 850.394" enable-background="new 0 0 850.394 850.394" xml:space="preserve">
<g>
	<path fill="#040000" d="M850.393,520.972c0-0.039-0.003-0.077-0.003-0.116V58.74c0-32.39-25.273-58.74-56.34-58.74H651.97
		c-16.568,0-30,13.431-30,30c0,16.568,13.432,30,30,30h138.42v430.972H60V60h138.43c16.568,0,30-13.432,30-30
		c0-16.569-13.432-30-30-30H56.35C25.278,0,0,26.351,0,58.74v732.91c0,32.389,25.278,58.739,56.35,58.739h737.7
		c31.066,0,56.34-26.351,56.34-58.739V521.087C850.39,521.049,850.393,521.01,850.393,520.972z M60,550.972h335.197v233.461
		c0,2.04,0.206,4.031,0.594,5.957H60V550.972z M454.604,790.39c0.388-1.926,0.594-3.917,0.594-5.957V550.972H790.39V790.39H454.604z
		"/>
	<path fill="#040000" d="M283.464,201.733h111.732v111.732c0,16.568,13.432,30,30,30c16.569,0,30-13.432,30-30V201.733h111.731
		c16.568,0,30-13.432,30-30s-13.432-30-30-30H455.197V30.001c0-16.568-13.432-30-30-30c-16.568,0-30,13.432-30,30v111.732H283.464
		c-16.568,0-30,13.432-30,30S266.896,201.733,283.464,201.733z"/>
</g>
</svg>
