<?xml version="1.0" encoding="utf-8"?>
<!-- Generator: Adobe Illustrator 23.0.2, SVG Export Plug-In . SVG Version: 6.00 Build 0)  -->
<svg version="1.1" id="图层_1" xmlns="http://www.w3.org/2000/svg" xmlns:xlink="http://www.w3.org/1999/xlink" x="0px" y="0px"
	 viewBox="0 0 850.394 850.394" enable-background="new 0 0 850.394 850.394" xml:space="preserve">
<g>
	<path fill="#040000" d="M349.01,156.564c-11.172-4.66-24.053-2.149-32.657,6.368L206.836,271.358
		c-11.774,11.657-11.869,30.652-0.212,42.426c11.657,11.774,30.651,11.87,42.426,0.212l58.41-57.828v409.973
		c0,16.568,13.432,30,30,30s30-13.432,30-30v-481.89C367.46,172.146,360.183,161.225,349.01,156.564z"/>
	<path fill="#040000" d="M643.77,536.61c-11.657-11.773-30.653-11.87-42.426-0.213l-58.41,57.828V184.252c0-16.568-13.432-30-30-30
		s-30,13.432-30,30v481.89c0,12.106,7.276,23.026,18.45,27.688c3.731,1.557,7.653,2.313,11.543,2.313
		c7.757,0,15.384-3.009,21.113-8.682l109.517-108.425C655.331,567.379,655.427,548.385,643.77,536.61z"/>
</g>
</svg>
