<?xml version="1.0" encoding="utf-8"?>
<!-- Generator: Adobe Illustrator 23.0.2, SVG Export Plug-In . SVG Version: 6.00 Build 0)  -->
<svg version="1.1" id="图层_1" xmlns="http://www.w3.org/2000/svg" xmlns:xlink="http://www.w3.org/1999/xlink" x="0px" y="0px"
	 viewBox="0 0 850.394 850.394" enable-background="new 0 0 850.394 850.394" xml:space="preserve">
<g>
	<path fill="#040000" d="M678.658,253.465c16.568,0,30,13.432,30,30v111.732h111.732c16.568,0,30,13.432,30,30
		c0,16.569-13.432,30-30,30H708.658v111.731c0,16.568-13.432,30-30,30s-30-13.432-30-30V455.198H536.926c-16.568,0-30-13.432-30-30
		c0-16.568,13.432-30,30-30h111.732V283.465C648.658,266.897,662.09,253.465,678.658,253.465z"/>
	<path fill="#040000" d="M56.342,0.001h737.7c31.072,0,56.35,26.351,56.35,58.74v139.69c0,16.568-13.431,30-30,30
		c-16.568,0-30-13.432-30-30V60.001H359.42v730.39h430.972V651.97c0-16.568,13.432-30,30-30c16.569,0,30,13.432,30,30v139.681
		c0,32.389-25.278,58.739-56.35,58.739H329.536c-0.039,0-0.077,0.003-0.116,0.003s-0.077-0.003-0.116-0.003H56.342
		c-31.066,0-56.34-26.351-56.34-58.739V58.741C0.002,26.351,25.275,0.001,56.342,0.001z M60.002,60.001v335.79
		c1.926-0.388,3.917-0.594,5.957-0.594H299.42V60.001H60.002z M299.42,790.39V455.198H65.959c-2.04,0-4.031-0.206-5.957-0.594
		V790.39H299.42z"/>
</g>
</svg>
