<?xml version="1.0" encoding="utf-8"?>
<!-- Generator: Adobe Illustrator 16.0.0, SVG Export Plug-In . SVG Version: 6.00 Build 0)  -->
<!DOCTYPE svg PUBLIC "-//W3C//DTD SVG 1.1//EN" "http://www.w3.org/Graphics/SVG/1.1/DTD/svg11.dtd">
<svg version="1.1" id="图形" xmlns="http://www.w3.org/2000/svg" xmlns:xlink="http://www.w3.org/1999/xlink" x="0px" y="0px"
	 width="1000.637px" height="1000.678px" viewBox="15.167 -16.333 1000.637 1000.678"
	 enable-background="new 15.167 -16.333 1000.637 1000.678" xml:space="preserve">
<g>
	<path d="M898.162,811.683H132.808c-30.376,0-55,24.624-55,55s24.624,55,55,55h765.354c30.376,0,55-24.624,55-55
		S928.538,811.683,898.162,811.683z"/>
	<path d="M476.583,707.136c0.645,0.646,1.307,1.273,1.983,1.887c0.322,0.292,0.654,0.567,0.981,0.851
		c0.349,0.302,0.693,0.608,1.05,0.901c0.426,0.351,0.863,0.684,1.297,1.02c0.269,0.207,0.532,0.42,0.804,0.623
		c0.482,0.358,0.972,0.699,1.462,1.04c0.24,0.166,0.475,0.337,0.717,0.499c0.508,0.342,1.023,0.666,1.54,0.988
		c0.241,0.15,0.479,0.305,0.723,0.451c0.51,0.307,1.026,0.599,1.544,0.888c0.269,0.15,0.534,0.304,0.805,0.449
		c0.491,0.263,0.986,0.512,1.483,0.76c0.315,0.157,0.629,0.316,0.948,0.468c0.456,0.217,0.916,0.419,1.375,0.622
		c0.373,0.165,0.746,0.331,1.123,0.488c0.411,0.17,0.826,0.329,1.24,0.488c0.436,0.169,0.872,0.338,1.313,0.496
		c0.365,0.13,0.732,0.25,1.1,0.372c0.494,0.165,0.989,0.329,1.489,0.48c0.326,0.098,0.654,0.187,0.981,0.278
		c0.541,0.152,1.082,0.304,1.63,0.44c0.305,0.075,0.61,0.141,0.915,0.211c0.567,0.131,1.135,0.26,1.708,0.373
		c0.311,0.062,0.623,0.111,0.935,0.167c0.565,0.102,1.13,0.203,1.701,0.287c0.354,0.052,0.709,0.09,1.063,0.136
		c0.529,0.066,1.057,0.139,1.59,0.19c0.469,0.046,0.938,0.073,1.408,0.106c0.424,0.03,0.844,0.07,1.271,0.092
		c0.906,0.044,1.813,0.068,2.721,0.068s1.814-0.024,2.721-0.068c0.431-0.021,0.856-0.062,1.285-0.093
		c0.464-0.033,0.928-0.061,1.391-0.105c0.543-0.053,1.08-0.126,1.618-0.194c0.344-0.044,0.688-0.08,1.031-0.131
		c0.588-0.086,1.168-0.19,1.749-0.295c0.294-0.054,0.588-0.1,0.881-0.158c0.593-0.116,1.18-0.25,1.766-0.386
		c0.285-0.065,0.57-0.127,0.854-0.197c0.569-0.142,1.132-0.298,1.693-0.457c0.305-0.086,0.61-0.168,0.914-0.26
		c0.525-0.158,1.044-0.33,1.563-0.504c0.342-0.114,0.684-0.225,1.022-0.346c0.469-0.167,0.931-0.347,1.394-0.525
		c0.387-0.15,0.774-0.298,1.158-0.457c0.406-0.168,0.806-0.347,1.206-0.524c0.433-0.19,0.865-0.382,1.293-0.584
		c0.348-0.165,0.689-0.339,1.032-0.511c0.469-0.233,0.937-0.468,1.399-0.716c0.3-0.162,0.595-0.331,0.893-0.498
		c0.488-0.274,0.978-0.549,1.459-0.84c0.272-0.163,0.539-0.336,0.808-0.504c0.489-0.307,0.979-0.613,1.46-0.936
		c0.271-0.182,0.534-0.373,0.801-0.559c0.463-0.322,0.926-0.644,1.381-0.981c0.305-0.227,0.6-0.465,0.899-0.697
		c0.403-0.313,0.809-0.621,1.205-0.946c0.395-0.324,0.776-0.663,1.161-0.998c0.291-0.253,0.587-0.496,0.874-0.757
		c0.68-0.616,1.346-1.248,1.995-1.897l200.425-200.424c21.479-21.479,21.479-56.303,0-77.781c-21.479-21.479-56.303-21.479-77.781,0
		l-106.55,106.549V101.329c0-30.375-24.624-55-55-55c-30.375,0-55,24.625-55,55v434.146l-106.55-106.549
		c-21.479-21.479-56.302-21.479-77.782,0c-21.479,21.479-21.479,56.303,0,77.781L476.583,707.136z"/>
</g>
</svg>
