<?xml version="1.0" encoding="utf-8"?>
<!-- Generator: Adobe Illustrator 23.0.2, SVG Export Plug-In . SVG Version: 6.00 Build 0)  -->
<svg version="1.1" id="图层_1" xmlns="http://www.w3.org/2000/svg" xmlns:xlink="http://www.w3.org/1999/xlink" x="0px" y="0px"
	 viewBox="0 0 850.394 850.394" enable-background="new 0 0 850.394 850.394" xml:space="preserve">
<g>
	<path fill="#040000" d="M814.887,72.207H700.737H561.039V44.433c0-2.701-0.255-5.341-0.719-7.911
		c0.466-2.101,0.719-4.281,0.719-6.522c0-16.568-13.432-30-30-30h-14.433H333.789h-14.434c-16.568,0-30,13.432-30,30
		c0,2.241,0.253,4.421,0.719,6.522c-0.464,2.569-0.719,5.21-0.719,7.911v27.774H149.659H35.507c-16.568,0-30,13.432-30,30
		s13.432,30,30,30h71.032v672.142c0,25.39,19.343,46.045,43.12,46.045h551.079c23.776,0,43.119-20.655,43.119-46.045V132.207h71.03
		c16.568,0,30-13.432,30-30S831.455,72.207,814.887,72.207z M349.355,60h151.684v12.207H349.355V60z M683.856,790.394H166.539
		V132.207h167.25h182.817h167.25V790.394z"/>
	<path fill="#040000" d="M328.978,286.972c-16.568,0-30,13.432-30,30V605.63c0,16.568,13.432,30,30,30s30-13.432,30-30V316.972
		C358.978,300.403,345.546,286.972,328.978,286.972z"/>
	<path fill="#040000" d="M491.417,316.972V605.63c0,16.568,13.432,30,30,30s30-13.432,30-30V316.972c0-16.568-13.432-30-30-30
		S491.417,300.403,491.417,316.972z"/>
</g>
</svg>
