<?xml version="1.0" encoding="utf-8"?>
<!-- Generator: Adobe Illustrator 23.0.2, SVG Export Plug-In . SVG Version: 6.00 Build 0)  -->
<svg version="1.1" id="图层_1" xmlns="http://www.w3.org/2000/svg" xmlns:xlink="http://www.w3.org/1999/xlink" x="0px" y="0px"
	 viewBox="0 0 850.394 850.394" enable-background="new 0 0 850.394 850.394" xml:space="preserve">
<g>
	<path fill="#040000" d="M367.229,761.573H66.977c-3.3,0-6.976-4.142-6.976-10.085V352.739h246.75
		c25.358,0,45.988-20.631,45.988-45.989V60h342.856c3.3,0,6.977,4.142,6.977,10.085v297.279c0,16.568,13.432,30,30,30
		s30-13.432,30-30V70.086C762.572,31.44,732.526,0,695.596,0H322.739c-0.503,0-1.004,0.013-1.503,0.038
		c-0.419,0.021-0.834,0.055-1.249,0.093c-0.073,0.007-0.147,0.01-0.22,0.017c-5.006,0.492-9.649,2.217-13.625,4.864
		c-0.017,0.012-0.035,0.022-0.053,0.034c-0.355,0.237-0.703,0.484-1.047,0.736c-0.056,0.041-0.113,0.079-0.169,0.12
		c-0.311,0.231-0.615,0.472-0.917,0.715c-0.083,0.066-0.168,0.129-0.249,0.196c-0.285,0.234-0.562,0.478-0.838,0.722
		c-0.092,0.081-0.187,0.159-0.279,0.241c-0.36,0.327-0.713,0.662-1.057,1.006c-0.002,0.002-0.004,0.004-0.006,0.006L8.787,301.525
		c-0.258,0.258-0.505,0.524-0.752,0.79c-0.081,0.087-0.166,0.17-0.246,0.258c-0.166,0.183-0.324,0.373-0.485,0.56
		c-0.16,0.185-0.324,0.367-0.479,0.556c-0.116,0.142-0.226,0.288-0.339,0.432c-0.193,0.244-0.388,0.486-0.573,0.736
		c-0.074,0.1-0.143,0.203-0.216,0.303c-0.218,0.301-0.435,0.604-0.642,0.913c-0.035,0.052-0.067,0.106-0.102,0.159
		c-0.239,0.363-0.473,0.729-0.697,1.103c-0.001,0.001-0.001,0.003-0.002,0.004c-2.218,3.7-3.662,7.915-4.106,12.426
		c-0.009,0.089-0.012,0.178-0.02,0.267c-0.036,0.399-0.07,0.799-0.089,1.203C0.013,321.734,0,322.236,0,322.738v428.75
		c0,38.645,30.045,70.085,66.976,70.085h300.252c16.569,0,30-13.432,30-30S383.797,761.573,367.229,761.573z M102.426,292.739
		l190.313-190.313v190.313H102.426z"/>
	<path fill="#040000" d="M820.394,644.023h-116.37V527.654c0-16.568-13.432-30-30-30s-30,13.432-30,30v116.369H527.654
		c-16.568,0-30,13.432-30,30s13.432,30,30,30h116.369v116.37c0,16.568,13.432,30,30,30s30-13.432,30-30v-116.37h116.37
		c16.568,0,30-13.432,30-30S836.962,644.023,820.394,644.023z"/>
</g>
</svg>
