<svg width="24" height="24" viewBox="0 0 24 24" fill="none" xmlns="http://www.w3.org/2000/svg">
<path fill-rule="evenodd" clip-rule="evenodd" d="M2.75 3.5C2.75 3.08579 3.08579 2.75 3.5 2.75H14C14.4142 2.75 14.75 3.08579 14.75 3.5C14.75 3.91421 14.4142 4.25 14 4.25H4.25V19.75H19.75V10C19.75 9.58579 20.0858 9.25 20.5 9.25C20.9142 9.25 21.25 9.58579 21.25 10V20.5C21.25 20.9142 20.9142 21.25 20.5 21.25H3.5C3.08579 21.25 2.75 20.9142 2.75 20.5V3.5ZM19.9697 2.96967C20.2626 2.67678 20.7374 2.67678 21.0303 2.96967C21.3232 3.26256 21.3232 3.73744 21.0303 4.03033L9.03033 16.0303C8.73744 16.3232 8.26256 16.3232 7.96967 16.0303C7.67678 15.7374 7.67678 15.2626 7.96967 14.9697L19.9697 2.96967Z" fill="#182B50"/>
</svg>
