<svg width="16" height="16" viewBox="0 0 16 16" fill="none" xmlns="http://www.w3.org/2000/svg">
<path d="M14.0146 11.9644C14.0146 13.069 13.1192 13.9644 12.0146 13.9644H4.01465C2.91008 13.9644 2.01465 13.069 2.01465 11.9644V4.00293C2.01465 2.89836 2.91008 2.00293 4.01465 2.00293H6.40753C6.74421 2.00293 7.07544 2.08792 7.37052 2.25003L8.75406 3.0101H12.0146C13.1192 3.0101 14.0146 3.90553 14.0146 5.0101L14.0146 11.9644ZM3.01465 4.00293V6.26561C3.30882 6.09544 3.65036 5.99805 4.01465 5.99805H12.0146C12.3789 5.99805 12.7205 6.09544 13.0146 6.26561L13.0146 5.0101C13.0146 4.45782 12.5669 4.0101 12.0146 4.0101H8.75406C8.58572 4.0101 8.42011 3.96761 8.27257 3.88655L6.88902 3.12648C6.74148 3.04543 6.57587 3.00293 6.40753 3.00293H4.01465C3.46236 3.00293 3.01465 3.45065 3.01465 4.00293ZM3.01465 7.99805V11.9644C3.01465 12.5167 3.46236 12.9644 4.01465 12.9644H12.0146C12.5669 12.9644 13.0146 12.5167 13.0146 11.9644L13.0146 7.99646C13.0138 7.44491 12.5664 6.99805 12.0146 6.99805H4.01465C3.46236 6.99805 3.01465 7.44576 3.01465 7.99805Z" fill="#182B50"/>
</svg>
