<svg viewBox="0 0 24 24" fill="none" xmlns="http://www.w3.org/2000/svg">
<path fill-rule="evenodd" clip-rule="evenodd" d="M4.5 6.5H16.5V20.5H4.5V6.5ZM4 5C3.44772 5 3 5.44772 3 6V21C3 21.5523 3.44772 22 4 22H17C17.5523 22 18 21.5523 18 21V6C18 5.44772 17.5523 5 17 5H4Z" fill="black"/>
<path fill-rule="evenodd" clip-rule="evenodd" d="M7.75 2.5C7.75 2.08579 8.08579 1.75 8.5 1.75H21.5C21.9142 1.75 22.25 2.08579 22.25 2.5V17C22.25 17.4142 21.9142 17.75 21.5 17.75H17.5V16.25H20.75V3.25H9.25V5.5H7.75V2.5Z" fill="black"/>
<path fill-rule="evenodd" clip-rule="evenodd" d="M6.25 10C6.25 10.4142 6.58579 10.75 7 10.75H14C14.4142 10.75 14.75 10.4142 14.75 10C14.75 9.58579 14.4142 9.25 14 9.25H7C6.58579 9.25 6.25 9.58579 6.25 10Z" fill="black"/>
<path fill-rule="evenodd" clip-rule="evenodd" d="M6.25 14C6.25 14.4142 6.58579 14.75 7 14.75H14C14.4142 14.75 14.75 14.4142 14.75 14C14.75 13.5858 14.4142 13.25 14 13.25H7C6.58579 13.25 6.25 13.5858 6.25 14Z" fill="black"/>
</svg>
