<?xml version="1.0" encoding="utf-8"?>
<!-- Generator: Adobe Illustrator 23.0.2, SVG Export Plug-In . SVG Version: 6.00 Build 0)  -->
<svg version="1.1" id="图层_1" xmlns="http://www.w3.org/2000/svg" xmlns:xlink="http://www.w3.org/1999/xlink" x="0px" y="0px"
	 viewBox="0 0 850.394 850.394" enable-background="new 0 0 850.394 850.394" xml:space="preserve">
<g>
	<path fill="#040000" d="M171.733,253.464c-16.568,0-30,13.432-30,30v111.732H30.001c-16.568,0-30,13.432-30,30
		c0,16.569,13.432,30,30,30h111.732v111.731c0,16.568,13.432,30,30,30s30-13.432,30-30V455.197h111.732c16.568,0,30-13.432,30-30
		c0-16.568-13.432-30-30-30H201.733V283.464C201.733,266.896,188.302,253.464,171.733,253.464z"/>
	<path fill="#040000" d="M794.05,0H56.35C25.278,0,0,26.351,0,58.74v139.69c0,16.568,13.431,30,30,30c16.568,0,30-13.432,30-30V60
		h430.972v730.39H60V651.97c0-16.568-13.432-30-30-30c-16.569,0-30,13.432-30,30V791.65c0,32.389,25.278,58.739,56.35,58.739
		h464.506c0.039,0,0.077,0.003,0.116,0.003s0.077-0.003,0.116-0.003H794.05c31.066,0,56.34-26.351,56.34-58.739V58.74
		C850.39,26.351,825.116,0,794.05,0z M790.39,60v335.79c-1.926-0.388-3.917-0.594-5.957-0.594H550.972V60H790.39z M550.972,790.39
		V455.197h233.461c2.04,0,4.031-0.206,5.957-0.594V790.39H550.972z"/>
</g>
</svg>
