<svg width="17" height="17" viewBox="0 0 17 17" fill="none" xmlns="http://www.w3.org/2000/svg">
<path d="M5.68262 7.01079C5.68262 5.65995 6.82516 4.60596 8.18262 4.60596C9.54007 4.60596 10.6826 5.65995 10.6826 7.01079C10.6826 7.92727 10.15 8.67569 9.41576 9.08638C9.40717 9.09118 9.39717 9.09663 9.38593 9.10275C9.19689 9.20571 8.65879 9.49877 8.68222 10.086C8.69323 10.3619 8.47847 10.5946 8.20255 10.6056C7.92662 10.6166 7.69402 10.4018 7.68301 10.1259C7.65611 9.45144 7.97595 8.96912 8.28476 8.66846C8.43828 8.51899 8.59379 8.4089 8.71457 8.33361C8.82382 8.2655 8.94597 8.20335 8.9276 8.21363C9.39591 7.95168 9.68262 7.51114 9.68262 7.01079C9.68262 6.25762 9.03429 5.60596 8.18262 5.60596C7.33094 5.60596 6.68262 6.25762 6.68262 7.01079C6.68262 7.28693 6.45876 7.51079 6.18262 7.51079C5.90647 7.51079 5.68262 7.28693 5.68262 7.01079Z" fill="#152646"/>
<path d="M8.18262 14.5711C4.89652 14.5711 2.23262 11.9072 2.23262 8.62109C2.23262 5.335 4.89652 2.67109 8.18262 2.67109C11.4687 2.67109 14.1326 5.335 14.1326 8.62109C14.1326 11.9072 11.4687 14.5711 8.18262 14.5711ZM8.18262 15.6211C12.0486 15.6211 15.1826 12.4871 15.1826 8.62109C15.1826 4.7551 12.0486 1.62109 8.18262 1.62109C4.31662 1.62109 1.18262 4.7551 1.18262 8.62109C1.18262 12.4871 4.31662 15.6211 8.18262 15.6211Z" fill="#152646"/>
<path d="M7.68262 11.6216C7.68262 11.3454 7.90647 11.1216 8.18262 11.1216C8.45876 11.1216 8.68262 11.3454 8.68262 11.6216V12.1212C8.68262 12.3973 8.45876 12.6212 8.18262 12.6212C7.90647 12.6212 7.68262 12.3973 7.68262 12.1212V11.6216Z" fill="#152646"/>
</svg>
