<svg width="17" height="17" viewBox="0 0 17 17" fill="none" xmlns="http://www.w3.org/2000/svg">
<path d="M11.5698 7.48411C11.7659 7.28977 11.7674 6.97319 11.5731 6.77701C11.3787 6.58084 11.0622 6.57935 10.866 6.7737L8.18823 9.42646L6.54006 7.77842C6.34479 7.58316 6.02821 7.58317 5.83296 7.77844C5.6377 7.97371 5.63771 8.29029 5.83298 8.48555L7.83305 10.4855C8.02766 10.6801 8.34296 10.6808 8.53848 10.4871L11.5698 7.48411Z" fill="#152646"/>
<path d="M15.1826 8.62891C15.1826 12.4949 12.0486 15.6289 8.18262 15.6289C4.31662 15.6289 1.18262 12.4949 1.18262 8.62891C1.18262 4.76291 4.31662 1.62891 8.18262 1.62891C12.0486 1.62891 15.1826 4.76291 15.1826 8.62891ZM14.1326 8.62891C14.1326 5.34281 11.4687 2.67891 8.18262 2.67891C4.89652 2.67891 2.23262 5.34281 2.23262 8.62891C2.23262 11.915 4.89652 14.5789 8.18262 14.5789C11.4687 14.5789 14.1326 11.915 14.1326 8.62891Z" fill="#152646"/>
</svg>
