<?xml version="1.0" encoding="utf-8"?>
<!-- Generator: Adobe Illustrator 21.1.0, SVG Export Plug-In . SVG Version: 6.00 Build 0)  -->
<svg version="1.1" id="图形" xmlns="http://www.w3.org/2000/svg" xmlns:xlink="http://www.w3.org/1999/xlink" x="0px" y="0px"
	 viewBox="90.288 58.809 850.394 850.394" enable-background="new 90.288 58.809 850.394 850.394" xml:space="preserve">
<g>
	<path d="M689.617,128.589c0,0,45.119-41.429,47.806-44.112c2.682-2.686,61.388-54.177,136.7,6.708
		c18.116,15.766,92.925,88.395,56.86,154.649c-9.391,13.923-18.113,21.134-60.886,63.572
		C861.543,300.852,689.617,128.589,689.617,128.589L689.617,128.589z"/>
	<path d="M616.152,200.715l180.313,180.817L389.04,791.638l-36.568,32.539c0,0-13.583,14.93-52.163,29.689
		c-38.58,14.93-94.771,35.897-161.026,50.656c-18.952,2.682-52.834,8.722-48.64-34.554c4.026-43.273,31.867-117.75,47.302-165.719
		c19.624-45.287,34.55-58.874,62.228-87.891C228.016,587.34,616.152,200.715,616.152,200.715L616.152,200.715z"/>
</g>
</svg>
