<svg width="17" height="17" viewBox="0 0 17 17" fill="none" xmlns="http://www.w3.org/2000/svg">
<path d="M5.4316 5.77543C5.62686 5.58017 5.94345 5.58017 6.13871 5.77543L8.28516 7.92188L10.4317 5.77535C10.6269 5.58009 10.9435 5.58009 11.1388 5.77535C11.334 5.97061 11.334 6.2872 11.1388 6.48246L8.99226 8.62898L11.1385 10.7752C11.3338 10.9705 11.3338 11.2871 11.1385 11.4823C10.9433 11.6776 10.6267 11.6776 10.4314 11.4823L8.28516 9.33609L6.13879 11.4825C5.94352 11.6777 5.62694 11.6777 5.43168 11.4825C5.23642 11.2872 5.23642 10.9706 5.43168 10.7754L7.57805 8.62898L5.4316 6.48254C5.23634 6.28727 5.23634 5.97069 5.4316 5.77543Z" fill="#152646"/>
<path d="M8.28516 15.6289C12.1511 15.6289 15.2852 12.4949 15.2852 8.62891C15.2852 4.76291 12.1511 1.62891 8.28516 1.62891C4.41916 1.62891 1.28516 4.76291 1.28516 8.62891C1.28516 12.4949 4.41916 15.6289 8.28516 15.6289ZM8.28516 14.6289C4.97145 14.6289 2.28516 11.9426 2.28516 8.62891C2.28516 5.3152 4.97145 2.62891 8.28516 2.62891C11.5989 2.62891 14.2852 5.3152 14.2852 8.62891C14.2852 11.9426 11.5989 14.6289 8.28516 14.6289Z" fill="#152646"/>
</svg>
