<?xml version="1.0" encoding="utf-8"?>
<!-- Generator: Adobe Illustrator 16.0.0, SVG Export Plug-In . SVG Version: 6.00 Build 0)  -->
<!DOCTYPE svg PUBLIC "-//W3C//DTD SVG 1.1//EN" "http://www.w3.org/Graphics/SVG/1.1/DTD/svg11.dtd">
<svg version="1.1" id="图形" xmlns="http://www.w3.org/2000/svg" xmlns:xlink="http://www.w3.org/1999/xlink" x="0px" y="0px"
	 width="1000.637px" height="1000.678px" viewBox="15.167 -16.333 1000.637 1000.678"
	 enable-background="new 15.167 -16.333 1000.637 1000.678" xml:space="preserve">
<g>
	<path d="M260.367,249.124c-22.091,0-40,17.909-40,40s17.909,40,40,40h510.236c22.092,0,40-17.909,40-40s-17.908-40-40-40H260.367z"
		/>
	<path d="M940.681,444.006H90.289c-22.091,0-40,17.909-40,40c0,22.092,17.909,40,40,40h850.393c22.092,0,40-17.908,40-40
		C980.681,461.915,962.773,444.006,940.681,444.006z"/>
	<path d="M90.289,134.242h850.393c22.092,0,40-17.909,40-40s-17.908-40-40-40H90.289c-22.091,0-40,17.909-40,40
		S68.197,134.242,90.289,134.242z"/>
	<path d="M940.681,833.77H90.289c-22.091,0-40,17.908-40,40s17.909,40,40,40h850.393c22.092,0,40-17.908,40-40
		S962.773,833.77,940.681,833.77z"/>
	<path d="M770.603,718.888c22.092,0,40-17.908,40-40s-17.908-40-40-40H260.367c-22.091,0-40,17.908-40,40s17.909,40,40,40H770.603z"
		/>
</g>
</svg>
