<svg width="16" height="17" viewBox="0 0 16 17" fill="none" xmlns="http://www.w3.org/2000/svg">
<path d="M9 11.4009C9 11.9532 8.55229 12.4009 8 12.4009C7.44772 12.4009 7 11.9532 7 11.4009V8.40088C7 7.84859 7.44772 7.40088 8 7.40088C8.55228 7.40088 9 7.84859 9 8.40088V11.4009Z" fill="#152646"/>
<path d="M8 4.40088C8.55228 4.40088 9 4.84859 9 5.40088C9 5.95316 8.55229 6.40088 8 6.40088C7.44772 6.40088 7 5.95316 7 5.40088C7 4.84859 7.44772 4.40088 8 4.40088Z" fill="#152646"/>
<path d="M8 15.4009C11.866 15.4009 15 12.2669 15 8.40088C15 4.53489 11.866 1.40088 8 1.40088C4.13401 1.40088 1 4.53489 1 8.40088C1 12.2669 4.13401 15.4009 8 15.4009ZM8 14.4009C4.68629 14.4009 2 11.7146 2 8.40088C2 5.08717 4.68629 2.40088 8 2.40088C11.3137 2.40088 14 5.08717 14 8.40088C14 11.7146 11.3137 14.4009 8 14.4009Z" fill="#152646"/>
</svg>
