<svg width="17" height="17" viewBox="0 0 17 17" fill="none" xmlns="http://www.w3.org/2000/svg">
<path d="M9.18262 6.97949C9.18262 6.42721 8.7349 5.97949 8.18262 5.97949C7.63033 5.97949 7.18262 6.42721 7.18262 6.97949V8.97949C7.18262 9.53178 7.63033 9.97949 8.18262 9.97949C8.7349 9.97949 9.18262 9.53178 9.18262 8.97949V6.97949Z" fill="#152646"/>
<path d="M9.18262 11.9795C9.18262 12.5318 8.7349 12.9795 8.18262 12.9795C7.63033 12.9795 7.18262 12.5318 7.18262 11.9795C7.18262 11.4272 7.63033 10.9795 8.18262 10.9795C8.7349 10.9795 9.18262 11.4272 9.18262 11.9795Z" fill="#152646"/>
<path d="M9.88661 3.35449C9.11681 2.02116 7.19231 2.02116 6.42251 3.35449L1.43304 11.9965C0.663241 13.3298 1.62549 14.9965 3.16509 14.9965H13.144C14.6836 14.9965 15.6459 13.3298 14.8761 11.9965L9.88661 3.35449ZM7.28854 3.85449C7.67344 3.18783 8.63569 3.18783 9.02059 3.85449L14.0101 12.4965C14.395 13.1632 13.9138 13.9965 13.144 13.9965H3.16509C2.39529 13.9965 1.91417 13.1632 2.29907 12.4965L7.28854 3.85449Z" fill="#152646"/>
</svg>
