<svg class="icon" viewBox="0 0 1024 1024" version="1.1" xmlns="http://www.w3.org/2000/svg" width="200" height="200"><path d="M832 992H192C102.4 992 32 921.6 32 832V192C32 102.4 102.4 32 192 32h640c89.6 0 160 70.4 160 160v640c0 89.6-70.4 160-160 160zM192 96c-51.2 0-96 44.8-96 96v640c0 51.2 44.8 96 96 96h640c51.2 0 96-44.8 96-96V192c0-51.2-44.8-96-96-96H192z" fill="#000000" p-id="2464"></path><path d="M339.2 704c-6.4 0-19.2-6.4-25.6-12.8L192 556.8c-19.2-25.6-19.2-64 0-89.6l121.6-140.8c12.8-6.4 32-12.8 44.8 0 12.8 12.8 12.8 32 6.4 44.8L243.2 512l121.6 140.8c12.8 12.8 12.8 32-6.4 44.8-6.4 6.4-12.8 6.4-19.2 6.4zM691.2 704c-6.4 0-12.8 0-19.2-6.4-12.8-12.8-12.8-32-6.4-44.8L780.8 512l-121.6-140.8c-12.8-12.8-12.8-32 6.4-44.8 12.8-12.8 32-12.8 44.8 6.4L832 467.2c19.2 25.6 19.2 57.6 0 83.2l-121.6 140.8c-6.4 6.4-12.8 12.8-19.2 12.8z" fill="#000000" p-id="2465"></path><path d="M448 704h-12.8c-19.2-6.4-25.6-25.6-19.2-38.4l128-320c6.4-19.2 25.6-32 44.8-25.6 19.2 6.4 25.6 25.6 19.2 38.4l-128 320c-6.4 19.2-19.2 25.6-32 25.6z" fill="#000000"></path></svg>
