<?xml version="1.0" ?><svg xmlns="http://www.w3.org/2000/svg" xmlns:xlink="http://www.w3.org/1999/xlink" version="1.1" viewBox="0 0 512 512" style="enable-background:new 0 0 512 512;" xml:space="preserve"><g id="_x34_9_x2C__Mind_Mapping_x2C__mind_mapping_x2C__analytics_x2C__business_and_finance_x2C__infographics_x2C__flow_chart"><g><g><path style="fill:#283954;" d="M421,361c-12.212,0-23.454,4.203-32.382,11.222l-78.61-75.037     c-2.997-2.859-7.744-2.751-10.604,0.246c-2.86,2.996-2.75,7.744,0.246,10.604l78.608,75.035     c-6.135,8.591-9.759,19.092-9.759,30.43c0,28.948,23.552,52.5,52.5,52.5s52.5-23.552,52.5-52.5S449.948,361,421,361z M421,451     c-20.678,0-37.5-16.822-37.5-37.5S400.322,376,421,376s37.5,16.822,37.5,37.5S441.678,451,421,451z"/><path style="fill:#283954;" d="M399.255,248.5H323.5c-4.143,0-7.5,3.357-7.5,7.5s3.357,7.5,7.5,7.5h75.755     c3.484,17.096,18.635,30,36.745,30c20.678,0,37.5-16.822,37.5-37.5s-16.822-37.5-37.5-37.5     C417.89,218.5,402.739,231.404,399.255,248.5z M458.5,256c0,12.406-10.094,22.5-22.5,22.5s-22.5-10.094-22.5-22.5     s10.094-22.5,22.5-22.5S458.5,243.594,458.5,256z"/><path style="fill:#283954;" d="M188.5,263.5c4.143,0,7.5-3.357,7.5-7.5s-3.357-7.5-7.5-7.5h-83.044     c-3.652-25.407-25.554-45-51.956-45C24.552,203.5,1,227.052,1,256s23.552,52.5,52.5,52.5c26.401,0,48.304-19.593,51.956-45H188.5     z M53.5,293.5C32.822,293.5,16,276.678,16,256s16.822-37.5,37.5-37.5S91,235.322,91,256S74.178,293.5,53.5,293.5z"/><path style="fill:#283954;" d="M309.034,213.573l135.75-135.75c2.929-2.93,2.929-7.678,0-10.607     c-2.93-2.928-7.678-2.928-10.607,0l-135.75,135.75c-2.929,2.93-2.929,7.678,0,10.607     C301.356,216.501,306.104,216.502,309.034,213.573z"/><path style="fill:#283954;" d="M181.191,83.33C190.183,76.473,196,65.655,196,53.5c0-20.678-16.822-37.5-37.5-37.5     S121,32.822,121,53.5c0,24.326,22.972,42.35,46.686,36.358l52.266,108.565c1.797,3.732,6.278,5.302,10.011,3.505     c3.732-1.797,5.302-6.279,3.505-10.011L181.191,83.33z M136,53.5c0-12.406,10.094-22.5,22.5-22.5S181,41.094,181,53.5     S170.906,76,158.5,76S136,65.906,136,53.5z"/><path style="fill:#283954;" d="M224.853,307.299c-3.54-2.147-8.153-1.022-10.304,2.519l-73,120.23     c-2.149,3.541-1.021,8.153,2.519,10.304c3.537,2.146,8.151,1.027,10.304-2.519l73-120.23     C229.521,314.062,228.393,309.449,224.853,307.299z"/></g><g><path style="fill:#3A98FF;" d="M256,181c-41.355,0-75,33.645-75,75s33.645,75,75,75s75-33.645,75-75S297.355,181,256,181z      M256,316c-33.084,0-60-26.916-60-60s26.916-60,60-60s60,26.916,60,60S289.084,316,256,316z"/><path style="fill:#3A98FF;" d="M466,1c-24.813,0-45,20.187-45,45s20.187,45,45,45s45-20.187,45-45S490.813,1,466,1z M466,76     c-16.542,0-30-13.458-30-30s13.458-30,30-30s30,13.458,30,30S482.542,76,466,76z"/><path style="fill:#3A98FF;" d="M128.5,421c-24.813,0-45,20.187-45,45s20.187,45,45,45s45-20.187,45-45S153.313,421,128.5,421z      M128.5,496c-16.542,0-30-13.458-30-30s13.458-30,30-30s30,13.458,30,30S145.042,496,128.5,496z"/></g></g></g><g id="Layer_1"/></svg>