<svg width="160" height="160" viewBox="0 0 160 160" fill="none" xmlns="http://www.w3.org/2000/svg">
<path d="M80 61.5385C83.8194 61.5365 87.5454 62.7191 90.6645 64.9234C93.7836 67.1277 96.1423 70.2452 97.4154 73.8462H153.846C155.478 73.8462 157.044 74.4945 158.198 75.6486C159.352 76.8026 160 78.3679 160 80C160 81.6321 159.352 83.1974 158.198 84.3514C157.044 85.5055 155.478 86.1538 153.846 86.1538H97.4031C95.5569 91.3969 91.3969 95.5569 86.1662 97.4031L86.1539 153.846C86.1539 155.478 85.5055 157.044 84.3514 158.198C83.1974 159.352 81.6321 160 80 160C78.3679 160 76.8026 159.352 75.6486 158.198C74.4945 157.044 73.8462 155.478 73.8462 153.846V97.4154C69.7333 95.9686 66.2653 93.1129 64.0562 89.3541C61.8471 85.5953 61.0396 81.176 61.7767 76.8789C62.5138 72.5818 64.7478 68.6842 68.0833 65.8764C71.4187 63.0687 75.6401 61.532 80 61.5385ZM153.846 0C155.478 0 157.044 0.648351 158.198 1.80242C159.352 2.95649 160 4.52174 160 6.15385C160 7.78595 159.352 9.3512 158.198 10.5053C157.044 11.6593 155.478 12.3077 153.846 12.3077H80C62.0469 12.3077 44.8291 19.4395 32.1343 32.1343C19.4395 44.8291 12.3077 62.0469 12.3077 80V153.846C12.3077 155.478 11.6593 157.044 10.5053 158.198C9.3512 159.352 7.78595 160 6.15385 160C4.52174 160 2.95649 159.352 1.80242 158.198C0.64835 157.044 0 155.478 0 153.846V80C0 58.7827 8.42855 38.4344 23.4315 23.4315C38.4344 8.42855 58.7827 0 80 0H153.846ZM80 73.8462C78.3679 73.8462 76.8026 74.4945 75.6486 75.6486C74.4945 76.8026 73.8462 78.3679 73.8462 80C73.8462 81.6321 74.4945 83.1974 75.6486 84.3514C76.8026 85.5055 78.3679 86.1538 80 86.1538C81.6321 86.1538 83.1974 85.5055 84.3514 84.3514C85.5055 83.1974 86.1539 81.6321 86.1539 80C86.1539 78.3679 85.5055 76.8026 84.3514 75.6486C83.1974 74.4945 81.6321 73.8462 80 73.8462Z" fill="white"/>
</svg>
