<?xml version="1.0" standalone="no"?><!DOCTYPE svg PUBLIC "-//W3C//DTD SVG 1.1//EN" "http://www.w3.org/Graphics/SVG/1.1/DTD/svg11.dtd"><svg t="1754831892156" class="icon" viewBox="0 0 1024 1024" version="1.1" xmlns="http://www.w3.org/2000/svg" p-id="1955" xmlns:xlink="http://www.w3.org/1999/xlink" width="200" height="200"><path d="M42.664229 915.0464a42.613029 42.613029 0 0 1-42.6496-42.671543V100.264229a42.613029 42.613029 0 0 1 42.642285-42.671543 42.613029 42.613029 0 0 1 42.6496 42.671543V872.374857a42.613029 42.613029 0 0 1-42.642285 42.671543z m938.232685 53.343086a42.613029 42.613029 0 0 1-42.642285-42.671543V153.6a42.613029 42.613029 0 0 1 42.642285-42.678857 42.613029 42.613029 0 0 1 42.642286 42.678857v772.110629a42.613029 42.613029 0 0 1-42.642286 42.671542z m-654.767543-12.8a42.569143 42.569143 0 0 1-52.238628 30.134857L31.597714 918.784a42.605714 42.605714 0 0 1-30.120228-52.2752 42.569143 42.569143 0 0 1 52.245943-30.134857L296.009143 903.314286a42.605714 42.605714 0 0 1 30.120228 52.2752z m355.708343-97.214172c3.064686 23.332571-13.326629 44.807314-36.651885 47.872L296.411429 987.062857c-23.325257 3.064686-44.778057-13.341257-47.842743-36.673828-3.072-23.332571 13.326629-44.807314 36.644571-47.872l348.7744-80.815543c23.325257-3.072 44.785371 13.333943 47.850057 36.673828z m339.573029 85.211429c-7.328914 22.403657-31.451429 34.538057-53.840457 27.209143L631.727543 904.777143c-22.389029-7.336229-34.523429-31.473371-27.1872-53.877029 7.328914-22.403657 31.451429-34.538057 53.833143-27.209143l335.850057 66.011429c22.389029 7.336229 34.523429 31.473371 27.1872 53.877029zM326.531657 178.146743a42.569143 42.569143 0 0 1-52.245943 30.134857L32 141.333943a42.605714 42.605714 0 0 1-30.120229-52.2752A42.569143 42.569143 0 0 1 54.125714 58.923886l242.285715 66.940343a42.605714 42.605714 0 0 1 30.120228 52.2752z m355.84-97.221486c3.064686 23.332571-13.333943 44.807314-36.651886 47.872L296.945371 209.6128c-23.325257 3.072-44.778057-13.333943-47.842742-36.673829-3.072-23.332571 13.326629-44.807314 36.644571-47.872L634.389943 44.251429c23.456914-3.064686 44.909714 13.341257 47.981714 36.673828z m339.441372 85.211429c-7.328914 22.403657-31.451429 34.538057-53.840458 27.209143l-335.850057-66.011429c-22.381714-7.336229-34.516114-31.473371-27.1872-53.877029 7.328914-22.403657 31.451429-34.538057 53.840457-27.209142l335.850058 66.018742c22.381714 7.328914 34.647771 31.466057 27.1872 53.869715z m-598.791315 489.545143c0 47.133257 38.180571 85.343086 85.291886 85.343085 47.104 0 85.291886-38.209829 85.291886-85.3504 0-47.133257-38.180571-85.343086-85.284572-85.343085-47.111314 0-85.2992 38.209829-85.2992 85.343085zM164.205714 444.5696c0 46.789486 24.941714 90.016914 65.4336 113.408a130.801371 130.801371 0 0 0 130.874515 0 130.9696 130.9696 0 0 0 65.440914-113.408c0-72.323657-58.594743-130.947657-130.874514-130.947657-72.279771 0-130.874514 58.624-130.874515 130.947657z m352.906972-173.6192a42.656914 42.656914 0 0 0 42.642285 42.671543c23.552 0 42.6496-19.104914 42.6496-42.671543a42.656914 42.656914 0 0 0-42.642285-42.678857 42.656914 42.656914 0 0 0-42.6496 42.678857z m42.642285 173.6192a42.656914 42.656914 0 0 0 42.6496 42.678857c23.552 0 42.642286-19.104914 42.642286-42.678857a42.656914 42.656914 0 0 0-42.642286-42.671543 42.656914 42.656914 0 0 0-42.642285 42.671543z m124.2112 125.754514c0 47.133257 38.187886 85.343086 85.291886 85.343086 47.104 0 85.2992-38.209829 85.2992-85.343086 0-47.133257-38.187886-85.343086-85.2992-85.343085-47.104 0-85.284571 38.209829-85.284571 85.343085z" fill="#333333" p-id="1956"></path></svg>