<svg width="200" height="200" viewBox="0 0 200 200" fill="none" xmlns="http://www.w3.org/2000/svg">
<path d="M138.776 11H26.8984C22.6819 11 18.6381 12.675 15.6565 15.6565C12.675 18.6381 11 22.6819 11 26.8984V141.322C11 145.539 12.675 149.582 15.6565 152.564C18.6381 155.545 22.6819 157.221 26.8984 157.221H138.776C142.993 157.221 147.037 155.545 150.018 152.564C153 149.582 154.675 145.539 154.675 141.322V26.9006C154.675 24.8126 154.264 22.745 153.465 20.8159C152.666 18.8867 151.495 17.1338 150.019 15.6573C148.542 14.1808 146.79 13.0095 144.861 12.2104C142.932 11.4113 140.864 11 138.776 11ZM132.838 144.203H32.8389C30.4993 144.203 28.2555 143.274 26.6011 141.619C24.9468 139.965 24.0174 137.721 24.0174 135.382V32.841C24.0171 31.6824 24.2451 30.535 24.6883 29.4645C25.1315 28.394 25.7812 27.4213 26.6004 26.6019C27.4196 25.7825 28.3921 25.1325 29.4625 24.6891C30.5329 24.2456 31.6802 24.0174 32.8389 24.0174H132.838C133.997 24.0174 135.144 24.2456 136.214 24.6891C137.285 25.1325 138.257 25.7825 139.076 26.6019C139.896 27.4213 140.545 28.394 140.988 29.4645C141.432 30.535 141.66 31.6824 141.659 32.841V135.384C141.659 137.723 140.73 139.967 139.076 141.622C137.421 143.276 135.177 144.205 132.838 144.205V144.203Z" fill="black"/>
<path d="M188.811 126.758L189.039 126.526L188.811 126.292V54.9012C188.811 51.5312 187.472 48.2992 185.09 45.9152C182.708 43.5312 179.477 42.1902 176.107 42.1868H154.354V74.5809L175.51 96.0803L175.777 95.8096V113.047L154.354 91.2764V111.27L175.777 133.04V148.232L154.354 126.461V146.455L175.777 168.225C175.777 170.031 175.059 171.763 173.782 173.041C172.505 174.318 170.772 175.035 168.966 175.035H167.161L148.998 156.578H129.325L147.488 175.035H131.751L113.588 156.578H93.9146L112.084 175.035H99.29L81.1293 156.578H61.4539L79.6168 175.035H64.9C63.0937 175.035 61.3614 174.318 60.0842 173.041C58.807 171.763 58.0895 170.031 58.0895 168.225V156.578H45.0527V175.568C45.0539 178.94 46.3942 182.174 48.7789 184.557C51.1636 186.941 54.3974 188.281 57.7693 188.281H176.107C179.479 188.28 182.713 186.94 185.097 184.556C187.482 182.172 188.821 178.938 188.822 175.566V161.507L188.835 161.492L188.822 161.479L188.811 126.758ZM175.777 76.3469L155.188 55.4254H168.966C170.772 55.4254 172.505 56.143 173.782 57.4202C175.059 58.6974 175.777 60.4297 175.777 62.236V76.3469Z" fill="black"/>
</svg>
