<?xml version="1.0" standalone="no"?><!DOCTYPE svg PUBLIC "-//W3C//DTD SVG 1.1//EN" "http://www.w3.org/Graphics/SVG/1.1/DTD/svg11.dtd"><svg class="icon" viewBox="0 0 1024 1024" version="1.1" xmlns="http://www.w3.org/2000/svg" xmlns:xlink="http://www.w3.org/1999/xlink" width="200" height="200"><path d="M84.450743 974.321371c0 23.434971-18.870857 42.364343-42.225372 42.364343C18.870857 1016.685714 0 997.756343 0 974.321371V42.364343C0 18.929371 18.870857 0 42.225371 0c23.354514 0 42.225371 18.929371 42.225372 42.364343v931.957028zM42.225371 1016.685714C18.870857 1016.685714 0 997.756343 0 974.321371c0-23.427657 18.870857-42.357029 42.225371-42.357028h939.549258c23.354514 0 42.225371 18.929371 42.225371 42.357028 0 23.434971-18.870857 42.364343-42.225371 42.364343H42.225371z m195.437715-277.6064a41.640229 41.640229 0 0 1-59.121372 0 41.962057 41.962057 0 0 1 0-59.304228l228.8128-229.544229a41.640229 41.640229 0 0 1 59.121372 0 41.962057 41.962057 0 0 1 0 59.304229l-228.820115 229.544228z m398.116571-61.293714a41.640229 41.640229 0 0 1-59.121371 0 41.962057 41.962057 0 0 1 0-59.304229l280.6784-281.570742a41.640229 41.640229 0 0 1 59.114057 0 41.962057 41.962057 0 0 1 0 59.304228L635.779657 677.792914z m-1.060571-59.172571a41.962057 41.962057 0 0 1 0 59.311542 41.640229 41.640229 0 0 1-59.114057 0l-167.855543-168.521142a41.962057 41.962057 0 0 1 0-59.311543 41.640229 41.640229 0 0 1 59.121371 0l167.848229 168.521143z" fill="#333333"></path></svg>
