<?xml version="1.0" encoding="UTF-8" standalone="no"?>
<svg
   width="190"
   height="190"
   version="1.1"
   viewBox="0,0,190,190"
   id="svg14"
   xmlns="http://www.w3.org/2000/svg">
  <!-- 上面的正方形（空心），并居中放置 -->
  <path
    fill="#000000"
    d="M0,0 H170 L160,10 H 10 L0,0 M170,0 V170 L160,160 V10 M170,170 H0 L10,160 H160,160 M0,170 V0 L10,10 V160 Z" />
  <!-- 字母 S 在上面正方形中间 -->
  <path
    d="m 50.371094,98.515625 10.722656,-0.9375 q 0.761719,6.445315 3.515625,10.605465 2.8125,4.10157 8.671875,6.67969 5.859375,2.51953 13.183594,2.51953 6.503906,0 11.484375,-1.93359 4.980471,-1.93359 7.382811,-5.27344 2.46094,-3.39844 2.46094,-7.38281 0,-4.04297 -2.34375,-7.031251 -2.34375,-3.046875 -7.734376,-5.097657 Q 94.257812,89.316406 82.421875,86.503906 70.585937,83.632812 65.839844,81.113281 59.6875,77.890625 56.640625,73.144531 53.652344,68.339844 53.652344,62.421875 q 0,-6.503906 3.691406,-12.128906 Q 61.035156,44.609375 68.125,41.679687 75.214844,38.75 83.886719,38.75 q 9.550781,0 16.816411,3.105469 7.32421,3.046875 11.25,9.023437 3.92578,5.976563 4.21875,13.535156 l -10.89844,0.820313 q -0.87891,-8.144531 -5.976565,-12.304688 -5.039063,-4.160156 -14.941406,-4.160156 -10.3125,0 -15.058594,3.808594 -4.6875,3.75 -4.6875,9.082031 0,4.628906 3.339844,7.617188 3.28125,2.988281 17.109375,6.152343 13.886718,3.105469 19.042966,5.449219 7.5,3.457031 11.07422,8.789063 3.57422,5.273437 3.57422,12.187501 0,6.85547 -3.92578,12.94922 -3.92578,6.03515 -11.30859,9.43359 -7.324224,3.33985 -16.523443,3.33985 -11.660156,0 -19.570312,-3.39844 -7.851563,-3.39844 -12.363281,-10.19531 -4.453125,-6.85547 -4.6875,-15.468755 z"
    id="text1"
    style="font-size:120px;font-family:Arial, sans-serif;dominant-baseline:middle;text-anchor:middle"
    aria-label="S" />
  <path
    fill="#000000"
    d="M20,190 V170 H30 V180 H180 L190,190 M190,20 H170 V30 H180 V180 L190,190 Z " />
</svg>
