<?xml version="1.0" standalone="no"?><!DOCTYPE svg PUBLIC "-//W3C//DTD SVG 1.1//EN" "http://www.w3.org/Graphics/SVG/1.1/DTD/svg11.dtd"><svg t="1754831922383" class="icon" viewBox="0 0 1024 1024" version="1.1" xmlns="http://www.w3.org/2000/svg" p-id="2591" xmlns:xlink="http://www.w3.org/1999/xlink" width="200" height="200"><path d="M84.450743 981.635657c0 23.434971-18.870857 42.364343-42.225372 42.364343C18.870857 1024 0 1005.070629 0 981.635657V49.678629C0 26.243657 18.870857 7.314286 42.225371 7.314286c23.354514 0 42.225371 18.929371 42.225372 42.364343v931.957028zM42.225371 1024C18.870857 1024 0 1005.070629 0 981.635657c0-23.427657 18.870857-42.357029 42.225371-42.357028h939.549258c23.354514 0 42.225371 18.929371 42.225371 42.357028 0 23.434971-18.870857 42.364343-42.225371 42.364343H42.225371z m241.620115-214.059886c0 23.164343-18.7392 41.962057-41.837715 41.962057-23.0912 0-41.823086-18.797714-41.823085-41.962057V485.207771c0-23.164343 18.731886-41.962057 41.8304-41.962057 23.0912 0 41.8304 18.797714 41.8304 41.962057v324.732343z m200.177371 0c0 23.164343-18.7392 41.962057-41.8304 41.962057-23.0912 0-41.8304-18.797714-41.8304-41.962057V350.178743c0-23.164343 18.7392-41.962057 41.837714-41.962057 23.083886 0 41.823086 18.797714 41.823086 41.962057v459.761371z m400.493714 0c0 23.164343-18.731886 41.962057-41.8304 41.962057-23.0912 0-41.8304-18.797714-41.8304-41.962057V148.297143c0-23.164343 18.7392-41.962057 41.837715-41.962057 23.0912 0 41.823086 18.797714 41.823085 41.962057v661.642971z m-200.309028 0c0 23.164343-18.7392 41.962057-41.837714 41.962057-23.083886 0-41.823086-18.797714-41.823086-41.962057V681.2672c0-23.171657 18.7392-41.969371 41.8304-41.969371 23.0912 0 41.8304 18.797714 41.8304 41.969371v128.672914z" fill="#333333" p-id="2592"></path></svg>