<?xml version="1.0" standalone="no"?><!DOCTYPE svg PUBLIC "-//W3C//DTD SVG 1.1//EN" "http://www.w3.org/Graphics/SVG/1.1/DTD/svg11.dtd"><svg t="1754831900930" class="icon" viewBox="0 0 1024 1024" version="1.1" xmlns="http://www.w3.org/2000/svg" p-id="2153" xmlns:xlink="http://www.w3.org/1999/xlink" width="200" height="200"><path d="M527.228343 593.488457c-5.12 0.9216-10.371657 1.448229-15.754972 1.448229-6.955886 0-13.648457-0.789943-19.953371-2.362515l-81.656686 249.1392 219.765029-99.818057-102.4-148.406857zM363.52 848.018286l90.455771-275.924115a84.392229 84.392229 0 0 1-19.697371-28.1088l-252.847543 69.215086L363.52 848.010971z m170.276571-418.157715c5.376 1.440914 10.496 3.415771 15.36 5.909943L644.322743 354.596571 533.796571 186.624v243.229257zM181.423543 569.709714l246.418286-67.503543c0.526629-5.514971 1.704229-10.898286 3.284114-16.018285l-234.861714-155.501715-14.840686 239.030858z m519.753143-208.420571L974.628571 605.184l39.643429 6.2976A519.533714 519.533714 0 0 0 1024 511.802514c0-125.952-45.421714-241.2544-120.7808-330.430171L701.176686 361.296457z m182.345143 218.9312L668.884114 388.878629 580.922514 463.864686a85.650286 85.650286 0 0 1 13.919086 37.302857l288.687543 79.060114z m-391.753143-151.032686V154.975086L204.551314 285.769143l248.641829 164.695771a84.150857 84.150857 0 0 1 38.597486-21.277257z m161.879771 347.896686l-261.646628 118.857143-25.073372 107.168914A512.833829 512.833829 0 0 0 511.868343 1024c97.674971 0 188.913371-27.318857 266.503314-74.730057l-124.715886-172.178286z m38.597486-18.117486l121.168457 167.058286c83.104914-60.679314 147.3024-145.788343 181.957486-244.809143l-303.125943 77.750857z m-344.619886 137.237943L137.450057 625.276343l-115.397486 35.986286c45.816686 150.637714 159.246629 271.857371 304.837486 328.330971l20.743314-93.381486zM138.503314 581.412571l17.4592-277.504-84.545828-53.189485C25.994971 327.146057 0 416.453486 0 511.802514c0 37.302857 3.935086 73.808457 11.556571 108.873143l126.946743-39.263086z m808.565029 59.757715L589.063314 543.063771a84.041143 84.041143 0 0 1-23.5008 32.036572l101.4784 147.229257 280.027429-81.166629zM533.796571 110.058057L676.629943 327.021714l198.231771-176.64C786.907429 61.981257 666.916571 5.639314 533.920914 0v110.058057h-0.131657zM163.181714 258.464914l328.6016-149.723428V0C327.68 6.304914 183.530057 89.965714 94.2592 215.383771l68.922514 43.081143z" fill="#333333" p-id="2154"></path></svg>