<?xml version="1.0" encoding="UTF-8"?>
<svg    width="180"   height="180" viewBox="0 0 180 180"  xmlns="http://www.w3.org/2000/svg">
  <path  fill="#000000" d="M0 0 H180 L160 20 H20 V160 L0 180 Z M180 180 H0 L20 160 H160 V20 L180 0 Z" />
  <path
    d="M 63.769531,136.11328 V 50.214844 h 32.226563 q 9.843746,0 15.761716,2.636718 5.97657,2.578125 9.31641,8.027344 3.39844,5.390625 3.39844,11.308594 0,5.507812 -2.98828,10.371094 -2.98829,4.863281 -9.02344,7.851562 7.79297,2.285156 11.95312,7.792969 4.21875,5.507815 4.21875,13.007815 0,6.03515 -2.57812,11.25 -2.51953,5.15625 -6.26953,7.96875 -3.75,2.8125 -9.4336,4.27734 -5.625,1.40625 -13.828123,1.40625 z M 75.136719,86.308594 h 18.574218 q 7.558593,0 10.839843,-0.996094 4.33594,-1.289063 6.50391,-4.277344 2.22656,-2.988281 2.22656,-7.5 0,-4.277344 -2.05078,-7.5 -2.05078,-3.28125 -5.85938,-4.453125 -3.80859,-1.230469 -13.066403,-1.230469 H 75.136719 Z m 0,39.667966 h 21.386718 q 5.507813,0 7.734373,-0.41015 3.92578,-0.70313 6.5625,-2.34375 2.63672,-1.64063 4.33594,-4.7461 1.69922,-3.16406 1.69922,-7.26562 0,-4.80469 -2.46094,-8.32031 -2.46094,-3.574224 -6.85547,-4.980474 Q 103.20313,96.445312 95,96.445312 H 75.136719 Z"
    id="text1"
    style="font-size:120px;font-family:Arial, sans-serif;dominant-baseline:middle;text-anchor:middle"
    aria-label="B" />
</svg>
