<?xml version="1.0" standalone="no"?><!DOCTYPE svg PUBLIC "-//W3C//DTD SVG 1.1//EN" "http://www.w3.org/Graphics/SVG/1.1/DTD/svg11.dtd"><svg t="1754831825008" class="icon" viewBox="0 0 1024 1024" version="1.1" xmlns="http://www.w3.org/2000/svg" p-id="1264" xmlns:xlink="http://www.w3.org/1999/xlink" width="200" height="200"><path d="M481.440914 512.599771h-0.928914V0C212.297143 16.413257 0 239.147886 0 511.531886 0 794.594743 229.376 1024 512.402286 1024c142.109257 0 270.7456-57.921829 363.615085-151.332571L481.440914 512.592457z m378.1632-365.399771l8.009143-8.009143C783.945143 59.655314 676.125257 11.337143 563.104914 0.402286V407.04l296.4992-259.84z m61.915429 59.253029l-340.801829 298.276571 344.137143 312.151771a362.261943 362.261943 0 0 0 11.607772-16.420571C991.707429 718.657829 1024 620.032 1024 513.938286a510.529829 510.529829 0 0 0-102.473143-307.485257z" fill="#333333" p-id="1265"></path></svg>