<svg width="160" height="160" viewBox="0 0 160 160" fill="none" xmlns="http://www.w3.org/2000/svg">
<path d="M146.286 160H13.7141C6.14381 160 6.10352e-05 153.488 6.10352e-05 145.454V14.5459C6.10352e-05 6.51195 6.14381 0 13.7143 0H146.286C153.856 0 160 6.51195 160 14.5457V145.454C160 153.488 153.856 160 146.286 160ZM150.857 19.3942C150.857 14.0413 146.761 9.69792 141.714 9.69792H18.2855C13.2386 9.69792 9.14333 14.0413 9.14333 19.3942V140.606C9.14333 145.96 13.2386 150.303 18.2855 150.303H141.714C146.761 150.303 150.857 145.959 150.857 140.606V19.3942ZM137.143 140.606H114.285C111.757 140.606 109.714 138.44 109.714 135.758C109.714 133.082 111.757 130.909 114.285 130.909H132.572V111.516C132.572 108.839 134.615 106.666 137.143 106.666C139.67 106.666 141.714 108.839 141.714 111.516V135.757C141.714 138.439 139.67 140.606 137.143 140.606ZM137.143 53.3339C134.615 53.3339 132.572 51.1669 132.572 48.4846V29.0913H114.285C111.757 29.0913 109.714 26.9243 109.714 24.2431C109.714 21.5663 111.757 19.3938 114.285 19.3938H137.143C139.67 19.3938 141.714 21.5659 141.714 24.2431V48.4846C141.714 51.1669 139.67 53.3339 137.143 53.3339ZM45.7141 140.607H22.8574C20.3296 140.607 18.2852 138.44 18.2852 135.757V111.516C18.2852 108.839 20.3296 106.666 22.8574 106.666C25.3854 106.666 27.4285 108.839 27.4285 111.516V130.909H45.7136C48.2422 130.909 50.2858 133.081 50.2858 135.757C50.2861 138.439 48.2427 140.607 45.7141 140.607ZM45.7141 29.0913H27.4288V48.4846C27.4288 51.1669 25.3857 53.3339 22.8577 53.3339C20.3299 53.3339 18.2855 51.1669 18.2855 48.4846V24.2431C18.2855 21.5663 20.3299 19.3938 22.8577 19.3938H45.7141C48.2427 19.3938 50.2863 21.5659 50.2863 24.2431C50.286 26.9243 48.2428 29.0913 45.7141 29.0913Z" fill="white"/>
<path d="M79.6105 56.279C80.0154 55.6527 80.5721 55.1375 81.2296 54.7806C81.887 54.4238 82.6241 54.2368 83.3731 54.2368C84.1222 54.2368 84.8593 54.4238 85.5167 54.7806C86.1742 55.1375 86.7309 55.6527 87.1358 56.279L93.6116 66.2997C94.2172 67.2365 95.1546 67.9132 96.2382 68.196L107.827 71.2183C108.552 71.4073 109.217 71.7742 109.762 72.2854C110.307 72.7966 110.714 73.4357 110.946 74.144C111.177 74.8522 111.226 75.6069 111.087 76.3387C110.949 77.0706 110.627 77.7561 110.153 78.3323L102.568 87.5501C101.858 88.412 101.499 89.5075 101.563 90.6197L102.249 102.51C102.291 103.253 102.146 103.995 101.825 104.667C101.504 105.34 101.018 105.922 100.412 106.359C99.8059 106.796 99.0991 107.075 98.3563 107.171C97.6136 107.266 96.8586 107.174 96.1607 106.904L84.9951 102.581C83.951 102.177 82.7923 102.177 81.7482 102.581L70.5826 106.907C69.8845 107.177 69.1292 107.269 68.3862 107.174C67.6431 107.078 66.9361 106.799 66.33 106.361C65.724 105.923 65.2383 105.341 64.9175 104.669C64.5968 103.996 64.4513 103.253 64.4944 102.51L65.1801 90.6197C65.245 89.5079 64.8875 88.4125 64.1784 87.5501L56.5905 78.3353C56.1159 77.7591 55.7945 77.0735 55.656 76.3417C55.5175 75.6099 55.5662 74.8552 55.7978 74.1469C56.0293 73.4387 56.4362 72.7996 56.981 72.2884C57.5259 71.7772 58.1913 71.4102 58.9161 71.2212L70.5051 68.196C71.5887 67.9132 72.5261 67.2365 73.1318 66.2997L79.6105 56.279Z" fill="white"/>
</svg>
