<?xml version="1.0" encoding="UTF-8" standalone="no"?>
<svg
   width="170"
   height="170"
   version="1.1"
   id="svg1"
   viewBox="0,0,170,170"
   xmlns="http://www.w3.org/2000/svg">
  <!-- 正方形，边框较粗 -->
  <path  fill="#000000" d="M45,0 H140 V10 H45 M140,0 A45,45 0 0,1 170,45 H160 A35,35 0 0,0 125,10 M160,45 H170 V 125 H160 M170,125 A45,45 0 0,1 125,170 V160 A35,35 0 0,0 160,125 M125,170 H45 V160 H125 M45,170 A45,45 0 0,1 0,125 H10 A35,35 0 0,0 45,160 M0,125 V45 H10 V125 M0,45 A45,45 0 0,1 45,0 V10 A35,35 0 0,0 10,45 Z" />
  <!-- 居中的字母 R -->
  <path
    d="M 56.103516,131.11328 V 45.214844 h 38.085937 q 11.484377,0 17.460937,2.34375 5.97656,2.285156 9.55078,8.144531 3.57422,5.859375 3.57422,12.949219 0,9.140625 -5.91797,15.410156 -5.91797,6.269531 -18.28125,7.96875 4.51172,2.167969 6.85547,4.277344 4.98047,4.570316 9.43359,11.425786 l 14.94141,23.3789 h -14.29687 l -11.36719,-17.87109 q -4.98047,-7.73438 -8.203127,-11.83594 -3.222656,-4.101563 -5.800781,-5.742188 -2.519531,-1.640625 -5.15625,-2.285156 Q 85.048828,92.96875 80.654297,92.96875 H 67.470703 v 38.14453 z M 67.470703,83.125 h 24.433594 q 7.792969,0 12.187503,-1.582031 4.39453,-1.640625 6.67968,-5.15625 2.28516,-3.574219 2.28516,-7.734375 0,-6.09375 -4.45312,-10.019532 -4.39454,-3.925781 -13.945317,-3.925781 h -27.1875 z"
    id="text1"
    style="font-size:120px;font-family:Arial, sans-serif;dominant-baseline:middle;text-anchor:middle"
    aria-label="R" />
</svg>
