<svg xmlns="http://www.w3.org/2000/svg" xmlns:xlink="http://www.w3.org/1999/xlink" width="56.00000190734863" height="56.00154113769531" viewBox="0 0 56.00000190734863 56.00154113769531" fill="none"><path d="M3.5443 0C27.8564 0 28.1422 0 52.4543 0L52.0043 13C27.6922 13 27.8564 12.67 3.5443 12.67L3.5443 0Z" fill="#808080" fill-opacity="0.4"></path><path d="M3.5443 12.6715C27.8564 12.6715 27.6922 43.0015 52.0043 43.0015L52.0043 56.0015C27.6922 56.0015 27.8564 26.0015 3.5443 26.0015L3.5443 12.6715Z" fill="#808080" fill-opacity="0.4"></path><path d="M2.99544 29.9966C27.8055 29.9966 27.6454 15.9966 52.4554 15.9966L52.4554 39.9966C27.6454 39.9966 27.6455 55.1866 2.83544 55.1866L2.99544 29.9966Z" fill="#808080" fill-opacity="0.4"></path><path d="M0 0L4 0L4 26L0 26L0 0Z" fill="#808080" ></path><path d="M52 0L56 0L56 12.9988L52 12.9988L52 0Z" fill="#808080" ></path><path d="M52 43L56 43L56 55.9988L52 55.9988L52 43Z" fill="#808080" ></path><path d="M0 30L4 30L4 55L0 55L0 30Z" fill="#808080" ></path><path d="M52 16L56 16L56 40L52 40L52 16Z" fill="#808080" ></path></svg>
