<?xml version="1.0" standalone="no"?><!DOCTYPE svg PUBLIC "-//W3C//DTD SVG 1.1//EN" "http://www.w3.org/Graphics/SVG/1.1/DTD/svg11.dtd"><svg class="icon" viewBox="0 0 1024 1024" version="1.1" xmlns="http://www.w3.org/2000/svg" xmlns:xlink="http://www.w3.org/1999/xlink" width="200" height="200"><path d="M512 64C266.24 64 64 266.24 64 512s202.24 448 448 448 448-202.24 448-448S757.76 64 512 64zM256 512a64 64 0 1 1-64-64 64 64 0 0 1 64 64zM384 320a64 64 0 1 1-64-64 64 64 0 0 1 64 64zM320 704a64 64 0 1 1-64-64 64 64 0 0 1 64 64zM576 832a64 64 0 1 1-64-64 64 64 0 0 1 64 64zM768 768a64 64 0 1 1-64-64 64 64 0 0 1 64 64zM832 512a64 64 0 1 1-64-64 64 64 0 0 1 64 64zM768 256a64 64 0 1 1-64-64 64 64 0 0 1 64 64zM576 192a64 64 0 1 1-64-64 64 64 0 0 1 64 64z" fill="#333333"></path></svg>