<?xml version="1.0" standalone="no"?><!DOCTYPE svg PUBLIC "-//W3C//DTD SVG 1.1//EN" "http://www.w3.org/Graphics/SVG/1.1/DTD/svg11.dtd"><svg xmlns="http://www.w3.org/2000/svg" xmlns:xlink="http://www.w3.org/1999/xlink" width="200" height="200" viewBox="0 0 200 200" fill="none">
<path d="M89.9614 133.874C89.9614 143.08 97.4101 150.544 106.611 150.544C115.811 150.544 123.271 143.081 123.271 133.874C123.271 124.669 115.821 117.204 106.621 117.204C97.4199 117.204 89.9614 124.669 89.9614 133.874ZM38.2814 86.0243C38.2814 95.1628 43.1528 103.606 51.0614 108.174C51.303 108.314 51.5456 108.453 51.7914 108.584C52.0374 108.716 52.2814 108.841 52.5314 108.964C52.7816 109.088 53.0374 109.209 53.2914 109.324C53.5453 109.439 53.8038 109.547 54.0614 109.654C54.319 109.761 54.5704 109.866 54.8314 109.964C55.0924 110.063 55.3574 110.155 55.6214 110.244C55.8855 110.334 56.1546 110.423 56.4214 110.504C56.6884 110.585 56.9522 110.662 57.2214 110.734C57.4908 110.807 57.7598 110.871 58.0314 110.934C58.3029 110.998 58.5778 111.06 58.8514 111.114C59.1249 111.169 59.3962 111.219 59.6714 111.264C59.9466 111.31 60.2251 111.348 60.5014 111.384C60.7778 111.421 61.0539 111.457 61.3314 111.484C61.609 111.512 61.8931 111.526 62.1714 111.544C62.4498 111.563 62.7227 111.594 63.0014 111.594C63.2801 111.594 63.5625 111.604 63.8414 111.604C64.1201 111.604 64.4027 111.594 64.6814 111.594C64.9601 111.594 65.2331 111.563 65.5114 111.544C65.7897 111.526 66.0639 111.512 66.3414 111.484C66.619 111.457 66.9051 111.421 67.1814 111.384C67.4578 111.348 67.7262 111.31 68.0014 111.264C68.2766 111.219 68.558 111.169 68.8314 111.114C69.1051 111.06 69.3699 110.998 69.6414 110.934C69.9131 110.871 70.1921 110.807 70.4614 110.734C70.7308 110.662 70.9946 110.585 71.2614 110.504C71.5282 110.423 71.7974 110.334 72.0614 110.244C72.3255 110.155 72.5803 110.063 72.8414 109.964C73.1024 109.866 73.3638 109.761 73.6214 109.654C73.8791 109.547 74.1375 109.439 74.3914 109.324C74.6455 109.209 74.8912 109.088 75.1414 108.964C75.3914 108.841 75.6455 108.716 75.8914 108.584C76.1373 108.453 76.3798 108.314 76.6214 108.174C76.863 108.035 77.1045 107.892 77.3414 107.744C77.5783 107.597 77.8096 107.449 78.0414 107.294C78.2733 107.139 78.5047 106.977 78.7314 106.814C78.9582 106.652 79.1801 106.484 79.4014 106.314C79.6227 106.144 79.8458 105.971 80.0614 105.794C80.2769 105.617 80.4817 105.438 80.6914 105.254C80.901 105.07 81.1077 104.885 81.3114 104.694C81.515 104.503 81.7144 104.312 81.9114 104.114C82.1087 103.917 82.3108 103.708 82.5014 103.504C82.6921 103.301 82.8776 103.094 83.0614 102.884C83.2454 102.674 83.4247 102.47 83.6014 102.254C83.7784 102.038 83.9517 101.816 84.1214 101.594C84.2912 101.373 84.4591 101.151 84.6214 100.924C84.7839 100.698 84.9366 100.466 85.0914 100.234C85.2463 100.002 85.4042 99.7712 85.5514 99.5343C85.6987 99.2974 85.8422 99.0559 85.9814 98.8143C86.1209 98.5727 86.25 98.3304 86.3814 98.0843C86.5129 97.8382 86.648 97.5845 86.7714 97.3343C86.8947 97.0841 87.0064 96.8384 87.1214 96.5843C87.2365 96.3302 87.3548 96.0721 87.4614 95.8143C87.5683 95.5567 87.6632 95.2954 87.7614 95.0343C87.8597 94.7732 87.9618 94.5085 88.0514 94.2443C88.1411 93.98 88.2204 93.7213 88.3014 93.4543C88.3823 93.1873 88.4594 92.9136 88.5314 92.6443C88.6037 92.3748 88.6682 92.106 88.7314 91.8343C88.7947 91.5626 88.8569 91.2879 88.9114 91.0143C88.9657 90.7407 89.0159 90.4695 89.0614 90.1943C89.1069 89.9191 89.1451 89.6409 89.1814 89.3643C89.218 89.0875 89.2541 88.8118 89.2814 88.5343C89.3086 88.2567 89.3333 87.9726 89.3514 87.6943C89.3696 87.416 89.3914 87.143 89.3914 86.8643C89.3914 86.5854 89.4014 86.3032 89.4014 86.0243C89.4014 71.8985 77.9586 60.4543 63.8414 60.4543C49.7242 60.4543 38.2814 71.8985 38.2814 86.0243ZM107.211 52.1143C107.211 52.2508 107.221 52.3882 107.221 52.5243C107.221 52.6605 107.238 52.7985 107.251 52.9343C107.265 53.07 107.282 53.1994 107.301 53.3343C107.322 53.4692 107.335 53.6106 107.361 53.7443C107.388 53.878 107.418 54.012 107.451 54.1443C107.485 54.2766 107.522 54.4038 107.561 54.5343C107.601 54.6648 107.646 54.7959 107.691 54.9243C107.737 55.0527 107.789 55.1783 107.841 55.3043C107.894 55.4302 107.943 55.551 108.001 55.6743C108.06 55.7976 108.127 55.9241 108.191 56.0443C108.256 56.1646 108.321 56.2872 108.391 56.4043C108.462 56.5212 108.536 56.6309 108.611 56.7443C108.687 56.8577 108.76 56.9748 108.841 57.0843C108.922 57.1938 109.005 57.2988 109.091 57.4043C109.178 57.5098 109.27 57.6133 109.361 57.7143C109.453 57.8153 109.545 57.9078 109.641 58.0043C109.738 58.1006 109.84 58.2026 109.941 58.2943C110.042 58.3858 110.146 58.4677 110.251 58.5543C110.357 58.6409 110.462 58.733 110.571 58.8143C110.681 58.8955 110.798 58.9685 110.911 59.0443C111.025 59.1201 111.134 59.1941 111.251 59.2643C111.368 59.3343 111.491 59.4 111.611 59.4643C111.732 59.5286 111.848 59.5959 111.971 59.6543C112.095 59.7126 112.225 59.7621 112.351 59.8143C112.477 59.8665 112.603 59.9183 112.731 59.9643C112.86 60.0104 112.991 60.0547 113.121 60.0943C113.252 60.1339 113.379 60.1711 113.511 60.2043C113.644 60.2375 113.778 60.2677 113.911 60.2943C114.045 60.321 114.176 60.3442 114.311 60.3643C114.446 60.3843 114.586 60.4009 114.721 60.4143C114.857 60.4277 114.995 60.4443 115.131 60.4443C115.268 60.4443 115.395 60.4543 115.531 60.4543C120.131 60.4543 123.861 56.7172 123.861 52.1143C123.861 51.978 123.851 51.8405 123.851 51.7043C123.851 51.5681 123.835 51.44 123.821 51.3043C123.808 51.1685 123.791 51.0292 123.771 50.8943C123.752 50.7594 123.728 50.628 123.701 50.4943C123.675 50.3606 123.654 50.2266 123.621 50.0943C123.588 49.962 123.551 49.8249 123.511 49.6943C123.472 49.5638 123.427 49.4327 123.381 49.3043C123.336 49.1759 123.284 49.0503 123.231 48.9243C123.179 48.7983 123.13 48.6776 123.071 48.5543C123.013 48.431 122.946 48.3046 122.881 48.1843C122.817 48.0641 122.752 47.9513 122.681 47.8343C122.611 47.7174 122.537 47.5977 122.461 47.4843C122.386 47.3708 122.313 47.2638 122.231 47.1543C122.15 47.0448 122.068 46.9398 121.981 46.8343C121.895 46.7288 121.803 46.6253 121.711 46.5243C121.62 46.4231 121.528 46.3208 121.431 46.2243C121.335 46.1279 121.232 46.0359 121.131 45.9443C121.03 45.8526 120.927 45.7607 120.821 45.6743C120.716 45.5877 120.611 45.5055 120.501 45.4243C120.392 45.3429 120.275 45.2601 120.161 45.1843C120.048 45.1085 119.938 45.0345 119.821 44.9643C119.704 44.8941 119.582 44.8286 119.461 44.7643C119.341 44.7 119.225 44.6426 119.101 44.5843C118.978 44.526 118.847 44.4665 118.721 44.4143C118.595 44.3621 118.47 44.3103 118.341 44.2643C118.213 44.2182 118.082 44.1839 117.951 44.1443C117.821 44.1047 117.694 44.0675 117.561 44.0343C117.429 44.0011 117.295 43.971 117.161 43.9443C117.028 43.9177 116.896 43.8945 116.761 43.8743C116.626 43.8542 116.487 43.8377 116.351 43.8243C116.216 43.8109 116.078 43.7943 115.941 43.7943C115.805 43.7943 115.678 43.7843 115.541 43.7843C115.405 43.7843 115.268 43.7943 115.131 43.7943C114.995 43.7943 114.857 43.8109 114.721 43.8243C114.586 43.8377 114.446 43.8542 114.311 43.8743C114.176 43.8942 114.045 43.9176 113.911 43.9443C113.778 43.971 113.644 44.0012 113.511 44.0343C113.379 44.0675 113.252 44.1047 113.121 44.1443C112.991 44.184 112.86 44.2183 112.731 44.2643C112.603 44.3103 112.477 44.3621 112.351 44.4143C112.225 44.4665 112.095 44.526 111.971 44.5843C111.848 44.6426 111.732 44.7 111.611 44.7643C111.491 44.8286 111.368 44.8941 111.251 44.9643C111.134 45.0343 111.025 45.1084 110.911 45.1843C110.798 45.2601 110.681 45.343 110.571 45.4243C110.462 45.5055 110.357 45.5877 110.251 45.6743C110.146 45.7609 110.042 45.8527 109.941 45.9443C109.84 46.0359 109.738 46.1278 109.641 46.2243C109.545 46.3208 109.453 46.4233 109.361 46.5243C109.27 46.6253 109.178 46.7188 109.091 46.8243C109.005 46.9298 108.922 47.0447 108.841 47.1543C108.76 47.2638 108.687 47.3709 108.611 47.4843C108.536 47.5977 108.462 47.7172 108.391 47.8343C108.321 47.9513 108.256 48.0641 108.191 48.1843C108.127 48.3046 108.06 48.431 108.001 48.5543C107.943 48.6776 107.894 48.7983 107.841 48.9243C107.789 49.0503 107.737 49.1759 107.691 49.3043C107.646 49.4328 107.601 49.5638 107.561 49.6943C107.522 49.8249 107.484 49.962 107.451 50.0943C107.418 50.2266 107.388 50.3606 107.361 50.4943C107.335 50.6281 107.311 50.7594 107.291 50.8943C107.272 51.0292 107.265 51.1686 107.251 51.3043C107.238 51.4401 107.221 51.5681 107.221 51.7043C107.221 51.8405 107.211 51.978 107.211 52.1143ZM115.531 86.0243C115.531 86.1606 115.541 86.2982 115.541 86.4343C115.541 86.5704 115.558 86.7085 115.571 86.8443C115.585 86.98 115.601 87.1093 115.621 87.2443C115.641 87.3792 115.665 87.5205 115.691 87.6543C115.718 87.7881 115.748 87.9221 115.781 88.0543C115.814 88.1865 115.852 88.3136 115.891 88.4443C115.931 88.5748 115.976 88.7058 116.021 88.8343C116.067 88.9626 116.119 89.0883 116.171 89.2143C116.224 89.3403 116.273 89.471 116.331 89.5943C116.39 89.7175 116.457 89.834 116.521 89.9543C116.586 90.0744 116.651 90.1973 116.721 90.3143C116.792 90.4313 116.866 90.5408 116.941 90.6543C117.017 90.7678 117.09 90.8847 117.171 90.9943C117.253 91.1039 117.335 91.2088 117.421 91.3143C117.508 91.4198 117.6 91.5233 117.691 91.6243C117.783 91.7253 117.875 91.8278 117.971 91.9243C118.068 92.0208 118.17 92.1127 118.271 92.2043C118.372 92.2959 118.476 92.3878 118.581 92.4743C118.687 92.5608 118.792 92.643 118.901 92.7243C119.011 92.8055 119.118 92.8785 119.231 92.9543C119.345 93.0303 119.464 93.1042 119.581 93.1743C119.698 93.2444 119.821 93.31 119.941 93.3743C120.062 93.4385 120.178 93.5059 120.301 93.5643C120.425 93.6227 120.555 93.6721 120.681 93.7243C120.807 93.7764 120.933 93.8284 121.061 93.8743C121.19 93.9202 121.321 93.9646 121.451 94.0043C121.582 94.0439 121.709 94.0811 121.841 94.1143C121.974 94.1475 122.108 94.1777 122.241 94.2043C122.375 94.231 122.506 94.2542 122.641 94.2743C122.776 94.2942 122.916 94.3108 123.051 94.3243C123.187 94.3378 123.325 94.3543 123.461 94.3543C123.598 94.3543 123.725 94.3643 123.861 94.3643C128.461 94.3643 132.191 90.6286 132.191 86.0243C132.191 85.8878 132.181 85.7504 132.181 85.6143C132.181 85.4781 132.165 85.35 132.151 85.2143C132.138 85.0785 132.122 84.9392 132.101 84.8043C132.082 84.6693 132.058 84.5381 132.031 84.4043C132.005 84.2705 131.974 84.1365 131.941 84.0043C131.908 83.8721 131.871 83.735 131.831 83.6043C131.792 83.4738 131.757 83.3526 131.711 83.2243C131.666 83.096 131.614 82.9603 131.561 82.8343C131.509 82.7083 131.45 82.5875 131.391 82.4643C131.333 82.341 131.276 82.2144 131.211 82.0943C131.147 81.974 131.082 81.8613 131.011 81.7443C130.941 81.6273 130.867 81.5078 130.791 81.3943C130.716 81.2808 130.632 81.1739 130.551 81.0643C130.47 80.9547 130.388 80.8498 130.301 80.7443C130.215 80.6388 130.133 80.5353 130.041 80.4343C129.95 80.3333 129.848 80.2308 129.751 80.1343C129.655 80.038 129.562 79.9459 129.461 79.8543C129.36 79.7627 129.257 79.6708 129.151 79.5843C129.046 79.4978 128.941 79.4155 128.831 79.3343C128.722 79.253 128.605 79.1701 128.491 79.0943C128.378 79.0185 128.268 78.9444 128.151 78.8743C128.034 78.8042 127.912 78.7385 127.791 78.6743C127.671 78.61 127.555 78.5527 127.431 78.4943C127.308 78.4359 127.177 78.3764 127.051 78.3243C126.925 78.2721 126.8 78.2302 126.671 78.1843C126.543 78.1382 126.412 78.0939 126.281 78.0543C126.151 78.0146 126.024 77.9775 125.891 77.9443C125.759 77.9111 125.625 77.8808 125.491 77.8543C125.358 77.8275 125.226 77.8044 125.091 77.7843C124.957 77.7642 124.817 77.7478 124.681 77.7343C124.546 77.7208 124.408 77.7043 124.271 77.7043C124.135 77.7043 123.998 77.6943 123.861 77.6943C123.725 77.6943 123.598 77.7043 123.461 77.7043C123.325 77.7043 123.187 77.7208 123.051 77.7343C122.916 77.7478 122.776 77.7642 122.641 77.7843C122.506 77.8044 122.375 77.8275 122.241 77.8543C122.108 77.8808 121.974 77.9111 121.841 77.9443C121.709 77.9775 121.582 78.0146 121.451 78.0543C121.321 78.0939 121.19 78.1382 121.061 78.1843C120.933 78.2302 120.807 78.2721 120.681 78.3243C120.555 78.3764 120.425 78.4359 120.301 78.4943C120.178 78.5527 120.062 78.61 119.941 78.6743C119.821 78.7385 119.698 78.8042 119.581 78.8743C119.464 78.9444 119.355 79.0185 119.241 79.0943C119.128 79.1701 119.011 79.253 118.901 79.3343C118.792 79.4155 118.687 79.4978 118.581 79.5843C118.476 79.6708 118.372 79.7627 118.271 79.8543C118.17 79.9459 118.068 80.038 117.971 80.1343C117.875 80.2308 117.783 80.3333 117.691 80.4343C117.6 80.5353 117.508 80.6388 117.421 80.7443C117.335 80.8498 117.253 80.9547 117.171 81.0643C117.09 81.1739 117.017 81.2808 116.941 81.3943C116.866 81.5078 116.792 81.6273 116.721 81.7443C116.651 81.8613 116.586 81.974 116.521 82.0943C116.457 82.2144 116.39 82.341 116.331 82.4643C116.273 82.5875 116.224 82.7083 116.171 82.8343C116.119 82.9603 116.067 83.096 116.021 83.2243C115.976 83.3526 115.931 83.4738 115.891 83.6043C115.852 83.735 115.814 83.8721 115.781 84.0043C115.748 84.1365 115.718 84.2705 115.691 84.4043C115.665 84.5381 115.651 84.6693 115.631 84.8043C115.612 84.9392 115.595 85.0785 115.581 85.2143C115.568 85.35 115.551 85.4781 115.551 85.6143C115.551 85.7504 115.541 85.8878 115.541 86.0243L115.531 86.0243ZM139.791 110.584C139.791 119.79 147.251 127.254 156.451 127.254C165.651 127.254 173.111 119.79 173.111 110.584C173.111 101.379 165.653 93.9243 156.451 93.9243C147.251 93.9243 139.801 101.379 139.801 110.584L139.791 110.584Z"   fill="#333333" >
</path>
<path     fill="#333333"  d="M16.4943 191.297C16.4943 195.874 12.8086 199.572 8.24715 199.572C3.68572 199.572 0 195.874 0 191.297L0 9.27428C0 4.69715 3.68572 1 8.24715 1C12.8086 1 16.4943 4.69715 16.4943 9.27428L16.4943 191.297ZM8.24715 199.572C3.68572 199.572 0 195.874 0 191.297C0 186.721 3.68572 183.024 8.24715 183.024L191.753 183.024C196.314 183.024 200 186.721 200 191.297C200 195.874 196.314 199.572 191.753 199.572">
</path>
</svg>
