<?xml version="1.0"?><svg xmlns="http://www.w3.org/2000/svg" id="Layer_1" data-name="Layer 1" viewBox="0 0 24 24" width="512" height="512"><path d="M23,24H5c-2.76,0-5-2.24-5-5V1C0,.45,.45,0,1,0s1,.45,1,1V19c0,1.65,1.35,3,3,3H23c.55,0,1,.45,1,1s-.45,1-1,1Zm0-20.5c0-1.93-1.57-3.5-3.5-3.5s-3.5,1.57-3.5,3.5,1.57,3.5,3.5,3.5,3.5-1.57,3.5-3.5Zm-2,0c0,.83-.67,1.5-1.5,1.5s-1.5-.67-1.5-1.5,.67-1.5,1.5-1.5,1.5,.67,1.5,1.5Zm1,10c0-1.93-1.57-3.5-3.5-3.5s-3.5,1.57-3.5,3.5,1.57,3.5,3.5,3.5,3.5-1.57,3.5-3.5Zm-2,0c0,.83-.67,1.5-1.5,1.5s-1.5-.67-1.5-1.5,.67-1.5,1.5-1.5,1.5,.67,1.5,1.5Zm-7-6.5c0-1.65-1.35-3-3-3s-3,1.35-3,3,1.35,3,3,3,3-1.35,3-3Zm-1,9c0-1.65-1.35-3-3-3s-3,1.35-3,3,1.35,3,3,3,3-1.35,3-3Z"/></svg>
