<?xml version="1.0" encoding="utf-8"?>
<!-- Generator: Adobe Illustrator 23.0.2, SVG Export Plug-In . SVG Version: 6.00 Build 0)  -->
<svg version="1.1" id="图层_1" xmlns="http://www.w3.org/2000/svg" xmlns:xlink="http://www.w3.org/1999/xlink" x="0px" y="0px"
	 viewBox="0 0 56.948 10" enable-background="new 0 0 56.948 10" xml:space="preserve">
<path fill="#EC6964" d="M30.776,8.041c-0.939,1.543-2.829,2.326-4.642,1.791c-2.162-0.639-3.396-2.908-2.758-5.07
	c0.011-0.038,0.023-0.074,0.034-0.11c0.01-0.031,0.021-0.062,0.031-0.092C23.45,4.533,23.46,4.506,23.47,4.48
	c0.155-0.423,0.362-0.778,0.6-1.072c0.01-0.012,0.02-0.024,0.029-0.036c0.837-1.004,2.049-1.274,2.849-1.038
	c1.09,0.322,0.779,1.234,0.779,1.234C27.719,3.596,27.71,3.622,27.7,3.647c-0.294,0.696-2.197,0.047-2.665,1.723
	c-0.362,1.296,0.355,2.645,1.645,3.026c0.024,0.007,0.047,0.014,0.071,0.019c1.953,0.538,3.052-0.797,3.408-2.001
	c0.36-1.218-0.918-2.6-0.484-2.913C29.675,3.501,32.239,5.081,30.776,8.041z"/>
<g>
	<path fill="#704665" d="M28.085,4.992c-0.15-0.032-0.24-0.091-0.295-0.152c-0.089-0.098-0.226-0.14-0.347-0.087
		c-0.95,0.409-0.557,1.083-0.694,1.26c-0.242,0.409-0.574,0.079-0.596,0.148c0.044,0.432,0.879,0.524,1.318,0.369
		c0.388-0.137,0.918-0.384,0.916-1.174C28.386,5.178,28.26,5.029,28.085,4.992z"/>
	<path fill="#704665" d="M28.722,2.722c-1.134,1.388-0.978,2.276-0.379,2.092c0.599-0.185,1.293-2.463,2.928-3.324l2.556-1.344
		C34.314-0.458,30.217,0.892,28.722,2.722z"/>
</g>
<g>
	<path fill="#273648" d="M21.244,8.101c-0.025-0.032-0.07-0.037-0.103-0.013c-0.37,0.277-0.732,0.417-1.074,0.417
		c-0.602,0-1.007-0.477-1.399-0.939c-0.118-0.139-0.237-0.279-0.363-0.405c0.429-0.299,0.707-0.801,0.692-1.366
		c-0.024-0.878-0.772-1.564-1.65-1.564h-1.183c-0.041,0-0.074,0.033-0.074,0.074v4.831c0,0.041,0.033,0.074,0.074,0.074h0.606
		c0.041,0,0.074-0.033,0.074-0.074V7.525c0-0.041,0.033-0.074,0.074-0.074h0.47c0.193,0,0.454,0.307,0.706,0.604
		c0.456,0.537,1.023,1.205,1.974,1.205c0.513,0,1.03-0.194,1.538-0.576c0.033-0.025,0.039-0.072,0.013-0.105L21.244,8.101z
		 M17.387,6.698h-0.47c-0.041,0-0.074-0.033-0.074-0.074V5.059c0-0.041,0.033-0.074,0.074-0.074h0.445
		c0.446,0,0.835,0.33,0.877,0.774C18.287,6.268,17.886,6.698,17.387,6.698z"/>
	<path fill="#273648" d="M15.575,8.466c-0.333-0.028-0.47-0.269-0.686-0.779c-0.062-0.146-0.132-0.312-0.224-0.465
		c0.486-0.291,0.808-0.83,0.786-1.442c-0.033-0.871-0.775-1.549-1.647-1.549h-1.185c-0.041,0-0.075,0.034-0.075,0.075v4.829
		c0,0.041,0.034,0.075,0.075,0.075h0.604c0.041,0,0.075-0.034,0.075-0.075V7.527c0-0.041,0.034-0.075,0.075-0.075h0.469
		c0.111,0,0.195,0.156,0.353,0.529c0.203,0.481,0.507,1.2,1.371,1.24c0.042,0.002,0.077-0.033,0.077-0.075V8.541
		C15.643,8.502,15.613,8.469,15.575,8.466z M13.842,6.698h-0.469c-0.041,0-0.075-0.034-0.075-0.075V5.061
		c0-0.041,0.034-0.075,0.075-0.075h0.444c0.445,0,0.835,0.33,0.877,0.774C14.742,6.268,14.341,6.698,13.842,6.698z"/>
	<path fill="#273648" d="M12.025,4.248H8.751c-0.04,0-0.073,0.033-0.073,0.073v2.031v0.754v2.031c0,0.04,0.033,0.073,0.073,0.073
		h3.274c0.04,0,0.073-0.033,0.073-0.073V8.53c0-0.04-0.033-0.073-0.073-0.073H9.432v-1.35h2.593c0.04,0,0.073-0.033,0.073-0.073
		V6.425c0-0.04-0.033-0.073-0.073-0.073H9.432v-1.35h2.593c0.04,0,0.073-0.033,0.073-0.073V4.321
		C12.098,4.281,12.065,4.248,12.025,4.248z"/>
	<path fill="#273648" d="M21.841,4.28c-0.033-0.027-0.081-0.022-0.108,0.01l-0.884,1.075c-0.031,0.037-0.088,0.037-0.118,0
		L19.846,4.29c-0.027-0.033-0.075-0.037-0.108-0.01l-0.463,0.383c-0.033,0.027-0.037,0.075-0.01,0.108l1.131,1.374
		c0.011,0.014,0.017,0.031,0.017,0.049V8.02c0,0.053,0.052,0.089,0.102,0.073c0.203-0.067,0.41-0.18,0.621-0.337
		c0.02-0.015,0.031-0.038,0.031-0.062V6.193c0-0.018,0.006-0.035,0.017-0.049l1.13-1.374c0.027-0.033,0.022-0.081-0.01-0.108
		L21.841,4.28z"/>
	<path fill="#273648" d="M8.154,4.232H7.552c-0.042,0-0.076,0.034-0.076,0.076v2.045H5.137V4.308c0-0.042-0.034-0.076-0.076-0.076
		H4.459c-0.042,0-0.076,0.034-0.076,0.076v2.045v0.754v2.028c0,0.042,0.034,0.076,0.076,0.076h0.602
		c0.042,0,0.076-0.034,0.076-0.076V7.106h2.339v2.028c0,0.042,0.034,0.076,0.076,0.076h0.602c0.042,0,0.076-0.034,0.076-0.076V7.106
		V6.353V4.308C8.23,4.266,8.196,4.232,8.154,4.232z"/>
	<path fill="#273648" d="M3.545,8.183c-0.024-0.033-0.07-0.04-0.104-0.017c-0.284,0.191-0.614,0.291-0.96,0.291
		c-1.02,0-1.836-0.889-1.715-1.933c0.093-0.797,0.742-1.435,1.541-1.513C2.712,4.971,3.104,5.07,3.434,5.289
		c0.034,0.023,0.079,0.016,0.103-0.017l0.355-0.488C3.917,4.749,3.91,4.701,3.875,4.677C3.463,4.396,2.983,4.248,2.481,4.248
		c-1.366,0-2.49,1.13-2.481,2.497c0.009,1.361,1.118,2.466,2.481,2.466c0.506,0,0.99-0.15,1.404-0.435
		C3.92,8.752,3.927,8.703,3.902,8.669L3.545,8.183z"/>
	<path fill="#273648" d="M56.869,8.579l-0.374-0.477c-0.025-0.032-0.07-0.037-0.103-0.013c-0.37,0.277-0.731,0.417-1.074,0.417
		c-0.602,0-1.007-0.477-1.399-0.939c-0.118-0.139-0.237-0.279-0.363-0.405c0.429-0.299,0.707-0.801,0.692-1.366
		c-0.024-0.878-0.772-1.564-1.65-1.564h-1.183c-0.041,0-0.074,0.033-0.074,0.074v4.831c0,0.041,0.033,0.074,0.074,0.074h0.606
		c0.041,0,0.074-0.033,0.074-0.074V7.525c0-0.041,0.033-0.074,0.074-0.074h0.47c0.193,0,0.454,0.307,0.706,0.604
		C53.8,8.592,54.367,9.26,55.318,9.26c0.513,0,1.03-0.194,1.538-0.576C56.888,8.659,56.894,8.611,56.869,8.579z M52.638,6.698h-0.47
		c-0.041,0-0.074-0.033-0.074-0.074V5.06c0-0.041,0.033-0.074,0.074-0.074h0.445c0.445,0,0.835,0.33,0.877,0.774
		C53.538,6.268,53.137,6.698,52.638,6.698z"/>
	<path fill="#273648" d="M46.142,4.928V4.323c0-0.041-0.033-0.075-0.075-0.075h-3.557c-0.041,0-0.075,0.033-0.075,0.075v0.605
		c0,0.041,0.033,0.075,0.075,0.075h1.402v4.134c0,0.041,0.033,0.075,0.075,0.075h0.605c0.041,0,0.075-0.033,0.075-0.075V5.002h1.402
		C46.109,5.002,46.142,4.969,46.142,4.928z"/>
	<path fill="#273648" d="M38.262,4.248l-1.73,0c-0.042,0-0.076,0.034-0.076,0.076v4.81c0,0.042,0.034,0.076,0.076,0.076l1.73,0
		c1.368,0,2.481-1.113,2.481-2.482C40.743,5.361,39.63,4.248,38.262,4.248z M38.262,8.457l-0.976,0
		c-0.042,0-0.076-0.034-0.076-0.076V5.079c0-0.042,0.034-0.076,0.076-0.076l0.976,0c0.952,0,1.727,0.775,1.727,1.727
		C39.989,7.682,39.214,8.457,38.262,8.457z"/>
	<path fill="#273648" d="M35.912,4.248h-3.265c-0.043,0-0.077,0.035-0.077,0.077v4.808c0,0.043,0.035,0.077,0.077,0.077h3.265
		c0.043,0,0.077-0.035,0.077-0.077v-0.6c0-0.043-0.035-0.077-0.077-0.077h-2.588v-1.35h2.588c0.043,0,0.077-0.035,0.077-0.077v-0.6
		c0-0.043-0.035-0.077-0.077-0.077h-2.588v-1.35h2.588c0.043,0,0.077-0.035,0.077-0.077v-0.6
		C35.989,4.283,35.955,4.248,35.912,4.248z"/>
	<path fill="#273648" d="M41.88,4.232h-0.603c-0.042,0-0.075,0.034-0.075,0.075v4.828c0,0.042,0.034,0.075,0.075,0.075h0.603
		c0.042,0,0.075-0.034,0.075-0.075V4.307C41.956,4.265,41.922,4.232,41.88,4.232z"/>
	<path fill="#273648" d="M48.404,4.248c-1.368,0-2.481,1.113-2.481,2.481c0,1.368,1.113,2.481,2.481,2.481
		c1.368,0,2.481-1.113,2.481-2.481C50.886,5.361,49.773,4.248,48.404,4.248z M48.404,8.457c-0.952,0-1.727-0.775-1.727-1.727
		s0.775-1.727,1.727-1.727s1.727,0.775,1.727,1.727S49.357,8.457,48.404,8.457z"/>
</g>
</svg>
