<?xml version="1.0" encoding="utf-8"?>
<!-- Generator: Adobe Illustrator 23.0.2, SVG Export Plug-In . SVG Version: 6.00 Build 0)  -->
<svg version="1.1" id="图层_1" xmlns="http://www.w3.org/2000/svg" xmlns:xlink="http://www.w3.org/1999/xlink" x="0px" y="0px"
	 viewBox="0 0 128 128" enable-background="new 0 0 128 128" xml:space="preserve">
<path fill="#EC6964" d="M90.88,100.517c-11.271,18.534-33.966,27.935-55.742,21.503C9.176,114.351-5.647,87.099,2.021,61.139
	c0.133-0.451,0.273-0.892,0.41-1.323c0.119-0.371,0.247-0.739,0.374-1.107c0.112-0.316,0.227-0.641,0.348-0.954
	c1.867-5.075,4.346-9.346,7.21-12.871c0.118-0.144,0.236-0.289,0.343-0.427C20.763,32.397,35.315,29.153,44.918,31.99
	c13.085,3.865,9.358,14.819,9.358,14.819c-0.097,0.33-0.21,0.646-0.334,0.94c-3.527,8.361-26.378,0.568-31.997,20.691
	c-4.343,15.556,4.269,31.762,19.758,36.337c0.287,0.085,0.564,0.167,0.847,0.231c23.447,6.463,36.652-9.574,40.922-24.03
	c4.321-14.63-11.028-31.219-5.812-34.974C77.661,46.004,108.447,64.977,90.88,100.517z"/>
<g>
	<path fill="#704665" d="M58.567,63.91c-1.797-0.379-2.884-1.097-3.541-1.823c-1.066-1.177-2.71-1.676-4.169-1.048
		c-11.407,4.913-6.682,13.01-8.331,15.131c-2.901,4.912-6.892,0.946-7.154,1.779c0.53,5.186,10.551,6.287,15.825,4.429
		c4.661-1.642,11.025-4.607,10.996-14.099C62.187,66.136,60.665,64.352,58.567,63.91z"/>
	<path fill="#704665" d="M66.222,36.65c-13.615,16.668-11.742,27.331-4.55,25.115c7.192-2.216,15.521-29.58,35.161-39.91
		L127.52,5.714C133.368-1.54,84.175,14.671,66.222,36.65z"/>
</g>
</svg>
