<?xml version="1.0" encoding="utf-8"?>
<!-- Generator: Adobe Illustrator 23.0.2, SVG Export Plug-In . SVG Version: 6.00 Build 0)  -->
<svg version="1.1" id="图形" xmlns="http://www.w3.org/2000/svg" xmlns:xlink="http://www.w3.org/1999/xlink" x="0px" y="0px"
	 viewBox="0 0 850.4 850.4" style="enable-background:new 0 0 850.4 850.4;" xml:space="preserve">
<g>
	<path d="M765.4-1.7H85C37.2-1.7-1.7,37.2-1.7,85v680.3c0,47.8,38.9,86.7,86.7,86.7h680.3c47.8,0,86.7-38.9,86.7-86.7V85
		C852,37.2,813.2-1.7,765.4-1.7z M792,765.4c0,14.7-12,26.7-26.7,26.7H85c-14.7,0-26.7-12-26.7-26.7V85c0-14.7,12-26.7,26.7-26.7
		h680.3c14.7,0,26.7,12,26.7,26.7V765.4z"/>
</g>
</svg>
