<?xml version="1.0" encoding="utf-8"?>
<!-- Generator: Adobe Illustrator 21.1.0, SVG Export Plug-In . SVG Version: 6.00 Build 0)  -->
<svg version="1.1" id="图形" xmlns="http://www.w3.org/2000/svg" xmlns:xlink="http://www.w3.org/1999/xlink" x="0px" y="0px"
	 viewBox="90.288 58.809 850.394 850.394" enable-background="new 90.288 58.809 850.394 850.394" xml:space="preserve">
<g>
	<path d="M884.335,58.809H146.635c-31.07,0-56.347,26.351-56.347,58.741v732.91c0,32.391,25.277,58.742,56.347,58.742h737.701
		c31.069,0,56.347-26.352,56.347-58.742V117.55C940.682,85.16,915.405,58.809,884.335,58.809z M880.682,849.202H150.288V118.809
		h730.394V849.202z"/>
	<path d="M306.047,639.299l81.469-80.566l138.935,121.541c5.672,4.962,12.716,7.422,19.748,7.421
		c7.645-0.001,15.274-2.908,21.1-8.669l199.813-197.598c11.781-11.65,11.887-30.645,0.236-42.426
		c-11.65-11.78-30.644-11.885-42.426-0.236L544.952,616.74L406.018,495.199c-11.838-10.355-29.664-9.811-40.848,1.249
		L263.858,596.637c-11.781,11.65-11.887,30.645-0.236,42.426C275.272,650.845,294.267,650.949,306.047,639.299z"/>
	<circle cx="336.227" cy="306.138" r="79.04"/>
</g>
</svg>
