<?xml version="1.0" encoding="utf-8"?>
<!-- Generator: Adobe Illustrator 23.0.2, SVG Export Plug-In . SVG Version: 6.00 Build 0)  -->
<svg version="1.1" id="图形" xmlns="http://www.w3.org/2000/svg" xmlns:xlink="http://www.w3.org/1999/xlink" x="0px" y="0px"
	 viewBox="90.288 58.809 850.394 850.394" enable-background="new 90.288 58.809 850.394 850.394" xml:space="preserve">
<g>
	<path d="M855.642,57.156H175.328c-47.803,0-86.693,38.89-86.693,86.693v680.315c0,47.803,38.89,86.693,86.693,86.693h680.314
		c47.803,0,86.693-38.891,86.693-86.693V143.848C942.335,96.046,903.445,57.156,855.642,57.156z M882.335,824.163
		c0,14.719-11.975,26.693-26.693,26.693H175.328c-14.718,0-26.693-11.975-26.693-26.693V143.848
		c0-14.718,11.975-26.693,26.693-26.693h680.314c14.719,0,26.693,11.975,26.693,26.693V824.163z"/>
	<path d="M740.541,293.129L446.358,589.905l-155.93-157.304c-15.553-15.69-40.879-15.8-56.568-0.249
		c-15.689,15.552-15.8,40.879-0.248,56.568L417.95,674.883c7.511,7.577,17.739,11.84,28.408,11.84s20.897-4.263,28.408-11.84
		l322.591-325.434c15.552-15.689,15.441-41.016-0.248-56.568C781.419,277.328,756.094,277.439,740.541,293.129z"/>
</g>
</svg>
