<?xml version="1.0" encoding="utf-8"?>
<!-- Generator: Adobe Illustrator 22.1.0, SVG Export Plug-In . SVG Version: 6.00 Build 0)  -->
<svg version="1.1" id="图形" xmlns="http://www.w3.org/2000/svg" xmlns:xlink="http://www.w3.org/1999/xlink" x="0px" y="0px"
	 viewBox="90.288 58.809 850.394 850.394" enable-background="new 90.288 58.809 850.394 850.394" xml:space="preserve">
<g>
	<path d="M133.497,174.749l54.216-30.471v162.577c0,16.016,12.984,29,29,29s29-12.984,29-29V94.713
		c0-10.301-5.464-19.829-14.355-25.03c-8.89-5.201-19.873-5.297-28.854-0.25l-97.425,54.755
		c-13.962,7.847-18.919,25.527-11.072,39.489C101.855,177.639,119.536,182.596,133.497,174.749z"/>
	<path d="M900.682,443.555H421.337c-22.091,0-40,17.909-40,40c0,22.092,17.909,40,40,40h479.345c22.092,0,40-17.908,40-40
		C940.682,461.464,922.774,443.555,900.682,443.555z"/>
	<path d="M421.337,223.907h479.345c22.092,0,40-17.909,40-40s-17.908-40-40-40H421.337c-22.091,0-40,17.909-40,40
		S399.246,223.907,421.337,223.907z"/>
	<path d="M900.682,743.203H421.337c-22.091,0-40,17.908-40,40s17.909,40,40,40h479.345c22.092,0,40-17.908,40-40
		S922.774,743.203,900.682,743.203z"/>
	<path d="M252.44,455.095c16.016,0,29-12.984,29-29s-12.984-29-29-29H119.288c-16.016,0-29,12.984-29,29s12.984,29,29,29h37.576
		v74.589h-37.576c-16.016,0-29,12.983-29,29s12.984,29,29,29H252.44c16.016,0,29-12.983,29-29s-12.984-29-29-29h-37.576v-74.589
		H252.44z"/>
	<path d="M252.44,662.524H119.288c-16.016,0-29,12.983-29,29s12.984,29,29,29H223.44v123.979H119.288c-16.016,0-29,12.983-29,29
		s12.984,29,29,29H252.44c15.015,0,27.365-11.411,28.85-26.034h0.15V691.524C281.44,675.507,268.456,662.524,252.44,662.524z"/>
</g>
</svg>
