<?xml version="1.0" encoding="utf-8"?>
<!-- Generator: Adobe Illustrator 22.1.0, SVG Export Plug-In . SVG Version: 6.00 Build 0)  -->
<svg version="1.1" id="图形" xmlns="http://www.w3.org/2000/svg" xmlns:xlink="http://www.w3.org/1999/xlink" x="0px" y="0px"
	 viewBox="90.288 58.809 850.394 850.394" enable-background="new 90.288 58.809 850.394 850.394" xml:space="preserve">
<g>
	<path d="M900.682,443.588H398.64c-22.091,0-40,17.909-40,40c0,22.092,17.909,40,40,40h502.042c22.092,0,40-17.908,40-40
		C940.682,461.497,922.774,443.588,900.682,443.588z"/>
	<path d="M398.64,208.42h502.042c22.092,0,40-17.909,40-40s-17.908-40-40-40H398.64c-22.091,0-40,17.909-40,40
		S376.548,208.42,398.64,208.42z"/>
	<path d="M900.682,758.758H398.64c-22.091,0-40,17.908-40,40s17.909,40,40,40h502.042c22.092,0,40-17.908,40-40
		S922.774,758.758,900.682,758.758z"/>
	<ellipse transform="matrix(0.9998 -0.0208 0.0208 0.9998 -10.0306 3.7267)" cx="173.962" cy="483.589" rx="83.673" ry="83.674"/>
	<ellipse transform="matrix(0.9998 -0.0178 0.0178 0.9998 -2.9784 3.1318)" cx="173.962" cy="168.42" rx="83.673" ry="83.674"/>
	<path d="M173.961,715.917c-46.213,0-83.673,37.463-83.673,83.675c0,46.211,37.461,83.674,83.673,83.674
		c46.213,0,83.674-37.463,83.674-83.674C257.635,753.38,220.174,715.917,173.961,715.917z"/>
</g>
</svg>
