<?xml version="1.0" encoding="utf-8"?>
<!-- Generator: Adobe Illustrator 23.0.2, SVG Export Plug-In . SVG Version: 6.00 Build 0)  -->
<svg version="1.1" id="图形" xmlns="http://www.w3.org/2000/svg" xmlns:xlink="http://www.w3.org/1999/xlink" x="0px" y="0px"
	 viewBox="90.288 58.809 850.394 850.394" enable-background="new 90.288 58.809 850.394 850.394" xml:space="preserve">
<g>
	<path d="M912.335,465.073H430.237c-16.568,0-30,13.432-30,30s13.432,30,30,30h482.099c16.568,0,30-13.432,30-30
		S928.904,465.073,912.335,465.073z"/>
	<path d="M912.335,806.542H430.237c-16.568,0-30,13.432-30,30s13.432,30,30,30h482.099c16.568,0,30-13.432,30-30
		S928.904,806.542,912.335,806.542z"/>
	<path d="M430.237,183.605h482.099c16.568,0,30-13.432,30-30s-13.432-30-30-30H430.237c-16.568,0-30,13.432-30,30
		S413.668,183.605,430.237,183.605z"/>
	<path d="M250.097,743.781l-72.991,72.99l-37.258-37.258c-11.716-11.716-30.71-11.716-42.427,0
		c-11.715,11.715-11.716,30.71,0,42.426l58.471,58.472c5.626,5.626,13.257,8.787,21.213,8.787s15.587-3.161,21.213-8.787
		l94.204-94.204c11.715-11.716,11.715-30.71,0-42.426C280.808,732.065,261.812,732.065,250.097,743.781z"/>
	<path d="M250.097,415.69l-72.991,72.991l-37.258-37.258c-11.716-11.716-30.711-11.716-42.427,0s-11.716,30.711,0,42.427
		l58.471,58.471c5.858,5.858,13.536,8.787,21.213,8.787s15.355-2.929,21.213-8.787l94.204-94.204
		c11.715-11.716,11.715-30.711,0-42.427C280.808,403.974,261.812,403.974,250.097,415.69z"/>
	<path d="M155.893,224.231c5.626,5.626,13.257,8.787,21.213,8.787s15.587-3.161,21.213-8.787l94.204-94.205
		c11.715-11.716,11.715-30.711,0-42.427c-11.715-11.716-30.71-11.715-42.426,0l-72.991,72.991l-37.258-37.258
		c-11.716-11.716-30.71-11.716-42.427,0c-11.715,11.716-11.716,30.711,0,42.427L155.893,224.231z"/>
</g>
</svg>
