<?xml version="1.0" encoding="utf-8"?>
<!-- Generator: Adobe Illustrator 16.0.0, SVG Export Plug-In . SVG Version: 6.00 Build 0)  -->
<!DOCTYPE svg PUBLIC "-//W3C//DTD SVG 1.1//EN" "http://www.w3.org/Graphics/SVG/1.1/DTD/svg11.dtd">
<svg version="1.1" id="图形" xmlns="http://www.w3.org/2000/svg" xmlns:xlink="http://www.w3.org/1999/xlink" x="0px" y="0px"
	 width="1000.637px" height="1000.678px" viewBox="15.167 -16.333 1000.637 1000.678"
	 enable-background="new 15.167 -16.333 1000.637 1000.678" xml:space="preserve">
<path d="M830.839,197.429c-22.092,0-40,17.909-40,40v342.303h-494.14l45.115-45.114c15.621-15.621,15.621-40.947,0-56.568
	c-15.62-15.621-40.947-15.62-56.568,0L171.846,591.448c-0.645,0.646-1.254,1.313-1.846,1.989c-0.136,0.155-0.27,0.312-0.402,0.469
	c-1.199,1.414-2.284,2.891-3.255,4.421c-0.052,0.082-0.104,0.165-0.155,0.248c-1.007,1.613-1.89,3.28-2.645,4.992
	c-0.017,0.038-0.034,0.077-0.05,0.116c-0.759,1.733-1.39,3.509-1.891,5.313c-0.023,0.082-0.044,0.165-0.067,0.247
	c-0.474,1.752-0.829,3.529-1.062,5.32c-0.023,0.178-0.043,0.355-0.063,0.533c-0.093,0.801-0.167,1.603-0.211,2.406
	c-0.004,0.082-0.013,0.163-0.018,0.245c-0.042,0.844-0.049,1.688-0.037,2.533c0.003,0.231,0.009,0.462,0.017,0.693
	c0.025,0.814,0.068,1.629,0.143,2.44c0.004,0.047,0.005,0.094,0.01,0.141c0.083,0.871,0.205,1.739,0.345,2.604
	c0.03,0.182,0.06,0.363,0.092,0.545c0.322,1.825,0.771,3.63,1.347,5.404c0.019,0.059,0.038,0.118,0.057,0.177
	c0.615,1.864,1.37,3.691,2.267,5.467c0.006,0.013,0.011,0.024,0.018,0.036c0.203,0.401,0.415,0.8,0.633,1.196
	c0.052,0.096,0.105,0.189,0.158,0.284c0.21,0.376,0.423,0.75,0.647,1.12c0.006,0.01,0.012,0.02,0.018,0.029
	c0.397,0.656,0.818,1.302,1.257,1.939c0.163,0.237,0.325,0.475,0.493,0.707c0.158,0.22,0.319,0.438,0.482,0.654
	c0.235,0.314,0.476,0.623,0.72,0.93c0.116,0.146,0.229,0.293,0.348,0.438c0.381,0.465,0.772,0.92,1.172,1.365
	c0.072,0.08,0.146,0.157,0.219,0.236c0.359,0.394,0.726,0.779,1.1,1.158c0.055,0.056,0.105,0.113,0.161,0.169l110.851,110.852
	c7.811,7.812,18.046,11.716,28.284,11.716c10.236,0,20.475-3.906,28.284-11.716c15.621-15.621,15.621-40.947,0-56.568
	l-42.567-42.567h534.141c22.092,0,40-17.908,40-40V237.429C870.839,215.338,852.931,197.429,830.839,197.429z"/>
</svg>
