<?xml version="1.0" encoding="utf-8"?>
<!-- Generator: Adobe Illustrator 23.0.2, SVG Export Plug-In . SVG Version: 6.00 Build 0)  -->
<svg version="1.1" id="图层_1" xmlns="http://www.w3.org/2000/svg" xmlns:xlink="http://www.w3.org/1999/xlink" x="0px" y="0px"
	 viewBox="0 0 850.394 850.394" enable-background="new 0 0 850.394 850.394" xml:space="preserve">
<g>
	<path fill="#040000" d="M850.393,329.42c0,0.039-0.003,0.077-0.003,0.116v462.116c0,32.39-25.273,58.74-56.34,58.74H651.97
		c-16.568,0-30-13.431-30-30c0-16.568,13.432-30,30-30h138.42V359.42H60.001v430.972h138.43c16.568,0,30,13.432,30,30
		c0,16.569-13.432,30-30,30H56.351c-31.072,0-56.35-26.351-56.35-58.74V58.741c0-32.389,25.278-58.739,56.35-58.739h737.7
		c31.066,0,56.34,26.351,56.34,58.739v270.563C850.39,329.343,850.393,329.381,850.393,329.42z M60.001,299.42h335.197V65.959
		c0-2.04,0.206-4.031,0.594-5.957H60.001V299.42z M454.604,60.002c0.388,1.926,0.594,3.917,0.594,5.957V299.42H790.39V60.002
		H454.604z"/>
	<path fill="#040000" d="M283.465,648.658h111.732V536.926c0-16.568,13.432-30,30-30c16.569,0,30,13.432,30,30v111.732h111.731
		c16.568,0,30,13.432,30,30s-13.432,30-30,30H455.198v111.732c0,16.568-13.432,30-30,30c-16.568,0-30-13.432-30-30V708.658H283.465
		c-16.568,0-30-13.432-30-30S266.897,648.658,283.465,648.658z"/>
</g>
</svg>
