<?xml version="1.0" encoding="utf-8"?>
<!-- Generator: Adobe Illustrator 21.1.0, SVG Export Plug-In . SVG Version: 6.00 Build 0)  -->
<svg version="1.1" id="图形" xmlns="http://www.w3.org/2000/svg" xmlns:xlink="http://www.w3.org/1999/xlink" x="0px" y="0px"
	 viewBox="90.288 58.809 850.394 850.394" enable-background="new 90.288 58.809 850.394 850.394" xml:space="preserve">
<g>
	<path d="M788.443,660.555c-16.568,0-30,13.432-30,30v155.038H150.288V218.621h261.257c16.568,0,30-13.432,30-30s-13.432-30-30-30
		H149.728c-32.775,0-59.44,26.627-59.44,59.356v628.26c0,32.729,26.665,59.355,59.44,59.355h609.275
		c32.775,0,59.439-26.627,59.439-59.355V690.555C818.443,673.987,805.011,660.555,788.443,660.555z"/>
	<path d="M940.681,299.995c0-0.048-0.001-0.095-0.002-0.143c-0.002-0.404-0.011-0.806-0.029-1.208
		c-0.001-0.03-0.003-0.06-0.004-0.089c-0.002-0.036-0.004-0.072-0.006-0.108c-0.021-0.418-0.051-0.834-0.089-1.248
		c-0.002-0.027-0.005-0.053-0.008-0.08c-0.004-0.038-0.008-0.076-0.012-0.113c-0.041-0.407-0.088-0.812-0.146-1.215
		c-0.005-0.035-0.01-0.069-0.014-0.104c-0.008-0.054-0.017-0.107-0.025-0.161c-0.056-0.373-0.118-0.745-0.188-1.115
		c-0.009-0.049-0.017-0.098-0.027-0.146c-0.017-0.086-0.037-0.172-0.055-0.257c-0.065-0.317-0.132-0.633-0.207-0.947
		c-0.016-0.069-0.031-0.139-0.047-0.208c-0.031-0.128-0.069-0.254-0.101-0.382c-0.064-0.247-0.129-0.494-0.199-0.739
		c-0.026-0.093-0.049-0.186-0.077-0.278c-0.051-0.172-0.11-0.343-0.165-0.514c-0.055-0.174-0.109-0.348-0.168-0.521
		c-0.039-0.115-0.073-0.232-0.113-0.346c-0.073-0.209-0.156-0.416-0.234-0.624c-0.041-0.11-0.081-0.22-0.124-0.33
		c-0.053-0.137-0.102-0.275-0.157-0.411c-0.094-0.231-0.198-0.459-0.298-0.688c-0.028-0.064-0.054-0.127-0.083-0.191
		c-0.068-0.154-0.131-0.309-0.202-0.462c-0.11-0.236-0.23-0.469-0.346-0.703c-0.02-0.039-0.039-0.079-0.058-0.118
		c-0.083-0.166-0.161-0.333-0.247-0.498c-0.117-0.224-0.245-0.443-0.369-0.664c-0.022-0.039-0.043-0.077-0.065-0.116
		c-0.096-0.17-0.187-0.343-0.287-0.512c-0.116-0.197-0.242-0.39-0.364-0.584c-0.038-0.06-0.075-0.121-0.113-0.181
		c-0.104-0.165-0.203-0.332-0.311-0.496c-0.107-0.163-0.224-0.322-0.335-0.483c-0.068-0.099-0.137-0.198-0.207-0.296
		c-0.106-0.15-0.207-0.303-0.316-0.451c-0.091-0.124-0.189-0.245-0.283-0.368c-0.114-0.151-0.231-0.3-0.349-0.45
		c-0.099-0.126-0.193-0.254-0.295-0.379c-0.071-0.087-0.146-0.171-0.218-0.257c-0.174-0.209-0.352-0.414-0.531-0.618
		c-0.083-0.094-0.161-0.191-0.245-0.284c-0.049-0.055-0.101-0.108-0.151-0.162c-0.24-0.262-0.486-0.519-0.735-0.773
		c-0.052-0.053-0.1-0.109-0.153-0.161c-0.008-0.008-0.017-0.016-0.025-0.024c-0.012-0.012-0.022-0.024-0.034-0.036l-0.171-0.17
		c-0.046-0.045-0.09-0.091-0.136-0.135L723.701,71.175c-11.731-11.699-30.727-11.673-42.427,0.06
		c-11.699,11.732-11.672,30.727,0.06,42.426l147.12,146.705c-11.89-0.471-24.669-0.637-38.149-0.34
		c-42.718,0.941-83.819,6.348-122.162,16.071c-48.48,12.294-92.67,31.553-131.339,57.241
		c-98.628,65.52-161.269,171.494-186.182,314.979c-2.834,16.324,8.101,31.855,24.425,34.689c1.737,0.302,3.463,0.447,5.168,0.447
		c14.316,0,26.989-10.285,29.522-24.873c21.95-126.42,75.745-218.948,159.89-275.015c74.7-49.774,160.969-62.012,220.186-63.513
		c21.067-0.535,40.328,0.211,56.791,1.473L681.333,486.329c-11.731,11.699-11.759,30.694-0.06,42.427
		c5.861,5.877,13.551,8.816,21.243,8.816c7.663,0,15.328-2.919,21.184-8.757l208.165-207.577c0.012-0.012,0.022-0.024,0.034-0.036
		c0.008-0.008,0.017-0.016,0.025-0.024c0.021-0.021,0.04-0.044,0.062-0.065c0.274-0.276,0.54-0.558,0.803-0.845
		c0.057-0.062,0.117-0.123,0.174-0.186c0.016-0.017,0.031-0.034,0.046-0.052c0.273-0.303,0.537-0.614,0.798-0.929
		c0.05-0.06,0.101-0.118,0.15-0.179c0.01-0.012,0.02-0.024,0.03-0.036c0.252-0.311,0.496-0.629,0.737-0.951
		c0.053-0.07,0.108-0.139,0.16-0.21c0.008-0.011,0.017-0.023,0.026-0.034c0.216-0.295,0.422-0.597,0.627-0.9
		c0.067-0.099,0.138-0.196,0.204-0.296c0.01-0.015,0.021-0.031,0.031-0.046c0.168-0.256,0.328-0.52,0.488-0.782
		c0.089-0.145,0.183-0.287,0.269-0.433c0.013-0.023,0.027-0.046,0.04-0.068c0.117-0.199,0.225-0.405,0.338-0.607
		c0.114-0.206,0.233-0.409,0.342-0.617c0.017-0.032,0.033-0.065,0.05-0.097c0.061-0.118,0.117-0.24,0.177-0.359
		c0.026-0.052,0.051-0.104,0.077-0.157c0.117-0.235,0.237-0.468,0.347-0.705c0.021-0.046,0.041-0.092,0.062-0.137
		c0.02-0.044,0.037-0.088,0.057-0.132c0.057-0.126,0.11-0.254,0.165-0.381c0.1-0.23,0.205-0.459,0.299-0.691
		c0.025-0.062,0.048-0.125,0.072-0.187c0.003-0.008,0.006-0.017,0.009-0.025c0.061-0.154,0.116-0.31,0.175-0.465
		c0.087-0.229,0.178-0.457,0.259-0.688c0.028-0.08,0.052-0.16,0.079-0.24c0.003-0.01,0.006-0.019,0.009-0.029
		c0.048-0.142,0.091-0.284,0.137-0.426c0.074-0.229,0.152-0.456,0.22-0.686c0.029-0.098,0.053-0.197,0.081-0.295
		c0.011-0.04,0.021-0.082,0.033-0.122c0.028-0.101,0.054-0.202,0.081-0.303c0.061-0.226,0.127-0.451,0.182-0.679
		c0.027-0.112,0.05-0.226,0.076-0.339c0.006-0.026,0.014-0.052,0.02-0.078c0.017-0.076,0.029-0.152,0.046-0.228
		c0.006-0.026,0.011-0.051,0.017-0.077c0.05-0.231,0.106-0.461,0.15-0.692c0.022-0.115,0.039-0.231,0.06-0.346
		c0.032-0.176,0.06-0.353,0.089-0.529c0.03-0.182,0.065-0.364,0.091-0.546c0.015-0.106,0.026-0.212,0.04-0.318
		c0.034-0.25,0.062-0.5,0.09-0.75c0.013-0.122,0.031-0.243,0.042-0.364c0.008-0.087,0.013-0.174,0.02-0.261
		c0.028-0.317,0.05-0.634,0.068-0.95c0.004-0.075,0.011-0.15,0.014-0.225c0.003-0.066,0.004-0.133,0.007-0.199
		c0.016-0.369,0.025-0.738,0.026-1.105C940.68,300.086,940.681,300.04,940.681,299.995z"/>
</g>
</svg>
