<svg width="16" height="16" viewBox="0 0 16 16" fill="none" xmlns="http://www.w3.org/2000/svg">
<path d="M4.01465 3.00293H6.40753C6.57587 3.00293 6.74148 3.04543 6.88902 3.12648L8.27257 3.88655C8.42011 3.96761 8.58572 4.0101 8.75406 4.0101H12.0146C12.5669 4.0101 13.0146 4.45782 13.0146 5.0101V6.00717H5.64723C4.81367 6.00717 4.06753 6.52415 3.7747 7.30457L3.01465 9.33022V4.00293C3.01465 3.45065 3.46236 3.00293 4.01465 3.00293ZM14.0146 6.01442V5.0101C14.0146 3.90553 13.1192 3.0101 12.0146 3.0101H8.75406L7.37052 2.25003C7.07544 2.08792 6.74421 2.00293 6.40753 2.00293H4.01465C2.91008 2.00293 2.01465 2.89836 2.01465 4.00293V11.9644C2.01465 13.069 2.91008 13.9644 4.01465 13.9644H12.1551C13.0213 13.9644 13.7891 13.4067 14.057 12.583L15.4719 8.23298C15.8125 7.18574 15.0842 6.11231 14.0146 6.01442ZM3.02952 12.1372L4.71096 7.65587C4.85738 7.26566 5.23045 7.00717 5.64723 7.00717H13.8552C14.3309 7.00717 14.668 7.47136 14.5209 7.92368L13.1061 12.2737C12.9721 12.6856 12.5882 12.9644 12.1551 12.9644H4.01465C3.52129 12.9644 3.11137 12.6071 3.02952 12.1372Z" fill="#182B50"/>
</svg>
