<svg t="1659342220459" class="icon" viewBox="0 0 1024 1024" version="1.1" xmlns="http://www.w3.org/2000/svg" p-id="1214" width="32" height="32"><path d="M11.37777813 876.08888853l0-409.60000001c0-77.36888854 59.1644448-136.53333333 136.53333334-136.53333332l409.6 0c77.36888854 0 136.53333333 59.1644448 136.53333333 136.53333333l0 409.6c0 77.36888854-59.1644448 136.53333333-136.53333332 136.53333334l-409.60000001 0c-77.36888854 0-136.53333333-59.1644448-136.53333334-136.53333334z m591.64444374-409.6c0-27.30666667-18.2044448-45.51111147-45.5111104-45.5111104l-409.59999999 0c-27.30666667 0-45.51111147 18.2044448-45.51111148 45.5111104l0 409.59999999c0 27.30666667 18.2044448 45.51111147 45.51111148 45.51111148l409.59999999 0c27.30666667 0 45.51111147-18.2044448 45.5111104-45.51111148l0-409.59999999z" p-id="1215"></path><path d="M329.9555552 193.42222187L329.9555552 147.91111147c0-77.36888854 59.1644448-136.53333333 136.53333332-136.53333334L876.08888853 11.37777813c77.36888854 0 136.53333333 59.1644448 136.53333334 136.53333334l0 409.60000001c0 77.36888854-59.1644448 136.53333333-136.53333334 136.53333332l-45.5111104 0c-27.30666667 0-45.51111147-18.2044448-45.51111146-45.51111147s18.2044448-45.51111147 45.51111146-45.51111145L876.08888852 603.02222187c27.30666667 0 45.51111147-18.2044448 45.51111148-45.5111104L921.6 147.91111148c0-27.30666667-18.2044448-45.51111147-45.51111148-45.51111148l-409.59999999 0c-27.30666667 0-45.51111147 18.2044448-45.5111104 45.51111148l-1e-8 45.51111039c0 27.30666667-18.2044448 45.51111147-45.51111145 45.51111146s-45.51111147-18.2044448-45.51111147-45.51111146z" p-id="1216"></path></svg>
