<svg width="16" height="16" viewBox="0 0 16 16" fill="none" xmlns="http://www.w3.org/2000/svg">
<path d="M14.458 6.10123C15.2391 5.32018 15.2391 4.05385 14.458 3.2728L12.8084 1.62314C12.0273 0.842091 10.761 0.842092 9.97993 1.62314L2.98624 8.61682C2.63583 8.96724 2.39698 9.41354 2.29979 9.89948L1.62349 13.281C1.48355 13.9807 2.10047 14.5976 2.80019 14.4577L6.18168 13.7814C6.66761 13.6842 7.11391 13.4453 7.46433 13.0949L14.458 6.10123ZM13.7509 3.9799C14.1414 4.37043 14.1414 5.00359 13.7509 5.39412L12.8089 6.33611L9.74505 3.27223L10.687 2.33025C11.0776 1.93972 11.7107 1.93972 12.1012 2.33025L13.7509 3.9799ZM9.03794 3.97934L12.1018 7.04321L6.75722 12.3878C6.54641 12.5986 6.27791 12.7423 5.98556 12.8008L2.60407 13.4771L3.28037 10.0956C3.33884 9.80324 3.48254 9.53474 3.69335 9.32393L9.03794 3.97934Z" fill="#182B50"/>
</svg>
