<?xml version="1.0" encoding="utf-8"?>
<!-- Generator: Adobe Illustrator 21.1.0, SVG Export Plug-In . SVG Version: 6.00 Build 0)  -->
<svg version="1.1" id="图形" xmlns="http://www.w3.org/2000/svg" xmlns:xlink="http://www.w3.org/1999/xlink" x="0px" y="0px"
	 viewBox="90.288 58.809 850.394 850.394" enable-background="new 90.288 58.809 850.394 850.394" xml:space="preserve">
<g>
	<path fill="#020202" d="M461.283,823.23H150.288V128.706h586.671v256.65c0,16.568,13.432,30,30,30s30-13.432,30-30V98.706
		c0-16.568-13.432-30-30-30H120.288c-16.568,0-30,13.432-30,30V853.23c0,16.568,13.432,30,30,30h340.995c16.568,0,30-13.432,30-30
		S477.851,823.23,461.283,823.23z"/>
	<path fill="#020202" d="M641.629,273.383c0-16.568-13.432-30-30-30h-336.01c-16.568,0-30,13.432-30,30s13.432,30,30,30h336.01
		C628.198,303.383,641.629,289.951,641.629,273.383z"/>
	<path fill="#020202" d="M275.619,445.968c-16.568,0-30,13.432-30,30s13.432,30,30,30h168.745c16.568,0,30-13.432,30-30
		s-13.432-30-30-30H275.619z"/>
	<path fill="#020202" d="M931.987,848.184L830.601,745.922c10.776-22.28,16.83-47.284,16.83-73.688
		c0-93.102-75.21-168.846-167.656-168.846c-92.445,0-167.655,75.744-167.655,168.846c0,93.103,75.21,168.847,167.655,168.847
		c44.47,0,84.946-17.533,114.986-46.087l94.617,95.435c5.866,5.916,13.584,8.878,21.306,8.878c7.634,0,15.271-2.896,21.121-8.695
		C943.57,878.945,943.652,859.95,931.987,848.184z M679.775,781.08c-59.361,0-107.655-48.828-107.655-108.847
		c0-60.018,48.294-108.846,107.655-108.846c59.362,0,107.656,48.828,107.656,108.846C787.431,732.252,739.137,781.08,679.775,781.08
		z"/>
</g>
</svg>
